<?xml version="1.0" encoding="UTF-8" standalone="no"?><!DOCTYPE svg PUBLIC "-//W3C//DTD SVG 1.1//EN" "http://www.w3.org/Graphics/SVG/1.1/DTD/svg11.dtd"><svg width="100%" height="100%" viewBox="0 0 19500 14400" version="1.1" xmlns="http://www.w3.org/2000/svg" xmlns:xlink="http://www.w3.org/1999/xlink" xml:space="preserve" xmlns:serif="http://www.serif.com/" style="fill-rule:evenodd;clip-rule:evenodd;stroke-linejoin:round;stroke-miterlimit:2;"><g id="edges"><path d="M10569.5,11906.2c0,-0 689.019,352.795 1163.02,443.664c443.093,84.944 862.023,22.913 1479.25,-193.731c629.112,-220.815 1444.96,-855.438 1444.96,-855.438c52.173,-40.47 126.824,-33.382 170.449,16.184c43.624,49.566 41.173,124.513 -5.596,171.123c0,0 -708.612,703.25 -1143.98,924.706c-1325.37,674.174 -1878.18,534.906 -2229.98,465.798c-251.184,-49.343 -804.807,-344.814 -804.807,-344.814c-23.694,-12.761 -42.638,-32.828 -54.014,-57.218l-189.405,-406.09c-22.556,-48.362 -11.924,-105.71 26.471,-142.772c38.394,-37.062 96.082,-45.663 143.617,-21.412Zm-56.804,111.347l189.405,406.09c0,0 529.146,284.971 769.632,332.213c339.231,66.64 871.166,195.542 2149.21,-454.556c423.844,-215.596 1112.41,-901.83 1112.41,-901.83c0,-0 -836.056,648.53 -1480.18,874.615c-644.125,226.085 -1081.78,287.195 -1544.18,198.55c-487.391,-93.436 -1196.29,-455.082 -1196.29,-455.082Z" style="fill-opacity:0.29;"/><path d="M10512.7,12017.6l189.405,406.09c0,0 529.146,284.971 769.632,332.213c339.231,66.64 871.166,195.542 2149.21,-454.556c423.844,-215.596 1112.41,-901.83 1112.41,-901.83c0,-0 -836.056,648.53 -1480.18,874.615c-644.125,226.085 -1081.78,287.195 -1544.18,198.55c-487.391,-93.436 -1196.29,-455.082 -1196.29,-455.082Z" style="fill:#0b636b;"/><path d="M9844.89,10312.1c0,0 -598.261,-39.74 -608.669,211.05c-10.409,250.79 -53.642,-125.395 -0,0c53.642,125.395 1664.04,1303.02 3122.69,1327.42c1458.65,24.41 2202.26,-718.241 3104.98,-1537.1c902.716,-818.856 1841.8,-2538.26 1925.46,-2790.66c83.662,-252.395 177.758,-1146.76 -821.858,-1910.64c-999.616,-763.886 -1211.48,-913.789 -1211.48,-913.789l1021.59,1568.3l-1089.75,2722.84l-3274.02,1470.61l-2168.94,-148.033Z" style="fill:#0b636b;"/><path d="M9147.97,10392.4c36.248,-60.97 97.55,-108.251 176.479,-140.946c200.891,-83.215 528.729,-64.106 528.729,-64.106c0.076,0.005 0.151,0.01 0.227,0.015l2137.74,145.904l3199.43,-1437.1l1046.86,-2615.68l-986.154,-1513.9c-32.742,-50.264 -25.161,-116.701 18.064,-158.296c43.225,-41.596 109.904,-46.62 158.873,-11.971c0,-0 212.537,150.312 1215.18,916.509c1068.97,816.887 954.079,1779.38 864.612,2049.29c-85.23,257.124 -1040.5,2009.72 -1960.13,2843.91c-926.563,840.488 -1693.87,1594.55 -3191.05,1569.5c-1195.69,-20.009 -2492.09,-793.22 -2990.49,-1168.71c-37.498,-28.251 -70.68,-54.429 -99.251,-78.037c-46.124,17.562 -99.642,15.656 -144.459,-42.278c-9.704,-12.545 -28.912,-52.568 -34.603,-102.088c-4.601,-40.033 -2.816,-86.752 2.96,-109.729c8.144,-32.398 24.228,-53.597 37.575,-66.54c6.248,-6.06 12.728,-11.292 19.413,-15.749Zm88.254,130.723c-53.642,-125.395 -10.409,250.79 -0,0Zm-0,0c53.642,125.395 1664.04,1303.02 3122.69,1327.42c1458.65,24.41 2202.26,-718.241 3104.98,-1537.1c902.716,-818.856 1841.8,-2538.26 1925.46,-2790.66c83.662,-252.395 177.758,-1146.76 -821.858,-1910.64c-999.616,-763.886 -1211.48,-913.789 -1211.48,-913.789l1021.59,1568.3l-1089.75,2722.84l-3274.02,1470.61l-2168.94,-148.033c0,0 -598.261,-39.74 -608.669,211.05Zm151.752,-24.709c65.103,55.052 194.883,160.931 340.255,258.244c569.425,381.178 1636.78,952.24 2632.78,968.907c1420.13,23.765 2140.03,-707.468 3018.9,-1504.7c885.803,-803.515 1808.7,-2489.74 1890.79,-2737.4c77.862,-234.898 151.208,-1061.07 -779.105,-1771.99c-269.35,-205.831 -481.329,-366.953 -647.271,-492.494l638.018,979.457c22.215,34.103 26.436,76.886 11.313,114.673l-1089.75,2722.84c-12.038,30.077 -35.282,54.306 -64.833,67.579l-3274.02,1470.61c-18.73,8.413 -39.244,12.083 -59.729,10.685l-2168.72,-148.018c-0.05,-0.003 -0.126,-0.008 -0.226,-0.015c-7.455,-0.497 -197.291,-12.669 -351.69,25.125c-34.226,8.378 -66.587,19.016 -92.971,34.353c-1.246,0.724 -2.497,1.439 -3.745,2.153Z" style="fill-opacity:0.21;"/><path d="M5024.66,5988c0,0 53.875,466.593 -229.375,314.893c-285.345,-152.821 -689.5,-1068.8 -670.503,-1472.3c18.996,-403.498 7.579,-1015.27 1130.42,-1857.79c1122.85,-842.528 1928.51,-1051.63 1928.51,-1051.63l430.891,605.96l-2589.95,3460.87Z" style="fill:#0b636b;"/></g></svg>