<?xml version="1.0" encoding="UTF-8" standalone="no"?><!DOCTYPE svg PUBLIC "-//W3C//DTD SVG 1.1//EN" "http://www.w3.org/Graphics/SVG/1.1/DTD/svg11.dtd"><svg width="100%" height="100%" viewBox="0 0 19500 14400" version="1.1" xmlns="http://www.w3.org/2000/svg" xmlns:xlink="http://www.w3.org/1999/xlink" xml:space="preserve" xmlns:serif="http://www.serif.com/" style="fill-rule:evenodd;clip-rule:evenodd;stroke-linejoin:round;stroke-miterlimit:2;"><path d="M4824.33,4899.43c537.176,1019.92 1035.88,1213.22 1035.88,1213.22c0,0 -66.329,-535.197 448.617,-864.222c514.945,-329.025 5009.72,-3637.94 5009.72,-3637.94c-0,-0 449.508,-373.708 599.716,-391.676c150.207,-17.968 -690.309,-455.832 -690.309,-455.832c0,-0 -1132.7,-314.785 -1958.8,-95.217c-424.799,112.906 -1661.91,107.626 -4029.03,2069.87c-1174.44,973.563 -415.8,2161.8 -415.8,2161.8Z" style="fill:#0b636b;"/><path d="M4733.93,4951.32l-0.002,-0.003c-49.232,-79.926 -766.596,-1293.89 439.724,-2293.88c2390.47,-1981.6 3639.76,-1976.32 4068.75,-2090.34c849.103,-225.681 2013.45,95.526 2013.45,95.526c7.005,1.946 13.787,4.621 20.235,7.98c-0,0 554.124,290.473 696.763,415.602c35.654,31.277 54.042,61.247 60.818,80.784c13.225,38.13 6.672,70.288 -8.594,96.567c-13.767,23.7 -39.889,52.166 -94.433,58.691c-35.57,4.255 -90.383,37.91 -152.519,77.163c-178.726,112.905 -392.976,291.184 -392.976,291.184c-1.575,1.31 -3.189,2.572 -4.838,3.787c-0,-0 -4499.87,3312.44 -5015.39,3641.83c-456.215,291.499 -401.327,763.633 -401.327,763.633c4.507,36.37 -10.429,72.432 -39.332,94.964c-28.903,22.532 -67.52,28.218 -101.691,14.973c0,0 -527.743,-195.204 -1088.63,-1258.46Zm90.4,-51.891c537.176,1019.92 1035.88,1213.22 1035.88,1213.22c0,0 -66.329,-535.197 448.617,-864.222c514.945,-329.025 5009.72,-3637.94 5009.72,-3637.94c-0,-0 449.508,-373.708 599.716,-391.676c150.207,-17.968 -690.309,-455.832 -690.309,-455.832c0,-0 -1132.7,-314.785 -1958.8,-95.217c-424.799,112.906 -1661.91,107.626 -4029.03,2069.87c-1174.44,973.563 -415.8,2161.8 -415.8,2161.8Z" style="fill:#323232;fill-opacity:0.31;"/></svg>