<?xml version="1.0" encoding="UTF-8" standalone="no"?><!DOCTYPE svg PUBLIC "-//W3C//DTD SVG 1.1//EN" "http://www.w3.org/Graphics/SVG/1.1/DTD/svg11.dtd"><svg width="100%" height="100%" viewBox="0 0 19500 14400" version="1.1" xmlns="http://www.w3.org/2000/svg" xmlns:xlink="http://www.w3.org/1999/xlink" xml:space="preserve" xmlns:serif="http://www.serif.com/" style="fill-rule:evenodd;clip-rule:evenodd;stroke-linejoin:round;stroke-miterlimit:2;"><g id="cording"><path d="M3864.6,6101.5l-922.244,-347.314l119.693,-210.926l989.919,384.304l-187.368,173.936Z" style="fill:#ffe53d;"/><path d="M3839.64,6167.78l-922.244,-347.313c-19.38,-7.299 -34.595,-22.712 -41.642,-42.184c-7.047,-19.472 -5.22,-41.053 5,-59.064l119.693,-210.926c17.345,-30.566 54.479,-43.792 87.241,-31.073l989.919,384.305c22.752,8.832 39.354,28.755 43.938,52.726c4.584,23.971 -3.495,48.614 -21.381,65.219l-187.369,173.935c-19.687,18.275 -48.017,23.842 -73.155,14.375Zm24.964,-66.288l187.368,-173.936l-989.919,-384.304l-119.693,210.926l922.244,347.314Z" style="fill:#787878;fill-opacity:0.16;"/><path d="M4124.33,5594.07c0,0 -1132.13,-174.534 -1194.14,-149.116c-62.009,25.419 -156.744,71.482 -36.467,150.814c120.276,79.331 1122.18,216.931 1201.51,222.049c79.332,5.118 29.098,-223.747 29.098,-223.747Z" style="fill:#ffe97d;"/><path d="M4193.51,5578.88c0,0 27,130.105 12.577,206.074c-13.368,70.405 -55.758,107.395 -115.421,103.546c-56.101,-3.62 -568.929,-72.607 -913.234,-141.291c-158.84,-31.686 -283.479,-66.434 -322.719,-92.315c-86.84,-57.278 -95.878,-114.93 -87.146,-154.45c4.964,-22.464 17.086,-43.675 35.881,-62.138c25.139,-24.694 65.829,-44.944 99.866,-58.896c8.088,-3.316 24.229,-7.42 48.034,-7.782c27.176,-0.412 73.919,2.683 133.776,8.577c322.757,31.783 1049.99,143.855 1049.99,143.855c28.919,4.458 52.12,26.24 58.393,54.82Zm-69.186,15.186c0,0 -1132.13,-174.534 -1194.14,-149.116c-62.009,25.419 -156.744,71.482 -36.467,150.814c120.276,79.331 1122.18,216.931 1201.51,222.049c79.332,5.118 29.098,-223.747 29.098,-223.747Z" style="fill:#787878;fill-opacity:0.16;"/><path d="M3154.36,5433.88c0,0 -30.751,-63.608 -127.655,-138.534c-96.904,-74.927 -16.096,-212.33 -151.383,-189.594c-135.287,22.737 -401.874,-9.35 -407.14,118.604c-5.265,127.954 -104.791,405.286 81.85,499.972c186.64,94.686 363.081,108.324 492.799,81.308c88.137,-18.357 111.529,-371.756 111.529,-371.756Z" style="fill:#fee97d;"/><path d="M3225.04,5438.56c-0,-0 -12.654,184.09 -52.12,301.288c-12.742,37.838 -28.82,69.577 -46.412,90.933c-20.514,24.902 -44.532,39.057 -69.234,44.201c-141.891,29.552 -335.13,16.089 -539.288,-87.484c-98.669,-50.057 -139.578,-137.018 -149.398,-236.236c-11.487,-116.052 25.566,-250.698 28.822,-329.818c2.776,-67.464 42.089,-113.469 108.904,-140.5c92.622,-37.471 258.388,-28.426 357.269,-45.045c47.36,-7.959 79.283,-1.01 101.898,10.338c29.59,14.847 48.573,38.648 60.217,70.6c7.044,19.329 10.72,43.264 16.259,68.497c4.013,18.282 8.621,38.932 28.077,53.976c113.571,87.814 148.099,163.741 148.099,163.741c5.337,11.039 7.717,23.274 6.907,35.509Zm-70.679,-4.679c0,0 -30.751,-63.608 -127.655,-138.534c-96.904,-74.927 -16.096,-212.33 -151.383,-189.594c-135.287,22.737 -401.874,-9.35 -407.14,118.604c-5.265,127.954 -104.791,405.286 81.85,499.972c186.64,94.686 363.081,108.324 492.799,81.308c88.137,-18.357 111.529,-371.756 111.529,-371.756Z" style="fill:#787878;fill-opacity:0.16;"/><path d="M3407.13,7805.91c0,-0 -905.652,296.602 -1034.75,294.847c-129.102,-1.755 -405.303,-192.308 -405.303,-192.308l924.386,-235.501l515.671,132.962Z" style="fill:#fee97d;"/><path d="M3429.18,7873.23c0,-0 -445.547,145.904 -757.332,232.849c-142.388,39.707 -258.995,66.073 -300.431,65.51c-46.142,-0.628 -108.581,-19.664 -172.651,-48.575c-130.796,-59.022 -271.913,-156.256 -271.913,-156.256c-22.862,-15.773 -34.396,-43.453 -29.499,-70.793c4.897,-27.34 25.321,-49.295 52.236,-56.152l924.386,-235.501c11.542,-2.941 23.639,-2.923 35.173,0.051l515.671,132.962c30.468,7.856 52.102,34.869 53.111,66.318c1.009,31.449 -18.849,59.794 -48.751,69.587Zm-22.046,-67.315l-515.671,-132.962l-924.386,235.501c0,-0 276.201,190.553 405.303,192.308c129.102,1.755 1034.75,-294.847 1034.75,-294.847Z" style="fill:#787878;fill-opacity:0.16;"/><path d="M3129.64,7397.66c0,-0 -407.251,266.426 -619.931,286.947c-212.679,20.52 -678.656,15.381 -678.656,15.381l-195.968,135.664c-0,-0 67.86,134.369 186.615,173.751c118.756,39.383 1146.95,-19.096 1473.53,-387.368c326.577,-368.272 -165.591,-224.375 -165.591,-224.375Z" style="fill:#fee97d;"/><path d="M3109.76,7329.67c-0,-0 134.048,-38.133 227.1,-28.969c66.169,6.516 114.2,37.388 132.635,84.778c10.398,26.73 13.296,62.074 -3.253,107.764c-15.293,42.225 -50.799,99.985 -118.017,175.786c-171.818,193.754 -526.217,310.65 -855.268,369.292c-329.069,58.645 -631.073,59.033 -693.556,38.312c-143.914,-47.726 -227.547,-209.052 -227.547,-209.052c-15.939,-31.562 -6.162,-70.046 22.91,-90.172l195.968,-135.663c12.065,-8.353 26.426,-12.752 41.099,-12.59c0,0 460.771,5.233 671.072,-15.058c202.179,-19.508 587.956,-275.717 587.956,-275.717c5.837,-3.818 12.206,-6.754 18.901,-8.711Zm19.877,67.987c0,-0 -407.251,266.426 -619.931,286.947c-212.679,20.52 -678.656,15.381 -678.656,15.381l-195.968,135.664c-0,-0 67.86,134.369 186.615,173.751c118.756,39.383 1146.95,-19.096 1473.53,-387.368c326.577,-368.272 -165.591,-224.375 -165.591,-224.375Z" style="fill:#787878;fill-opacity:0.16;"/><path d="M3407.13,6641.54c0,-0 -575.802,508.141 -571.311,562.735c4.491,54.594 -82.632,305.384 57.264,366.802c139.896,61.417 436.588,-644.889 594.831,-544.33c158.244,100.559 -80.784,-385.207 -80.784,-385.207Z" style="fill:#fee97d;"/><path d="M3452.89,7088.39c-2.601,0.91 -7.38,2.672 -10.434,4.35c-14.483,7.954 -29.361,20.583 -45.036,35.916c-49.772,48.688 -103.047,122.251 -156.121,196.703c-82.993,116.424 -166.393,234.088 -233.527,283.788c-52.55,38.903 -102.385,44.698 -143.161,26.797c-81.56,-35.807 -116.126,-112.288 -121.525,-200.452c-3.669,-59.901 6.306,-124.862 14.676,-174.993c3.78,-22.637 8.268,-40.642 7.464,-50.407c-0.889,-10.809 0.205,-25.782 8.141,-43.47c8.022,-17.881 31.667,-50.195 67.97,-89.733c146.635,-159.701 518.926,-488.45 518.926,-488.45c16.549,-14.604 38.959,-20.659 60.61,-16.378c21.652,4.282 40.07,18.411 49.815,38.214c-0,0 77.409,157.57 116.883,277.932c22.016,67.129 29.063,126.283 21.057,155.701c-9.196,33.796 -30.085,53.401 -56.822,62.573c-20.503,7.034 -54.362,9.208 -98.916,-18.091Zm-45.758,-446.841c0,-0 -575.802,508.141 -571.311,562.735c4.491,54.594 -82.632,305.384 57.264,366.802c139.896,61.417 436.588,-644.889 594.831,-544.33c158.244,100.559 -80.784,-385.207 -80.784,-385.207Z" style="fill:#787878;fill-opacity:0.16;"/><path d="M3412.38,7467.31c-0,-0 -154.398,143.784 -89.568,256.998c64.83,113.215 189.076,151.158 293.146,52.978c104.069,-98.18 316.128,-581.78 316.128,-581.78l-212.256,-87.294l-307.45,359.098Z" style="fill:#fee97d;"/><path d="M3360.66,7418.8l0.005,-0.005l305.357,-356.653c19.894,-23.237 52.458,-31.077 80.748,-19.442l212.256,87.294c17.636,7.253 31.603,21.311 38.741,38.994c7.139,17.683 6.846,37.497 -0.812,54.962c-0,-0 -105.472,240.427 -204.953,418.865c-46.456,83.327 -92.92,153.427 -127.439,185.993c-72.285,68.194 -152.492,86.259 -224.971,70.471c-69.917,-15.23 -134.812,-63.916 -178.251,-139.774c-38.002,-66.364 -29.061,-139.959 0.7,-204.306c31.229,-67.519 84.618,-122.61 98.619,-136.399Zm51.718,48.508c-0,-0 -154.398,143.784 -89.568,256.998c64.83,113.215 189.076,151.158 293.146,52.978c104.069,-98.18 316.128,-581.78 316.128,-581.78l-212.256,-87.294l-307.45,359.098Z" style="fill:#787878;fill-opacity:0.16;"/><path d="M1763.81,7636.3c-0,0 -110.188,-171.753 -222.082,-120.572c-111.894,51.182 -228.972,94.703 -292.736,208.573c-63.764,113.871 -75.706,182.296 -5.758,295.657c69.948,113.362 145.015,45.397 192.784,80.807c47.77,35.409 215.619,89.001 312.864,-0c97.245,-89.002 14.928,-464.465 14.928,-464.465Z" style="fill:#fee97d;"/><path d="M1397.66,8160.4c-6.943,0.165 -35.826,0.773 -53.106,-0.055c-51.05,-2.448 -108.272,-16.769 -161.598,-103.192c-44.429,-72.003 -60.542,-130.459 -57.732,-188.272c2.668,-54.881 23.522,-110.531 61.967,-179.188c71.511,-127.706 199.587,-180.98 325.076,-238.38c69.11,-31.612 138.541,-13.175 196.087,26.364c67.218,46.184 115.078,120.374 115.078,120.374c4.533,7.065 7.773,14.88 9.571,23.079c-0,-0 42.385,195.183 32.676,344.651c-5.325,81.978 -29.37,150.991 -68.971,187.235c-64.326,58.873 -151.161,73.661 -230.657,64.799c-72.251,-8.055 -136.836,-35.598 -168.391,-57.415Zm366.153,-524.101c-0,0 -110.188,-171.753 -222.082,-120.572c-111.894,51.182 -228.972,94.703 -292.736,208.573c-63.764,113.871 -75.706,182.296 -5.758,295.657c69.948,113.362 145.015,45.397 192.784,80.807c47.77,35.409 215.619,89.001 312.864,-0c97.245,-89.002 14.928,-464.465 14.928,-464.465Z" style="fill:#787878;fill-opacity:0.16;"/><path d="M1403.45,7636.3c0,0 -110.188,-171.753 -222.082,-120.572c-111.894,51.182 -228.972,94.703 -292.736,208.573c-63.763,113.871 -75.706,182.296 -5.758,295.657c69.949,113.362 145.015,45.397 192.784,80.807c47.77,35.409 215.619,89.001 312.864,-0c97.245,-89.002 14.928,-464.465 14.928,-464.465Z" style="fill:#fee97d;"/><path d="M1037.3,8160.4c-6.942,0.165 -35.826,0.773 -53.106,-0.055c-51.05,-2.448 -108.272,-16.769 -161.598,-103.192c-44.429,-72.003 -60.542,-130.459 -57.731,-188.272c2.668,-54.881 23.521,-110.531 61.967,-179.188c71.511,-127.706 199.586,-180.98 325.075,-238.38c69.11,-31.612 138.541,-13.175 196.088,26.364c67.218,46.184 115.077,120.374 115.077,120.374c4.533,7.065 7.774,14.88 9.571,23.079c0,-0 42.386,195.183 32.676,344.651c-5.325,81.978 -29.369,150.991 -68.971,187.235c-64.325,58.873 -151.16,73.661 -230.656,64.799c-72.252,-8.055 -136.837,-35.598 -168.392,-57.415Zm366.153,-524.101c0,0 -110.188,-171.753 -222.082,-120.572c-111.894,51.182 -228.972,94.703 -292.736,208.573c-63.763,113.871 -75.706,182.296 -5.758,295.657c69.949,113.362 145.015,45.397 192.784,80.807c47.77,35.409 215.619,89.001 312.864,-0c97.245,-89.002 14.928,-464.465 14.928,-464.465Z" style="fill:#787878;fill-opacity:0.16;"/><path d="M992.066,7636.3c-0,0 -110.188,-171.753 -222.082,-120.572c-111.895,51.182 -228.972,94.703 -292.736,208.573c-63.764,113.871 -75.706,182.296 -5.758,295.657c69.948,113.362 145.014,45.397 192.784,80.807c47.769,35.409 215.619,89.001 312.864,-0c97.245,-89.002 14.928,-464.465 14.928,-464.465Z" style="fill:#fee97d;"/><path d="M625.913,8160.4c-6.943,0.165 -35.827,0.773 -53.106,-0.055c-51.05,-2.448 -108.272,-16.769 -161.598,-103.192c-44.429,-72.003 -60.543,-130.459 -57.732,-188.272c2.668,-54.881 23.522,-110.531 61.967,-179.188c71.511,-127.706 199.586,-180.98 325.076,-238.38c69.11,-31.612 138.54,-13.175 196.087,26.364c67.218,46.184 115.078,120.374 115.078,120.374c4.532,7.065 7.773,14.88 9.571,23.079c-0,-0 42.385,195.183 32.676,344.651c-5.326,81.978 -29.37,150.991 -68.971,187.235c-64.326,58.873 -151.161,73.661 -230.657,64.799c-72.251,-8.055 -136.836,-35.598 -168.391,-57.415Zm366.153,-524.101c-0,0 -110.188,-171.753 -222.082,-120.572c-111.895,51.182 -228.972,94.703 -292.736,208.573c-63.764,113.871 -75.706,182.296 -5.758,295.657c69.948,113.362 145.014,45.397 192.784,80.807c47.769,35.409 215.619,89.001 312.864,-0c97.245,-89.002 14.928,-464.465 14.928,-464.465Z" style="fill:#787878;fill-opacity:0.16;"/></g></svg>