<?xml version="1.0" encoding="UTF-8" standalone="no"?><!DOCTYPE svg PUBLIC "-//W3C//DTD SVG 1.1//EN" "http://www.w3.org/Graphics/SVG/1.1/DTD/svg11.dtd"><svg width="100%" height="100%" viewBox="0 0 19500 14400" version="1.1" xmlns="http://www.w3.org/2000/svg" xmlns:xlink="http://www.w3.org/1999/xlink" xml:space="preserve" xmlns:serif="http://www.serif.com/" style="fill-rule:evenodd;clip-rule:evenodd;stroke-linejoin:round;stroke-miterlimit:2;"><g id="hinge"><path d="M5300.31,5676.94c-0,-0 -761.244,354.573 -746.437,1095.76c0.703,35.203 778.608,695.196 2894.16,2564.13c1880.3,1661.11 2426.1,2248.61 2426.1,2248.61c-0,0 191.6,-960.942 904.303,-1014.13c712.703,-53.186 -5247.67,-4990.16 -5478.12,-4894.38Z" style="fill:#0b636b;"/><path d="M5245.94,5546.12c26.498,-11.012 75.628,-20.965 142.83,3.889c80.039,29.602 255.163,139.329 494.334,311.99c1123.08,810.773 3787.23,3040.18 4726.34,4075.51c152.945,168.616 261.729,308.344 316.142,407.448c34.45,62.746 50.169,116.005 53.048,156.024c4.687,65.155 -16.572,114.282 -51.493,150.694c-29.472,30.73 -73.229,56.075 -138.163,60.92c-238.713,17.814 -405.338,160.963 -522.078,321.869c-190.834,263.029 -253.835,578.687 -253.835,578.687c-10.402,52.17 -49.154,94.115 -100.34,108.607c-51.185,14.492 -106.174,-0.913 -142.382,-39.887c0,0 -543.739,-584.766 -2416.1,-2238.87c-1909.26,-1686.69 -2731.77,-2391.74 -2877.74,-2541.55c-59.569,-61.136 -64.001,-112.959 -64.26,-125.924c-16.534,-827.585 828.259,-1227.01 828.259,-1227.01c1.799,-0.838 3.615,-1.638 5.447,-2.399Zm54.369,130.819c-0,-0 -761.244,354.573 -746.437,1095.76c0.703,35.203 778.608,695.196 2894.16,2564.13c1880.3,1661.11 2426.1,2248.61 2426.1,2248.61c-0,0 191.6,-960.942 904.303,-1014.13c712.703,-53.186 -5247.67,-4990.16 -5478.12,-4894.38Z" style="fill-opacity:0.33;"/><path d="M5428.12,5808.54c12.182,-3.402 24.835,3.726 28.237,15.908c3.402,12.182 -3.726,24.834 -15.908,28.236c0,0 -8.649,2.43 -24.034,7.811c-11.939,4.176 -25.022,-2.127 -29.197,-14.066c-4.176,-11.939 2.127,-25.022 14.065,-29.198c17.174,-6.006 26.837,-8.691 26.837,-8.691Zm-127.854,50.722c11.416,-5.446 25.105,-0.6 30.552,10.815c5.446,11.415 0.6,25.105 -10.815,30.551c-14.696,7.012 -30.357,14.881 -46.773,23.669c-11.15,5.969 -25.05,1.762 -31.019,-9.389c-5.969,-11.151 -1.762,-25.05 9.389,-31.019c17.08,-9.143 33.375,-17.331 48.666,-24.627Zm-142.346,80.404c10.561,-6.96 24.786,-4.036 31.745,6.526c6.96,10.561 4.035,24.785 -6.526,31.745c-14.164,9.333 -28.56,19.273 -43.094,29.847c-10.227,7.441 -24.572,5.178 -32.013,-5.049c-7.441,-10.228 -5.179,-24.573 5.049,-32.014c15.122,-11.001 30.101,-21.344 44.839,-31.055Zm-129.934,99.37c9.47,-8.384 23.965,-7.503 32.349,1.967c8.385,9.47 7.503,23.965 -1.966,32.35c-12.829,11.357 -25.624,23.237 -38.323,35.656c-9.042,8.844 -23.563,8.683 -32.407,-0.36c-8.844,-9.042 -8.682,-23.563 0.36,-32.407c13.25,-12.959 26.602,-25.354 39.987,-37.206Zm-114.118,117.494c8.089,-9.724 22.55,-11.05 32.273,-2.961c9.723,8.089 11.05,22.55 2.961,32.273c-10.985,13.204 -21.789,26.883 -32.363,41.05c-7.566,10.136 -21.937,12.222 -32.073,4.657c-10.136,-7.566 -12.222,-21.937 -4.657,-32.073c11.063,-14.822 22.366,-29.132 33.859,-42.946Zm-94.511,133.962c6.44,-10.886 20.506,-14.496 31.392,-8.056c10.886,6.44 14.496,20.506 8.056,31.392c-8.746,14.784 -17.22,30.004 -25.385,45.668c-5.846,11.216 -19.698,15.576 -30.914,9.73c-11.216,-5.846 -15.575,-19.698 -9.729,-30.914c8.549,-16.403 17.422,-32.339 26.58,-47.82Zm-71.89,147.345c4.625,-11.772 17.938,-17.574 29.71,-12.948c11.771,4.625 17.573,17.938 12.948,29.71c-6.283,15.989 -12.244,32.371 -17.856,49.153c-4.011,11.996 -17.006,18.478 -29.001,14.467c-11.995,-4.011 -18.478,-17.006 -14.467,-29.001c5.866,-17.543 12.098,-34.667 18.666,-51.381Zm-48.06,156.555c2.802,-12.334 15.09,-20.072 27.424,-17.27c12.334,2.802 20.072,15.09 17.27,27.424c-3.81,16.77 -7.281,33.889 -10.393,51.36c-2.218,12.452 -14.128,20.762 -26.58,18.544c-12.452,-2.218 -20.761,-14.128 -18.543,-26.58c3.24,-18.192 6.855,-36.016 10.822,-53.478Zm-25.093,161.506c1.108,-12.599 12.237,-21.929 24.836,-20.82c12.6,1.108 21.929,12.237 20.821,24.836c-1.511,17.17 -2.688,34.642 -3.515,52.421c-0.589,12.635 -11.324,22.415 -23.958,21.826c-12.634,-0.588 -22.414,-11.323 -21.826,-23.957c0.857,-18.419 2.077,-36.519 3.642,-54.306Zm-4.479,162.997c-0.377,-12.642 9.581,-23.212 22.224,-23.589c12.642,-0.377 23.212,9.582 23.589,22.224c0.259,8.705 0.599,17.477 1.02,26.316c0.602,12.634 -9.166,23.379 -21.8,23.981c-12.634,0.602 -23.379,-9.166 -23.981,-21.8c-0.435,-9.113 -0.785,-18.156 -1.052,-27.132Z" style="fill-opacity:0.27;"/><path d="M10412.8,10399.4c12.469,-2.12 24.314,6.283 26.433,18.752c2.12,12.469 -6.283,24.313 -18.752,26.433c0,-0 -7.845,1.373 -21.908,5.357c-12.169,3.448 -24.848,-3.633 -28.295,-15.802c-3.448,-12.169 3.633,-24.848 15.802,-28.296c17.138,-4.855 26.72,-6.444 26.72,-6.444Zm-123.66,43.9c11.401,-5.477 25.104,-0.667 30.58,10.734c5.476,11.401 0.666,25.103 -10.735,30.58c-13.481,6.475 -27.861,13.926 -42.974,22.484c-11.006,6.233 -25.001,2.357 -31.233,-8.649c-6.233,-11.006 -2.357,-25.001 8.649,-31.233c16.076,-9.104 31.373,-17.028 45.713,-23.916Zm-131.891,80.019c10.171,-7.518 24.533,-5.365 32.051,4.806c7.519,10.171 5.365,24.532 -4.806,32.051c-12.573,9.295 -25.391,19.305 -38.386,30.084c-9.736,8.074 -24.195,6.726 -32.269,-3.01c-8.075,-9.735 -6.726,-24.194 3.009,-32.269c13.678,-11.344 27.168,-21.879 40.401,-31.662Zm-115.699,101.128c8.846,-9.04 23.367,-9.197 32.407,-0.351c9.04,8.846 9.197,23.367 0.351,32.407c-11.096,11.338 -22.231,23.264 -33.371,35.805c-8.4,9.456 -22.897,10.314 -32.353,1.915c-9.456,-8.4 -10.314,-22.896 -1.915,-32.353c11.644,-13.108 23.284,-25.572 34.881,-37.423Zm-99.156,116.796c7.519,-10.171 21.88,-12.325 32.051,-4.807c10.171,7.518 12.325,21.88 4.807,32.051c-9.506,12.86 -18.964,26.216 -28.351,40.087c-7.089,10.475 -21.348,13.224 -31.823,6.136c-10.475,-7.089 -13.224,-21.348 -6.135,-31.823c9.751,-14.41 19.577,-28.285 29.451,-41.644Zm-83.188,128.166c6.262,-10.99 20.267,-14.828 31.256,-8.566c10.99,6.262 14.828,20.268 8.566,31.257c-7.963,13.974 -15.836,28.373 -23.605,43.211c-5.867,11.205 -19.728,15.538 -30.933,9.671c-11.205,-5.867 -15.538,-19.727 -9.671,-30.932c8.026,-15.329 16.161,-30.205 24.387,-44.641Zm-68.482,136.176c5.118,-11.566 18.664,-16.801 30.23,-11.682c11.566,5.119 16.801,18.664 11.682,30.23c-6.539,14.775 -12.97,29.918 -19.283,45.438c-4.766,11.716 -18.147,17.358 -29.862,12.593c-11.716,-4.766 -17.359,-18.147 -12.593,-29.863c6.49,-15.957 13.103,-31.526 19.826,-46.716Zm-55.336,141.68c4.103,-11.965 17.147,-18.348 29.111,-14.246c11.964,4.102 18.347,17.146 14.245,29.111c-5.26,15.341 -10.406,31.003 -15.43,46.993c-3.791,12.067 -16.665,18.785 -28.732,14.994c-12.066,-3.791 -18.785,-16.665 -14.994,-28.732c5.145,-16.373 10.414,-32.411 15.8,-48.12Zm-43.773,145.378c3.209,-12.234 15.747,-19.561 27.981,-16.353c12.234,3.209 19.561,15.747 16.353,27.981c-4.128,15.738 -8.141,31.757 -12.034,48.064c-2.936,12.302 -15.309,19.906 -27.611,16.969c-12.302,-2.936 -19.906,-15.309 -16.97,-27.611c3.973,-16.641 8.068,-32.99 12.281,-49.05Zm-33.679,147.805c2.428,-12.413 14.476,-20.52 26.889,-18.093c12.413,2.427 20.52,14.476 18.093,26.889c-1.576,8.059 -3.124,16.182 -4.643,24.369c-2.306,12.436 -14.276,20.66 -26.712,18.353c-12.436,-2.307 -20.659,-14.276 -18.352,-26.712c1.546,-8.334 3.121,-16.602 4.725,-24.806Z" style="fill-opacity:0.27;"/></g></svg>