<?xml version="1.0" encoding="UTF-8" standalone="no"?><!DOCTYPE svg PUBLIC "-//W3C//DTD SVG 1.1//EN" "http://www.w3.org/Graphics/SVG/1.1/DTD/svg11.dtd"><svg width="100%" height="100%" viewBox="0 0 2118 1528" version="1.1" xmlns="http://www.w3.org/2000/svg" xmlns:xlink="http://www.w3.org/1999/xlink" xml:space="preserve" xmlns:serif="http://www.serif.com/" style="fill-rule:evenodd;clip-rule:evenodd;stroke-linecap:round;stroke-linejoin:round;stroke-miterlimit:2;"><g id="logo"><path d="M1544.45,939.779l-484.388,235.471l-495.545,-222.592l451.97,-725.654c8.838,-14.192 24.367,-22.821 41.084,-22.837c16.716,-0.017 32.258,8.587 41.121,22.762l445.758,712.85Z" style="fill:#fff;"/><path d="M1633.71,1123.4l-484.387,235.475c-54.408,26.446 -117.738,27.408 -172.921,2.621l-495.546,-222.592c-53.762,-24.15 -94.462,-70.35 -111.641,-126.729c-17.18,-56.375 -9.159,-117.425 22,-167.45l451.97,-725.659c46.08,-73.983 127.042,-118.983 214.2,-119.062c87.159,-0.079 168.205,44.779 214.413,118.683l445.758,712.846c30.709,49.113 39.113,108.95 23.121,164.621c-15.992,55.667 -54.875,101.925 -106.967,127.246Zm-89.262,-183.617l-445.758,-712.85c-8.863,-14.175 -24.405,-22.779 -41.121,-22.762c-16.717,0.016 -32.246,8.645 -41.084,22.837l-451.97,725.654l495.545,222.592l484.388,-235.471Z" style="fill:#eaeaea;"/><path d="M156.25,440.712c0,0 78.742,502.588 120.463,768.863c14.541,92.817 94.5,161.225 188.445,161.225l1027.47,-0l-1336.38,-930.088Z" style="fill:#fff;"/><path d="M156.25,440.712c0,0 78.742,502.588 120.463,768.863c14.541,92.817 94.5,161.225 188.445,161.225l1027.47,-0l-1336.38,-930.088Z" style="fill:none;stroke:#eaeaea;stroke-width:312.5px;"/><path d="M1960.96,440.712c-0,0 -78.738,502.588 -120.459,768.863c-14.541,92.817 -94.5,161.225 -188.446,161.225l-1027.47,-0l1336.38,-930.088Z" style="fill:#fff;"/><path d="M1960.96,440.712c-0,0 -78.738,502.588 -120.459,768.863c-14.541,92.817 -94.5,161.225 -188.446,161.225l-1027.47,-0l1336.38,-930.088Z" style="fill:none;stroke:#eaeaea;stroke-width:312.5px;"/><path d="M1544.45,939.779l-484.388,235.471l-495.545,-222.592l451.97,-725.654c8.838,-14.192 24.367,-22.821 41.084,-22.837c16.716,-0.017 32.258,8.587 41.121,22.762l445.758,712.85Z" style="fill:#fff;"/><path d="M1575.41,1003.48l-484.388,235.471c-18.875,9.175 -40.846,9.509 -59.992,0.909l-495.545,-222.592c-18.65,-8.375 -32.775,-24.404 -38.734,-43.967c-5.958,-19.558 -3.179,-40.737 7.634,-58.096l451.97,-725.654c21.759,-34.933 59.988,-56.183 101.146,-56.221c41.154,-0.037 79.421,21.146 101.242,56.042l445.758,712.846c10.654,17.042 13.571,37.8 8.021,57.116c-5.55,19.313 -19.037,35.359 -37.112,44.146Zm-30.967,-63.704l-445.758,-712.85c-8.863,-14.175 -24.405,-22.779 -41.121,-22.762c-16.717,0.016 -32.246,8.645 -41.084,22.837l-451.97,725.654l495.545,222.592l484.388,-235.471Z"/><path d="M156.25,440.712c0,0 78.742,502.588 120.463,768.863c14.541,92.817 94.5,161.225 188.445,161.225l1027.47,-0l-1336.38,-930.088Z" style="fill:#a5e8e5;"/><path d="M156.25,440.712c0,0 78.742,502.588 120.463,768.863c14.541,92.817 94.5,161.225 188.445,161.225l1027.47,-0l-1336.38,-930.088Z" style="fill:none;stroke:#000;stroke-width:70.83px;"/><path d="M1960.96,440.712c-0,0 -78.738,502.588 -120.459,768.863c-14.541,92.817 -94.5,161.225 -188.446,161.225l-1027.47,-0l1336.38,-930.088Z" style="fill:#d5d5d5;"/><path d="M1960.96,440.712c-0,0 -78.738,502.588 -120.459,768.863c-14.541,92.817 -94.5,161.225 -188.446,161.225l-1027.47,-0l1336.38,-930.088Z" style="fill:none;stroke:#000;stroke-width:70.83px;"/></g></svg>