<?xml version="1.0" encoding="UTF-8" standalone="no"?><!DOCTYPE svg PUBLIC "-//W3C//DTD SVG 1.1//EN" "http://www.w3.org/Graphics/SVG/1.1/DTD/svg11.dtd"><svg width="100%" height="100%" viewBox="0 0 19500 14400" version="1.1" xmlns="http://www.w3.org/2000/svg" xmlns:xlink="http://www.w3.org/1999/xlink" xml:space="preserve" xmlns:serif="http://www.serif.com/" style="fill-rule:evenodd;clip-rule:evenodd;stroke-linecap:round;stroke-miterlimit:1.5;"><g id="overlay"><path d="M6955.49,7136.53l0.003,0c87.472,-7.623 159.353,39.828 213.015,110.459c70.166,92.355 107.348,223.647 115.341,263.686c36.117,180.931 -7.846,1294.51 -14.089,1640.4c-7.094,392.978 -145.104,593.39 -413.896,568.341c-38.248,-3.564 -108.457,0.742 -182.598,-11.265c-87,-14.089 -177.607,-49.472 -240.859,-131.544c-51.919,-67.367 -86.876,-168.145 -79.055,-321.283c68.496,-1341.25 256.966,-1826.55 391.984,-2001.12c95.122,-122.987 177.794,-123.608 210.154,-117.673Zm-4.656,63.473c-0,-0 -422.969,-136.484 -535.063,2058.51c-22.664,443.786 339.131,388.725 445.893,398.674c234.654,21.868 339.413,-164.17 345.606,-507.239c6.193,-343.069 51.111,-1447.58 15.288,-1627.04c-12.023,-60.229 -96.438,-349.577 -271.724,-322.907Z" style="fill:#434343;"/><path d="M6950.83,7200c-0,-0 -422.969,-136.484 -535.063,2058.51c-22.664,443.786 339.131,388.725 445.893,398.674c234.654,21.868 339.413,-164.17 345.606,-507.239c6.193,-343.069 51.111,-1447.58 15.288,-1627.04c-12.023,-60.229 -96.438,-349.577 -271.724,-322.907Z"/><path d="M7229.8,3529.96c13.312,-3.663 28.834,-11.69 43.262,-28.362c5.094,-5.885 10.443,-13.479 14.661,-23.928c2.07,-5.126 5.327,-35.459 5.327,-35.459c0,0 25.253,65.853 76.713,156.865c30.663,54.23 28.451,114.216 -12.787,176.51c-33.878,51.177 -104.224,108.678 -198.047,163.671c-267.321,156.687 -736.824,314.468 -867.856,357.086c-4.195,29.91 -8.645,48.584 -8.645,48.584l-7.119,30.374l-24.169,19.726c0,-0 -1142.41,931.823 -1699.45,1257.08c-368.353,215.084 -582.104,259.555 -701.848,255.467c-124.154,-4.239 -179.871,-53.731 -202.761,-84.811c-25.719,-20.007 -53.806,-52.16 -74.182,-97.25c-49.05,-108.538 -67.629,-310.27 161.642,-541.492c273.201,-275.527 1632.79,-1223.51 2098.05,-1337.42c49.83,-12.2 93.995,-17.956 133.074,-18.769c368.528,-439.681 683.322,-555.631 903.377,-566.873c250.871,-12.816 394.951,108.14 394.951,108.14l-51.124,121.87c-20.196,-52.179 -6.543,-50.615 -6.543,-50.615c-0,-0 -487.398,-394.458 -1198.66,480.596c-42.018,-4.198 -92.566,-0.176 -153.274,14.687c-455.978,111.64 -1787.01,1042.9 -2054.76,1312.93c-267.747,270.025 -144.582,483.801 -84.074,509.647c-0,-0 103.125,215.754 789.908,-185.264c553.276,-323.062 1687.72,-1248.94 1687.72,-1248.94c-0,-0 11.935,-50.925 13.367,-116.643c13.864,8.106 22.37,12.658 22.37,12.658c-0,-0 1178.5,-368.119 1061.05,-575.832c-27.618,-48.843 -46.872,-85.987 -60.169,-114.233Z" style="fill:#5a5a5a;fill-opacity:0.45;"/><path d="M6007.66,3920.95c711.263,-875.054 1198.66,-480.596 1198.66,-480.596c-0,-0 -33.802,-3.871 83.644,203.841c117.445,207.713 -1061.05,575.832 -1061.05,575.832c-0,-0 -8.506,-4.552 -22.37,-12.658c-1.432,65.718 -13.367,116.643 -13.367,116.643c-0,-0 -1134.44,925.877 -1687.72,1248.94c-686.783,401.018 -789.908,185.264 -789.908,185.264c-60.508,-25.846 -183.673,-239.622 84.074,-509.647c267.746,-270.026 1598.78,-1201.29 2054.76,-1312.93c60.708,-14.863 111.256,-18.885 153.274,-14.687Z"/><path d="M6901.29,3535.74c-0,0 -310.795,8.902 -550.115,330.92" style="fill:none;stroke:#9c9c9c;stroke-opacity:0.4;stroke-width:137.5px;"/><path d="M8654.85,2592.04c4.579,0.186 48.898,1.893 89.639,-0.013c89.947,-4.207 222.924,-16.603 387.387,-34.748c1121.34,-123.713 3673.76,-510.007 4154.15,-468.86c73.314,6.279 166.61,-43.411 275.868,-97.126c209.476,-102.987 459.484,-233.422 709.431,-236.054c144.761,-1.525 469.532,61.043 749.188,155.33c196.233,66.161 369.663,150.019 454.047,233.027c134.282,132.093 128.298,305.703 43.623,454.431c-75.655,132.886 -216.484,240.512 -349.758,267.167c-161.055,32.211 -396.922,16.463 -555.851,-16.773c-79.368,-16.597 -141.442,-39.17 -173.981,-59.716c-33.34,-21.053 -68.854,-67.821 -112.862,-125.98c-64.569,-85.33 -171.871,-196.046 -428.915,-171.974c-360.926,33.8 -3376.72,431.616 -4827.38,536.8c-377.116,27.344 -652.554,33.223 -757.665,11.851c-45.695,-9.292 -95.077,-9.536 -120.218,-8.873c6.22,20.24 17.333,53.443 29.229,74.909c29.59,53.392 67.485,102.224 87.496,124.51c1.795,1.999 4.423,4.748 4.423,4.748c0,0 -33.412,-19.862 -39.175,-21.553l-16.468,211.372c0,-0 -680.603,88.809 -1207.08,95.362c-241.101,3.001 -451.594,-13.781 -561.985,-57.512c-120.648,-47.794 -218.49,-76.091 -294.612,-109.224c-101.517,-44.186 -171.205,-98.252 -215.974,-188.496c-34.066,-68.666 -53.3,-162.507 -51.95,-300.946c1.336,-136.923 82.871,-242.887 200.861,-313.649c150.625,-90.333 359.877,-118.514 465.967,-100.12c149.055,25.844 1819.36,77.4 2062.56,142.11Zm-411.821,725.054c-17.459,-5.123 -414.843,-486.57 90.332,-383.854c505.174,102.717 5102.41,-508.12 5553.35,-550.351c450.946,-42.23 523.903,260.028 609.719,314.216c85.816,54.189 438.625,104.283 650.746,61.859c212.12,-42.424 442.366,-350.293 251.409,-538.138c-190.957,-187.844 -896.256,-359.681 -1126.12,-357.26c-389.965,4.107 -776.382,351.575 -995.685,332.791c-597.471,-51.174 -4415.84,565.448 -4648.41,500.748c-232.569,-64.7 -1905.77,-114.631 -2054.59,-140.434c-148.818,-25.803 -537.601,62.894 -539.992,308.085c-3.759,385.324 153.359,361.905 494.106,496.891c340.747,134.986 1715.13,-44.553 1715.13,-44.553Z" style="fill-opacity:0.21;"/><path d="M8243.03,3317.1c0,-0 -1374.38,179.539 -1715.13,44.553c-340.747,-134.986 -497.865,-111.567 -494.106,-496.891c2.391,-245.191 391.174,-333.888 539.992,-308.085c148.817,25.803 1822.02,75.734 2054.59,140.434c232.569,64.7 4050.94,-551.922 4648.41,-500.748c219.303,18.784 605.72,-328.684 995.685,-332.791c229.867,-2.421 935.166,169.416 1126.12,357.26c190.957,187.845 -39.289,495.714 -251.409,538.138c-212.121,42.424 -564.93,-7.67 -650.746,-61.859c-85.816,-54.188 -158.773,-356.446 -609.719,-314.216c-450.946,42.231 -5048.18,653.068 -5553.35,550.351c-505.175,-102.716 -107.791,378.731 -90.332,383.854Z"/><path d="M14520.1,2637.74c0,-0 606.838,229.171 778.706,-73.452c171.868,-302.624 -144.635,-353.068 -334.899,-408.436c-531.106,-154.559 -962.528,221.108 -1843.2,271.832c-434.169,25.006 -4160.99,580.992 -4847.33,460.45c-690.246,-121.23 -1426.85,-256.028 -1717.17,-202.595c-129.111,23.763 -277.25,442.883 183.415,500.874c460.665,57.992 1300.37,80.032 1354.04,48.402" style="fill:none;stroke:#242222;stroke-width:145.83px;"/><path d="M6723.89,7200c0,0 161.373,-290.153 381.031,-320.983c219.657,-30.83 322.331,135.748 490.049,51.824c167.718,-83.923 147.398,-51.824 147.398,-51.824" style="fill:none;stroke:#313131;stroke-width:62.5px;"/><path d="M6903.87,7287.91c-0,-0 572.369,-18.27 760.192,-87.909" style="fill:none;stroke:#393939;stroke-width:62.5px;"/><path d="M16321.9,3673.09c0,-0 -736.93,-453.114 -1790.7,-252.856c-1508.61,286.693 -4576.81,655.506 -6587.55,989.934c-1323.89,220.192 -1958.24,1320.27 -2066.8,1975.87c-202.998,1225.87 347.76,4181.21 574.61,4773.76c226.849,592.55 414.542,1138.05 2251.91,1467.66" style="fill:none;stroke:#000;stroke-opacity:0.17;stroke-width:333.33px;"/><path d="M14349.4,3638.5c0,-0 -25.373,-976.845 -682.644,-1193.16" style="fill:none;stroke:#1c1c1c;stroke-opacity:0.37;stroke-width:58.33px;stroke-dasharray:116.67,116.67,116.67,116.67,116.67,116.67;"/><path d="M8919.01,4302.91c1.959,15.977 -9.423,30.54 -25.401,32.498c-15.978,1.959 -30.54,-9.423 -32.499,-25.401c0,0 -2.603,-21.226 -7.794,-58.348c-2.229,-15.942 8.904,-30.695 24.846,-32.924c15.943,-2.23 30.696,8.903 32.925,24.846c5.279,37.745 7.923,59.329 7.923,59.329Zm-25.498,-177.256c2.507,15.901 -8.368,30.846 -24.27,33.352c-15.901,2.507 -30.845,-8.368 -33.352,-24.27c-5.54,-35.153 -11.99,-74.411 -19.346,-116.658c-2.761,-15.859 7.873,-30.976 23.732,-33.737c15.859,-2.762 30.976,7.872 33.737,23.731c7.414,42.582 13.915,82.15 19.499,117.582Zm-40.927,-234.854c3.03,15.81 -7.347,31.105 -23.157,34.135c-15.81,3.029 -31.105,-7.347 -34.134,-23.157c-7.185,-37.499 -14.955,-76.308 -23.31,-115.846c-3.328,-15.75 6.757,-31.238 22.507,-34.566c15.75,-3.328 31.239,6.757 34.567,22.506c8.432,39.908 16.275,79.079 23.527,116.928Zm-49.456,-233.442c3.675,15.672 -6.065,31.38 -21.738,35.055c-15.672,3.675 -31.38,-6.066 -35.055,-21.738c-8.949,-38.164 -18.419,-76.482 -28.408,-114.463c-4.095,-15.568 5.22,-31.532 20.788,-35.626c15.568,-4.095 31.531,5.22 35.626,20.788c10.123,38.485 19.719,77.312 28.787,115.984Zm-61.129,-231.249c4.625,15.418 -4.138,31.691 -19.557,36.317c-15.418,4.625 -31.692,-4.138 -36.317,-19.557c-11.492,-38.31 -23.547,-75.714 -36.167,-111.649c-5.333,-15.188 2.667,-31.85 17.855,-37.184c15.189,-5.333 31.85,2.667 37.184,17.855c12.91,36.763 25.246,75.026 37.002,114.218Zm-80.572,-226.765c6.355,14.79 -0.492,31.957 -15.282,38.313c-14.79,6.355 -31.957,-0.492 -38.313,-15.282c-16.192,-37.681 -33.152,-72.487 -50.911,-103.471c-8.005,-13.966 -3.165,-31.804 10.801,-39.809c13.966,-8.005 31.804,-3.165 39.809,10.801c18.788,32.779 36.765,69.585 53.896,109.448Zm-127.342,-211.229c11.134,11.626 10.735,30.104 -0.891,41.238c-11.626,11.134 -30.104,10.734 -41.238,-0.892c-12.921,-13.491 -26.159,-24.679 -39.828,-33.097c-13.707,-8.442 -17.982,-26.423 -9.54,-40.13c8.441,-13.706 26.423,-17.981 40.129,-9.54c17.586,10.83 34.747,25.065 51.368,42.421Z" style="fill:#1c1c1c;fill-opacity:0.37;"/><path d="M5876.85,6538.95c-0,-0 731.597,39.138 1818.26,-141.872c1169.19,-194.757 8880.52,-1821.3 8880.52,-1821.3" style="fill:none;stroke:#000;stroke-opacity:0.19;stroke-width:58.33px;stroke-dasharray:116.67,116.67,116.67,116.67,116.67,116.67;"/></g></svg>