<?xml version="1.0" encoding="UTF-8" standalone="no"?><!DOCTYPE svg PUBLIC "-//W3C//DTD SVG 1.1//EN" "http://www.w3.org/Graphics/SVG/1.1/DTD/svg11.dtd"><svg width="100%" height="100%" viewBox="0 0 19500 14400" version="1.1" xmlns="http://www.w3.org/2000/svg" xmlns:xlink="http://www.w3.org/1999/xlink" xml:space="preserve" xmlns:serif="http://www.serif.com/" style="fill-rule:evenodd;clip-rule:evenodd;stroke-linecap:round;stroke-miterlimit:1.5;"><g id="secondary"><g id="blue-camo" serif:id="blue camo"><clipPath id="_clip1"><path d="M5880.5,6737.96c-0,0 -142.588,-1274.61 962.437,-2022.69c458.938,-310.693 4023.22,-757.807 4023.22,-757.807l3459.74,-493.488c0,-0 1205.29,-425.366 1847.76,171.664c277.846,258.194 415.993,962.844 400.845,1116.87c-5.999,61.002 -9715.28,2181.58 -10694,1985.45Z"/></clipPath><g clip-path="url(#_clip1)"><path d="M16478.6,2253.15l-10634.3,1420.33l-168.025,4640.42l10634.3,-1420.32l168.026,-4640.42Z" style="fill:#0f1f36;"/><path d="M14701.3,3194.85l-369.671,419.017l-214.373,850.605l365.632,411.808c0,-0 228.256,-99.497 464.129,-85.305c235.872,14.193 398.098,83.919 459.934,149.916c61.835,65.998 128.414,129.851 234.42,238.502c106.005,108.65 232.362,174.598 163.672,280.877c-68.691,106.279 -102.959,247.944 -187.054,364.848c-84.095,116.905 -146.523,50.217 -208.008,35.362c-61.485,-14.856 -150.048,-216.213 -231.574,-222.625c-81.526,-6.412 -908.14,-128.396 -908.14,-128.396l-406.518,335.454l232.717,392.761l1062.59,342.532l914.391,-189.6l502.148,-895.778l-158.112,-1848.83l-374.921,-30.772c0,-0 -377.588,-52.038 -337.862,-184.747c39.727,-132.71 86.848,-277.301 198.671,-280.812c111.822,-3.511 279.236,-77.801 279.236,-77.801c0,0 -109.375,-107.074 -230.772,-102.394c-121.397,4.68 -438.904,218.447 -521.968,332.358c-83.063,113.91 -255.008,-38.879 -380.095,-7.92c-125.087,30.959 -227.178,-30.376 -227.178,-30.376l-121.291,-68.684Z" style="fill:#d8cbc2;"/><path d="M6150.58,4495.71c-0,0 238.214,8.111 339.125,74.601c100.91,66.491 170.762,65.345 310.96,49.366c140.198,-15.978 189.702,-174.466 174.26,-441.343c-15.441,-266.877 475.8,-50.972 624.335,-537.428c148.534,-486.456 -527.973,-458.357 -527.973,-458.357l-907.138,493.513l-13.569,819.648Z" style="fill:#0d0d10;"/><path d="M7972.42,5275.85c-0,0 -181.686,-95.659 -413.378,-59.304c-231.692,36.355 -219.087,77.512 -296.457,267.774c-77.37,190.263 -33.676,383.537 -228.949,405.629c-195.274,22.093 -414.465,-5.67 -505.749,-54.031c-91.283,-48.361 -284.051,-217.098 -440.844,-30.508c-156.794,186.59 -113.457,381.602 -19.984,551.902c93.474,170.301 109.289,119.114 273.923,45.223c164.634,-73.891 206.362,-145.152 225.326,-53.437c18.964,91.716 -126.704,14.067 -54.457,172.922c72.247,158.855 290.179,43.409 457.829,-36.652c167.65,-80.061 548.732,-151.28 649.123,-70.44c100.391,80.84 326.591,207.929 133.543,244.917c-193.047,36.988 -411.735,97.667 -578.247,102.551c-166.512,4.883 -231.974,5.059 -401.301,136.202c-169.327,131.144 -293.253,210.858 -449.799,174.097c-156.546,-36.761 -145.684,-103.9 -283.089,34.404c-137.405,138.305 -187.365,525.184 -187.365,525.184l162.22,169.247c0,0 462.1,-164.974 651.175,-296.916c189.075,-131.941 394.267,-282.622 757.872,-366.501c363.604,-83.879 569.358,-312.352 786.664,-221.423c217.306,90.929 320.116,118.335 626.997,35.634c306.882,-82.702 645.545,-303.826 793.134,-369.674c147.588,-65.847 386.631,-176.287 648.096,-84.363c261.465,91.924 522.241,151.727 732.688,200.732c210.447,49.005 510.16,177.617 678.315,160.733c168.155,-16.884 342.078,115.402 537.919,-49.162c195.841,-164.563 -97.634,-154.036 -261.682,-215.719c-164.047,-61.683 -569.709,-185.894 -754.086,-250.436c-184.377,-64.543 -97.489,-254.429 -419.931,-177.256c-322.442,77.174 -355.064,64.23 -355.064,64.23c-0,-0 86.375,-230.269 260.137,-247.792c173.763,-17.523 316.894,-114.494 471.851,-152.491c154.957,-37.997 457.116,-208.275 687.459,-400.267c230.343,-191.992 211.755,-487.633 25.753,-536.223c-186.002,-48.59 -379.078,252.418 -576.498,333.05c-197.42,80.632 -457.388,261.01 -603.969,340.564c-146.581,79.553 -266.785,129.88 -359.101,187.906c-92.317,58.026 -298.315,82.656 -218.043,-52.055c80.272,-134.71 269.479,-243.602 170.536,-314.007c-98.943,-70.406 -98.95,-148.067 -224.222,-114.227c-125.272,33.84 -247.165,284.313 -400.844,401.943c-153.679,117.63 -232.115,259.483 -232.115,259.483c-0,-0 -325.678,129.453 -380.973,21.499c-55.295,-107.954 -199.657,-160.128 -366.566,-66.435c-166.908,93.693 -298.99,159.886 -298.99,159.886c0,-0 -324.739,-80.37 -404.481,-136.04c-79.742,-55.669 -298.819,-254.176 3.412,-349.328c302.231,-95.152 407.633,-146.743 454.646,-294.285c47.013,-147.541 -195.615,-197.603 -472.434,3.26Z" style="fill:#0d0d10;"/><path d="M13308.8,2782.95c-0,-0 46.706,98.063 230.37,249.026c183.664,150.964 138.923,-42.693 181.101,24.502c42.178,67.195 -68.931,184.851 -87.482,301.569c-18.55,116.718 42.369,135.714 21.472,205.621c-20.896,69.908 -353.891,151.538 -455.714,319.363c-101.824,167.824 -104.147,797.405 -108.569,975.507c-4.422,178.103 54.944,620.765 54.944,620.765l-371.989,248.327c0,0 -27.743,50.816 -43.652,177.177c-15.91,126.362 67.853,126.598 136.236,243.13c68.382,116.531 199.773,363.438 463.287,419.526c263.515,56.087 370.531,126.362 535.723,200.566c165.193,74.203 535.258,-36.476 627.595,35.444c92.337,71.919 189.316,8.987 284.147,89.141c94.831,80.155 -2.562,203.476 662.389,111.548c664.95,-91.928 410.47,223.13 671.214,-210.809c260.745,-433.939 231.054,-691.766 105.325,-825.861c-125.728,-134.096 -171.036,-67.025 -308.448,7.693c-137.411,74.718 -422.919,328.315 -567.088,357.566c-144.169,29.252 -496.808,-115.552 -679.318,-200.528c-182.51,-84.976 -332.725,-130.835 -527.418,-124.055c-194.692,6.78 -197.389,-306.555 -75.947,-351.039c121.441,-44.485 255.244,-107.42 325.861,-91.148c70.617,16.273 110.433,100.823 294.298,101.311c113.806,0.302 44.867,69.335 293.439,70.559c248.572,1.223 183.829,35.561 284.696,26.14c100.867,-9.422 267.088,-134.192 68.507,-332.552c-198.582,-198.361 -458.233,-234.725 -501.277,-252.044c-43.044,-17.319 -283.337,-94.069 -146.355,-198.086c136.982,-104.017 174,-232.827 144.831,-283.704c-29.17,-50.876 -169.374,-147.448 -245.099,-193.548c-75.726,-46.1 -196.775,-92.902 -59.548,-313.074c137.228,-220.171 72.084,-250.398 -2.83,-282.202c-74.915,-31.805 6.101,-161.081 31.651,-216.397c25.55,-55.315 229.162,-140.096 156.036,-307.663c-73.127,-167.567 -254.451,-126.968 -315.072,-48.899c-60.621,78.069 -233.797,46.971 -363.784,-13.861c-189.57,-88.715 -117.088,-116.905 19.967,-145.44c137.054,-28.534 119.308,-210.999 43.306,-253.168c-76.002,-42.168 -555.939,-231.028 -555.939,-231.028l-220.866,90.625Z" style="fill:#638294;"/><path d="M7156.26,3895.21c0,0 -138.455,25.323 -162.599,199.909c-24.143,174.585 608.686,-104.708 754.774,100.382c146.088,205.091 -28.659,497.657 192.313,468.076c220.972,-29.582 261.672,194.115 404.461,106.562c142.79,-87.554 237.098,-89.337 276.598,-119.843c39.499,-30.506 -370.3,-149.056 -181.914,-242.699c188.387,-93.644 132.181,-116.909 536.092,-152.949c250.715,-22.371 150.516,-195.982 483.777,-262.551c296.655,-59.257 551.843,116.57 624.847,114.482c294.277,-8.417 665.501,-86.009 904.117,-32.85c238.617,53.158 639.705,-19.635 671.038,104.049c31.332,123.683 228.062,144.127 -528.648,609.027c-756.711,464.899 139.811,94.949 343.695,149.828c203.885,54.88 572.478,126.415 51.893,690.39c-162.891,176.468 417.713,-72.164 744.158,69.155c326.446,141.32 671.116,72.218 870.261,67.04c199.146,-5.178 272.146,3.093 268.931,-104.607c-3.216,-107.701 144.359,-134.62 160.124,-284.504c15.764,-149.883 343.736,-333.433 482.423,-313.235c138.687,20.198 -2.12,-198.958 -114.466,-131.117c-112.346,67.841 -160.391,98.534 -254.474,166.792c-94.084,68.259 -114.877,19.271 -213.944,32.365c-99.067,13.094 -84.314,111.743 -192.281,56.96c-107.966,-54.784 -74.943,-185.971 -46.658,-244.535c28.286,-58.564 -143.425,-178.156 35.859,-232.488c179.284,-54.331 127.846,-34.485 121.261,-86.95c-6.585,-52.465 -168.445,15.784 -156.445,-249.781c3.176,-70.287 -231.536,-371.635 12.352,-445.293c169.41,-51.165 138.514,-54.392 259.855,-95.342c121.34,-40.949 163.737,106.24 233.784,138.228c70.048,31.988 20.451,-240.385 -88.726,-309.19c-109.177,-68.806 -262.004,-138.235 -367.498,-115.577c-105.495,22.658 -104.69,-83.355 -333.349,42.833c-228.658,126.189 -669.543,-18.499 -807.986,-44.689c-138.443,-26.189 -928.297,64.187 -1026.76,138.741c-98.46,74.555 -1110.85,85.726 -1183.18,59.344c-72.331,-26.383 -550.004,-80.16 -651.612,-37.652c-101.609,42.507 -339.412,156.516 -513.83,148.766c-174.418,-7.75 -541.537,-143.075 -560.248,-210.284c-18.71,-67.208 -300.851,-77.522 -387.289,51.727c-86.438,129.249 -604.875,253.992 -660.708,201.48Z" style="fill:#d8cbc2;"/><path d="M11679.7,3000.53c0,0 848.833,318.651 1072.58,392.229c223.747,73.578 -157.689,-376.889 -326.068,-491.934c-168.378,-115.044 -746.513,99.705 -746.513,99.705Z" style="fill:#638294;"/></g></g><path d="M5876.85,6538.95c-0,-0 731.597,39.138 1818.26,-141.872c1169.19,-194.757 8880.52,-1821.3 8880.52,-1821.3" style="fill:none;stroke:#000;stroke-opacity:0.19;stroke-width:58.33px;stroke-dasharray:116.67,116.67,116.67,116.67,116.67,116.67;"/></g></svg>