<?xml version="1.0" encoding="UTF-8" standalone="no"?><!DOCTYPE svg PUBLIC "-//W3C//DTD SVG 1.1//EN" "http://www.w3.org/Graphics/SVG/1.1/DTD/svg11.dtd"><svg width="100%" height="100%" viewBox="0 0 19500 14400" version="1.1" xmlns="http://www.w3.org/2000/svg" xmlns:xlink="http://www.w3.org/1999/xlink" xml:space="preserve" xmlns:serif="http://www.serif.com/" style="fill-rule:evenodd;clip-rule:evenodd;stroke-linecap:round;stroke-miterlimit:1.5;"><g id="underlay"><path d="M5939.53,7287.91c-0,-0 173.05,58.314 445.871,131.594c272.821,73.279 1445.45,-140.912 1656.58,-175.549c211.131,-34.636 4191.68,-843.402 4191.68,-843.402l4332.15,-1013.27" style="fill:none;stroke:#727272;stroke-width:62.5px;"/><path d="M7582.27,2980.83l1523,735.521l-32.163,144.914c-0,-0 -1544.88,6940.42 -2113.89,8043.79c-78.918,153.032 -171.403,222.303 -227.25,238.655c-83.287,24.388 -160.44,8.041 -227.057,-64.72c-366.143,-399.912 -1492.26,-1037.7 -1749.53,-3856.45c-326.82,-3580.83 2072.95,-4868.26 2076.09,-4869.97l750.793,-371.739Zm-664.395,538.185c0,-0 -2289.9,1244.58 -1975.76,4686.48c249.988,2739.02 1345.31,3358.28 1701.09,3746.88c355.786,388.6 2246.85,-8131.74 2246.85,-8131.74l-1306.76,-631.092l-665.421,329.469Z" style="fill-opacity:0.32;"/><path d="M6917.88,3519.02c0,-0 -2289.9,1244.58 -1975.76,4686.48c249.988,2739.02 1345.31,3358.28 1701.09,3746.88c355.786,388.6 2246.85,-8131.74 2246.85,-8131.74l-1306.76,-631.092l-665.421,329.469Z"/><path d="M5909.56,7603.33l86.719,886.407c0,0 378.115,311.489 1711.82,101.921c1335.79,-209.894 2918.13,-563.826 4444.2,-919.929c1526.07,-356.103 3087.77,-812.704 3087.77,-812.704c0,-0 1056.7,-258.711 1461.53,-656.05c113.707,-111.604 113.358,-909.898 0,-704.766c-38.3,69.308 -1069.63,458.996 -2605.86,856.426c-3010.54,778.84 -7593.92,1847.05 -8186.18,1248.69Z" style="fill:#151515;"/><path d="M5909.56,6834.55l16.999,916.805c-0,0 1166.77,226.94 4395.74,-474.451c1141.41,-247.934 6116.48,-1432.51 6298.43,-1758.41c181.952,-325.895 -0,-990.719 -0,-990.719l-10711.2,2306.77Z"/><path d="M12249.5,9326.31c2807.47,-426.127 4318.66,76.85 3372.57,1122.5c-946.093,1045.65 -3993.51,2240.55 -6800.97,2666.68c-2807.47,426.128 -4318.66,-76.849 -3372.57,-1122.5c946.092,-1045.65 3993.51,-2240.55 6800.97,-2666.68Z" style="fill-opacity:0.14;"/><path d="M5997.74,7883.57c-15.01,-5.818 -22.471,-22.728 -16.652,-37.737c5.819,-15.009 22.728,-22.471 37.737,-16.652c0,0 18.88,7.301 54.535,18.577c15.348,4.855 23.868,21.256 19.013,36.605c-4.854,15.348 -21.255,23.868 -36.604,19.013c-37.947,-12.001 -58.029,-19.806 -58.029,-19.806Zm174.014,52.721c-15.597,-3.984 -25.024,-19.882 -21.039,-35.478c3.984,-15.597 19.882,-25.024 35.478,-21.04c33.669,8.602 71.988,17.626 114.606,26.511c15.759,3.285 25.886,18.746 22.601,34.505c-3.285,15.758 -18.747,25.885 -34.505,22.6c-43.561,-9.08 -82.728,-18.306 -117.141,-27.098Zm235.204,49.2c-15.879,-2.645 -26.623,-17.684 -23.978,-33.563c2.645,-15.878 17.684,-26.622 33.563,-23.977c36.708,6.115 75.611,11.894 116.566,17.11c15.968,2.034 27.282,16.649 25.248,32.618c-2.034,15.969 -16.649,27.282 -32.618,25.248c-41.733,-5.315 -81.375,-11.204 -118.781,-17.436Zm238.105,30.37c-16.033,-1.437 -27.883,-15.621 -26.446,-31.654c1.437,-16.033 15.621,-27.883 31.654,-26.446c37.836,3.392 77.055,6.227 117.57,8.367c16.075,0.849 28.437,14.59 27.588,30.665c-0.849,16.075 -14.589,28.437 -30.664,27.588c-41.251,-2.179 -81.181,-5.066 -119.702,-8.52Zm239.622,12.671c-16.095,-0.266 -28.947,-13.548 -28.682,-29.644c0.265,-16.095 13.548,-28.947 29.643,-28.682c38.344,0.632 77.658,0.602 117.882,-0.189c16.094,-0.316 29.418,12.494 29.734,28.588c0.316,16.095 -12.493,29.418 -28.588,29.735c-40.942,0.804 -80.96,0.835 -119.989,0.192Zm239.89,-4.714c-16.072,0.897 -29.849,-11.424 -30.746,-27.497c-0.896,-16.072 11.425,-29.849 27.498,-30.745c38.487,-2.147 77.691,-5.016 117.564,-8.685c16.03,-1.475 30.241,10.341 31.716,26.371c1.475,16.03 -10.341,30.242 -26.371,31.717c-40.583,3.734 -80.487,6.654 -119.661,8.839Zm238.928,-21.985c-15.966,2.051 -30.594,-9.246 -32.646,-25.212c-2.052,-15.966 9.245,-30.594 25.211,-32.646c1.652,-0.212 3.305,-0.426 4.958,-0.641c27.886,-3.627 65.649,-8.783 112.509,-15.426c15.939,-2.26 30.713,8.845 32.972,24.784c2.26,15.938 -8.845,30.712 -24.783,32.971c-47.137,6.683 -85.124,11.869 -113.175,15.517c-1.683,0.219 -3.365,0.437 -5.046,0.653Zm236.091,-33.228c-15.926,2.345 -30.759,-8.681 -33.104,-24.607c-2.346,-15.925 8.68,-30.759 24.606,-33.104c36.126,-5.32 75.36,-11.171 117.53,-17.544c15.917,-2.405 30.792,8.564 33.198,24.481c2.405,15.917 -8.564,30.792 -24.481,33.198c-42.248,6.385 -81.555,12.246 -117.749,17.576Zm235.416,-35.552c-15.909,2.455 -30.818,-8.468 -33.274,-24.377c-2.455,-15.909 8.468,-30.819 24.378,-33.274c37.424,-5.775 76.601,-11.874 117.443,-18.291c15.903,-2.499 30.842,8.383 33.341,24.285c2.499,15.903 -8.383,30.842 -24.286,33.341c-40.898,6.426 -80.127,12.533 -117.602,18.316Zm235.15,-36.94c-15.896,2.539 -30.862,-8.306 -33.401,-24.202c-2.539,-15.896 8.305,-30.862 24.202,-33.401c37.95,-6.061 77.089,-12.358 117.361,-18.888c15.89,-2.576 30.882,8.233 33.459,24.123c2.576,15.89 -8.233,30.883 -24.123,33.459c-40.319,6.537 -79.503,12.841 -117.498,18.909Zm234.951,-38.089c-15.884,2.612 -30.901,-8.163 -33.513,-24.047c-2.612,-15.885 8.163,-30.901 24.047,-33.514c38.227,-6.286 77.334,-12.76 117.28,-19.419c15.878,-2.647 30.918,8.096 33.565,23.974c2.647,15.878 -8.095,30.919 -23.974,33.566c-39.988,6.666 -79.137,13.146 -117.405,19.44Zm234.773,-39.134c-15.873,2.68 -30.936,-8.03 -33.616,-23.903c-2.681,-15.872 8.029,-30.936 23.902,-33.616c38.393,-6.484 77.47,-13.125 117.199,-19.921c15.867,-2.714 30.952,7.965 33.666,23.832c2.714,15.867 -7.964,30.953 -23.831,33.667c-39.77,6.802 -78.887,13.45 -117.32,19.941Zm234.6,-40.127c-15.862,2.747 -30.969,-7.901 -33.716,-23.762c-2.747,-15.861 7.9,-30.969 23.762,-33.716c38.5,-6.667 77.548,-13.47 117.118,-20.407c15.856,-2.779 30.985,7.837 33.765,23.693c2.779,15.855 -7.837,30.985 -23.693,33.764c-39.61,6.944 -78.697,13.754 -117.236,20.428Zm234.429,-41.096c-15.85,2.812 -31.001,-7.773 -33.813,-23.623c-2.812,-15.85 7.773,-31.001 23.623,-33.813c38.57,-6.843 77.588,-13.806 117.031,-20.887c15.844,-2.845 31.017,7.709 33.862,23.553c2.844,15.844 -7.71,31.017 -23.554,33.862c-39.483,7.088 -78.54,14.058 -117.149,20.908Zm234.254,-42.057c-15.838,2.877 -31.033,-7.646 -33.91,-23.484c-2.877,-15.838 7.646,-31.033 23.484,-33.91c38.618,-7.015 77.607,-14.139 116.945,-21.369c15.833,-2.91 31.049,7.581 33.959,23.413c2.91,15.832 -7.581,31.049 -23.413,33.959c-39.379,7.238 -78.407,14.368 -117.065,21.391Zm234.09,-43.027c-15.827,2.943 -31.065,-7.516 -34.008,-23.342c-2.943,-15.826 7.517,-31.065 23.343,-34.008c38.649,-7.187 77.606,-14.473 116.853,-21.857c15.82,-2.976 31.08,7.451 34.056,23.271c2.976,15.82 -7.451,31.08 -23.271,34.057c-39.287,7.391 -78.284,14.685 -116.973,21.879Zm233.899,-44.006c-15.813,3.01 -31.096,-7.385 -34.106,-23.199c-3.01,-15.813 7.385,-31.096 23.199,-34.106c38.668,-7.36 77.594,-14.812 116.759,-22.355c15.807,-3.044 31.112,7.317 34.156,23.124c3.044,15.808 -7.318,31.112 -23.125,34.157c-39.206,7.55 -78.173,15.01 -116.883,22.379Zm233.716,-45.012c-15.801,3.079 -31.128,-7.25 -34.207,-23.05c-3.079,-15.8 7.249,-31.128 23.05,-34.207c38.678,-7.537 77.569,-15.159 116.657,-22.866c15.793,-3.114 31.143,7.18 34.258,22.973c3.114,15.794 -7.18,31.144 -22.974,34.258c-39.13,7.716 -78.064,15.347 -116.784,22.892Zm233.518,-46.046c-15.786,3.15 -31.16,-7.109 -34.31,-22.896c-3.149,-15.786 7.11,-31.16 22.896,-34.31c38.681,-7.718 77.536,-15.516 116.55,-23.394c15.779,-3.187 31.176,7.037 34.363,22.816c3.186,15.779 -7.038,31.176 -22.817,34.363c-39.058,7.887 -77.957,15.694 -116.682,23.421Zm233.312,-47.115c-15.771,3.223 -31.193,-6.964 -34.416,-22.736c-3.224,-15.771 6.963,-31.193 22.735,-34.416c38.676,-7.905 77.493,-15.887 116.435,-23.944c15.764,-3.261 31.21,6.889 34.472,22.652c3.261,15.764 -6.889,31.21 -22.653,34.472c-38.989,8.066 -77.851,16.057 -116.573,23.972Zm233.086,-48.228c-15.756,3.3 -31.226,-6.812 -34.527,-22.567c-3.3,-15.756 6.812,-31.227 22.568,-34.527c38.666,-8.099 77.441,-16.272 116.312,-24.516c15.748,-3.341 31.244,6.733 34.584,22.48c3.34,15.747 -6.733,31.243 -22.48,34.583c-38.92,8.255 -77.743,16.438 -116.457,24.547Zm232.852,-49.391c-15.739,3.381 -31.261,-6.652 -34.642,-22.391c-3.38,-15.738 6.653,-31.261 22.391,-34.641c38.651,-8.303 77.382,-16.675 116.181,-25.117c15.73,-3.423 31.279,6.569 34.701,22.299c3.423,15.729 -6.569,31.278 -22.299,34.701c-38.849,8.453 -77.631,16.836 -116.332,25.149Zm232.598,-50.612c-15.721,3.465 -31.297,-6.484 -34.762,-22.204c-3.465,-15.72 6.484,-31.296 22.204,-34.762c38.63,-8.515 77.314,-17.098 116.038,-25.749c15.711,-3.509 31.315,6.397 34.824,22.107c3.509,15.71 -6.396,31.314 -22.107,34.824c-38.778,8.662 -77.514,17.257 -116.197,25.784Zm232.329,-51.901c-15.7,3.555 -31.333,-6.306 -34.888,-22.006c-3.554,-15.7 6.306,-31.333 22.006,-34.887c38.604,-8.741 77.236,-17.547 115.883,-26.418c15.689,-3.601 31.351,6.213 34.952,21.902c3.602,15.69 -6.212,31.351 -21.902,34.953c-38.703,8.884 -77.391,17.703 -116.051,26.456Zm232.009,-53.248c-15.68,3.642 -31.368,-6.131 -35.01,-21.811c-3.642,-15.68 6.131,-31.367 21.812,-35.01c38.58,-8.961 77.178,-17.966 115.782,-27.011c15.673,-3.672 31.379,6.071 35.051,21.744c3.672,15.673 -6.071,31.379 -21.744,35.051c-38.64,9.054 -77.274,18.067 -115.891,27.037Zm231.724,-54.292c-15.666,3.702 -31.39,-6.012 -35.091,-21.678c-3.702,-15.666 6.012,-31.39 21.679,-35.092c38.569,-9.112 77.134,-18.261 115.684,-27.443c15.66,-3.729 31.401,5.957 35.131,21.616c3.729,15.66 -5.956,31.401 -21.616,35.131c-38.584,9.189 -77.183,18.346 -115.787,27.466Zm231.509,-55.134c-15.653,3.757 -31.411,-5.902 -35.168,-21.555c-3.756,-15.653 5.902,-31.411 21.555,-35.168c38.559,-9.254 77.093,-18.537 115.592,-27.846c15.646,-3.783 31.421,5.849 35.204,21.496c3.783,15.646 -5.849,31.421 -21.495,35.204c-38.531,9.316 -77.097,18.607 -115.688,27.869Zm231.321,-55.928c-15.641,3.809 -31.431,-5.797 -35.24,-21.437c-3.808,-15.641 5.798,-31.431 21.438,-35.24c38.551,-9.387 77.055,-18.797 115.503,-28.224c15.634,-3.833 31.439,5.747 35.273,21.382c3.833,15.634 -5.747,31.44 -21.382,35.273c-38.477,9.435 -77.012,18.851 -115.592,28.246Zm231.121,-56.668c-15.629,3.858 -31.449,-5.699 -35.307,-21.327c-3.857,-15.629 5.699,-31.449 21.328,-35.306c38.542,-9.514 77.016,-19.042 115.412,-28.58c15.622,-3.881 31.457,5.652 35.338,21.275c3.881,15.622 -5.652,31.457 -21.274,35.338c-38.424,9.545 -76.927,19.08 -115.497,28.6Zm230.956,-57.373c-15.617,3.904 -31.465,-5.606 -35.369,-21.223c-3.904,-15.617 5.606,-31.465 21.223,-35.369c38.537,-9.633 76.984,-19.274 115.329,-28.917c15.612,-3.926 31.474,5.561 35.4,21.172c3.926,15.612 -5.561,31.474 -21.172,35.4c-38.372,9.65 -76.846,19.297 -115.411,28.937Zm230.778,-58.036c-15.606,3.948 -31.481,-5.517 -35.429,-21.123c-3.947,-15.606 5.517,-31.481 21.123,-35.429c38.537,-9.748 76.958,-19.496 115.252,-29.238c15.6,-3.969 31.488,5.475 35.457,21.075c3.969,15.601 -5.474,31.489 -21.075,35.458c-38.32,9.748 -76.766,19.502 -115.328,29.257Zm230.617,-58.669c-15.595,3.989 -31.496,-5.433 -35.485,-21.029c-3.99,-15.595 5.432,-31.495 21.028,-35.485c38.536,-9.858 76.93,-19.707 115.17,-29.542c15.59,-4.01 31.503,5.392 35.513,20.982c4.01,15.59 -5.392,31.502 -20.982,35.512c-38.265,9.842 -76.684,19.697 -115.244,29.562Zm230.458,-59.273c-15.585,4.029 -31.51,-5.352 -35.539,-20.937c-4.03,-15.585 5.352,-31.51 20.937,-35.539c38.542,-9.966 76.913,-19.912 115.1,-29.837c15.58,-4.049 31.517,5.313 35.565,20.893c4.049,15.58 -5.312,31.516 -20.892,35.565c-38.211,9.931 -76.606,19.884 -115.171,29.855Zm230.302,-59.851c-15.575,4.068 -31.522,-5.274 -35.59,-20.849c-4.068,-15.575 5.274,-31.523 20.849,-35.591c38.55,-10.068 76.896,-20.109 115.025,-30.116c15.57,-4.087 31.529,5.236 35.616,20.806c4.087,15.57 -5.237,31.529 -20.807,35.616c-38.151,10.013 -76.52,20.06 -115.093,30.134Zm230.159,-60.408c-15.565,4.105 -31.535,-5.199 -35.64,-20.765c-4.105,-15.565 5.2,-31.535 20.765,-35.64c38.566,-10.171 76.891,-20.302 114.961,-30.389c15.56,-4.123 31.541,5.162 35.664,20.723c4.123,15.561 -5.163,31.541 -20.724,35.664c-38.091,10.093 -76.438,20.23 -115.026,30.407Zm230.019,-60.947c-15.555,4.141 -31.547,-5.126 -35.687,-20.682c-4.141,-15.556 5.126,-31.547 20.682,-35.688c38.587,-10.271 76.888,-20.491 114.89,-30.652c15.551,-4.158 31.553,5.091 35.711,20.642c4.158,15.551 -5.091,31.553 -20.642,35.711c-38.023,10.167 -76.346,20.392 -114.954,30.669Zm229.877,-61.468c-15.546,4.176 -31.558,-5.056 -35.734,-20.602c-4.176,-15.547 5.056,-31.559 20.603,-35.734c38.617,-10.372 76.897,-20.677 114.823,-30.908c15.542,-4.193 31.564,5.021 35.757,20.563c4.193,15.542 -5.021,31.564 -20.563,35.756c-37.947,10.237 -76.248,20.548 -114.886,30.925Zm229.726,-61.972c-15.537,4.209 -31.57,-4.987 -35.779,-20.525c-4.21,-15.537 4.987,-31.569 20.524,-35.779c38.658,-10.474 76.916,-20.862 114.753,-31.157c15.532,-4.227 31.574,4.953 35.801,20.485c4.226,15.533 -4.953,31.575 -20.486,35.802c-37.857,10.3 -76.134,20.694 -114.813,31.174Zm229.602,-62.475c-15.528,4.243 -31.58,-4.919 -35.823,-20.447c-4.243,-15.528 4.919,-31.58 20.447,-35.823c38.72,-10.581 76.958,-21.052 114.692,-31.406c15.524,-4.26 31.585,4.885 35.845,20.409c4.26,15.524 -4.885,31.585 -20.409,35.845c-37.753,10.36 -76.011,20.836 -114.752,31.422Zm229.47,-62.967c-15.519,4.276 -31.591,-4.851 -35.867,-20.37c-4.276,-15.52 4.852,-31.591 20.371,-35.867c38.804,-10.693 77.019,-21.246 114.619,-31.649c15.515,-4.293 31.596,4.817 35.889,20.332c4.293,15.515 -4.818,31.596 -20.333,35.888c-37.619,10.41 -75.854,20.968 -114.679,31.666Zm229.321,-63.452c-15.51,4.309 -31.601,-4.784 -35.91,-20.294c-4.31,-15.51 4.784,-31.601 20.294,-35.911c38.934,-10.817 77.129,-21.453 114.554,-31.895c15.505,-4.326 31.606,4.75 35.932,20.256c4.326,15.505 -4.75,31.606 -20.256,35.932c-37.444,10.447 -75.66,21.088 -114.614,31.912Zm229.199,-63.949c-15.501,4.343 -31.611,-4.716 -35.954,-20.217c-4.343,-15.5 4.716,-31.611 20.216,-35.954c39.137,-10.965 77.312,-21.685 114.484,-32.144c15.496,-4.36 31.616,4.681 35.976,20.177c4.361,15.496 -4.68,31.616 -20.176,35.976c-37.192,10.465 -75.388,21.19 -114.546,32.162Zm229.051,-64.45c-15.491,4.378 -31.621,-4.645 -35.999,-20.136c-4.377,-15.491 4.645,-31.621 20.136,-35.999c39.488,-11.159 77.644,-21.967 114.408,-32.402c15.485,-4.395 31.627,4.609 36.022,20.094c4.396,15.486 -4.608,31.627 -20.094,36.023c-36.784,10.441 -74.962,21.255 -114.473,32.42Zm228.915,-64.978c-15.481,4.414 -31.633,-4.57 -36.047,-20.051c-4.414,-15.48 4.57,-31.632 20.05,-36.046c40.221,-11.47 78.364,-22.375 114.325,-32.68c15.475,-4.434 31.639,4.53 36.073,20.004c4.434,15.475 -4.529,31.639 -20.004,36.073c-35.985,10.311 -74.151,21.223 -114.397,32.7Zm228.75,-65.553c-15.468,4.456 -31.644,-4.485 -36.1,-19.953c-4.456,-15.469 4.484,-31.645 19.953,-36.101c42.525,-12.25 80.688,-23.282 114.224,-33.001c15.461,-4.48 31.651,4.434 36.132,19.896c4.481,15.461 -4.434,31.651 -19.895,36.132c-33.562,9.727 -71.755,20.768 -114.314,33.027Zm228.585,-66.268c-15.452,4.515 -31.661,-4.365 -36.176,-19.817c-4.514,-15.452 4.366,-31.661 19.818,-36.175c37.4,-10.927 56.995,-16.707 56.995,-16.707l2.741,-0.808l2.845,-0.262c-0,0 24.083,-2.364 55.68,-13.77c15.142,-5.465 31.872,2.39 37.338,17.531c5.465,15.141 -2.39,31.872 -17.531,37.337c-32.237,11.637 -58.312,15.573 -67.026,16.646c-6.34,1.867 -24.869,7.315 -54.684,16.025Zm241.063,-111.179c-10.685,12.04 -29.135,13.14 -41.175,2.455c-12.04,-10.685 -13.14,-29.135 -2.455,-41.175c11.732,-13.219 22.261,-28.752 30.648,-46.991c6.726,-14.625 24.06,-21.039 38.685,-14.313c14.626,6.726 21.039,24.06 14.313,38.685c-10.949,23.81 -24.701,44.082 -40.016,61.339Z"/><path d="M6046.94,8196.65c-15.009,-5.819 -22.471,-22.729 -16.652,-37.738c5.819,-15.009 22.728,-22.47 37.738,-16.651c-0,-0 18.892,7.305 54.57,18.588c15.348,4.854 23.868,21.255 19.014,36.604c-4.854,15.348 -21.255,23.868 -36.604,19.014c-37.971,-12.008 -58.066,-19.817 -58.066,-19.817Zm174.127,52.75c-15.597,-3.984 -25.025,-19.881 -21.041,-35.478c3.984,-15.597 19.881,-25.025 35.477,-21.041c33.69,8.605 72.035,17.633 114.68,26.52c15.759,3.284 25.887,18.745 22.603,34.504c-3.284,15.759 -18.744,25.887 -34.503,22.603c-43.589,-9.084 -82.781,-18.313 -117.216,-27.108Zm235.355,49.215c-15.879,-2.644 -26.624,-17.682 -23.98,-33.561c2.643,-15.879 17.681,-26.624 33.56,-23.981c36.733,6.116 75.661,11.896 116.642,17.11c15.969,2.032 27.284,16.647 25.252,32.615c-2.032,15.969 -16.646,27.284 -32.615,25.252c-41.76,-5.314 -81.428,-11.203 -118.859,-17.435Zm238.262,30.363c-16.033,-1.435 -27.885,-15.617 -26.45,-31.651c1.435,-16.033 15.618,-27.885 31.651,-26.45c37.86,3.389 77.105,6.221 117.646,8.357c16.076,0.846 28.439,14.585 27.593,30.66c-0.847,16.075 -14.585,28.439 -30.661,27.592c-41.276,-2.174 -81.232,-5.057 -119.779,-8.508Zm239.776,12.642c-16.095,-0.262 -28.949,-13.542 -28.687,-29.638c0.262,-16.095 13.543,-28.95 29.638,-28.687c38.369,0.625 77.709,0.588 117.958,-0.211c16.094,-0.319 29.42,12.488 29.74,28.582c0.319,16.094 -12.488,29.421 -28.582,29.74c-40.969,0.814 -81.012,0.851 -120.067,0.214Zm240.046,-4.763c-16.072,0.9 -29.851,-11.418 -30.751,-27.49c-0.9,-16.073 11.418,-29.852 27.49,-30.752c38.512,-2.157 77.74,-5.037 117.638,-8.718c16.029,-1.479 30.244,10.335 31.723,26.364c1.478,16.029 -10.335,30.244 -26.364,31.723c-40.609,3.747 -80.537,6.678 -119.736,8.873Zm239.074,-22.058c-15.965,2.056 -30.597,-9.237 -32.653,-25.203c-2.056,-15.965 9.237,-30.597 25.203,-32.652c1.365,-0.176 2.73,-0.353 4.096,-0.531c27.98,-3.639 65.977,-9.004 113.19,-16.021c15.922,-2.367 30.771,8.639 33.137,24.562c2.367,15.922 -8.639,30.771 -24.561,33.138c-47.652,7.082 -86.002,12.495 -114.242,16.168c-1.391,0.18 -2.781,0.36 -4.17,0.539Zm236.27,-34.695c-15.905,2.48 -30.832,-8.42 -33.311,-24.326c-2.48,-15.905 8.42,-30.831 24.326,-33.311c36.101,-5.628 75.3,-11.83 117.424,-18.592c15.894,-2.551 30.869,8.281 33.42,24.175c2.552,15.894 -8.281,30.87 -24.175,33.421c-42.217,6.777 -81.503,12.993 -117.684,18.633Zm235.263,-37.722c-15.885,2.606 -30.897,-8.175 -33.503,-24.06c-2.606,-15.885 8.175,-30.898 24.06,-33.504c37.394,-6.134 76.535,-12.612 117.337,-19.426c15.878,-2.652 30.921,8.086 33.573,23.964c2.651,15.877 -8.086,30.921 -23.964,33.572c-40.86,6.824 -80.056,13.311 -117.503,19.454Zm234.946,-39.222c-15.871,2.692 -30.942,-8.008 -33.633,-23.879c-2.692,-15.871 8.008,-30.941 23.879,-33.633c37.917,-6.431 77.02,-13.108 117.253,-20.027c15.865,-2.728 30.96,7.937 33.688,23.802c2.728,15.864 -7.937,30.96 -23.802,33.688c-40.278,6.926 -79.425,13.611 -117.385,20.049Zm234.723,-40.358c-15.859,2.762 -30.976,-7.871 -33.739,-23.73c-2.762,-15.858 7.871,-30.976 23.73,-33.738c38.194,-6.653 77.266,-13.498 117.175,-20.533c15.853,-2.794 30.992,7.808 33.787,23.661c2.794,15.853 -7.808,30.992 -23.661,33.787c-39.948,7.041 -79.059,13.894 -117.292,20.553Zm234.537,-41.338c-15.847,2.825 -31.007,-7.747 -33.833,-23.595c-2.825,-15.848 7.747,-31.008 23.595,-33.833c38.361,-6.839 77.404,-13.837 117.097,-20.991c15.842,-2.855 31.022,7.689 33.878,23.531c2.855,15.843 -7.689,31.023 -23.531,33.878c-39.73,7.16 -78.809,14.164 -117.206,21.01Zm234.369,-42.239c-15.837,2.885 -31.037,-7.631 -33.921,-23.468c-2.885,-15.837 7.631,-31.036 23.468,-33.921c38.469,-7.006 77.485,-14.148 117.021,-21.423c15.831,-2.914 31.05,7.574 33.963,23.406c2.913,15.832 -7.575,31.05 -23.407,33.964c-39.57,7.281 -78.621,14.43 -117.124,21.442Zm234.203,-43.095c-15.827,2.942 -31.064,-7.519 -34.005,-23.346c-2.942,-15.826 7.519,-31.064 23.345,-34.005c38.543,-7.164 77.531,-14.446 116.943,-21.844c15.822,-2.97 31.078,7.464 34.047,23.285c2.97,15.821 -7.463,31.077 -23.285,34.047c-39.446,7.404 -78.469,14.693 -117.045,21.863Zm234.057,-43.935c-15.816,2.997 -31.09,-7.409 -34.088,-23.225c-2.998,-15.816 7.408,-31.09 23.224,-34.088c38.593,-7.316 77.554,-14.736 116.864,-22.26c15.811,-3.026 31.104,7.354 34.13,23.164c3.026,15.811 -7.354,31.104 -23.164,34.13c-39.345,7.53 -78.34,14.957 -116.966,22.279Zm233.896,-44.767c-15.805,3.054 -31.116,-7.298 -34.17,-23.103c-3.055,-15.805 7.297,-31.116 23.103,-34.171c38.628,-7.464 77.562,-15.023 116.785,-22.676c15.8,-3.082 31.129,7.243 34.212,23.042c3.082,15.8 -7.242,31.13 -23.042,34.212c-39.257,7.659 -78.226,15.225 -116.888,22.696Zm233.737,-45.602c-15.794,3.111 -31.142,-7.186 -34.253,-22.98c-3.111,-15.794 7.186,-31.143 22.98,-34.254c38.651,-7.613 77.557,-15.312 116.701,-23.097c15.788,-3.14 31.155,7.129 34.295,22.918c3.14,15.788 -7.129,31.155 -22.918,34.295c-39.179,7.791 -78.119,15.498 -116.805,23.118Zm233.57,-46.45c-15.783,3.169 -31.169,-7.072 -34.338,-22.854c-3.169,-15.783 7.072,-31.169 22.854,-34.338c38.666,-7.763 77.542,-15.606 116.614,-23.527c15.777,-3.199 31.182,7.013 34.38,22.79c3.199,15.776 -7.013,31.182 -22.79,34.38c-39.108,7.928 -78.02,15.778 -116.72,23.549Zm233.391,-47.317c-15.77,3.229 -31.195,-6.954 -34.423,-22.725c-3.228,-15.77 6.954,-31.195 22.725,-34.423c38.673,-7.917 77.519,-15.907 116.523,-23.97c15.764,-3.258 31.208,6.894 34.467,22.659c3.259,15.764 -6.894,31.208 -22.659,34.467c-39.04,8.07 -77.923,16.068 -116.633,23.992Zm233.217,-48.211c-15.758,3.29 -31.222,-6.833 -34.512,-22.591c-3.289,-15.757 6.833,-31.222 22.591,-34.511c38.674,-8.074 77.487,-16.217 116.425,-24.428c15.751,-3.321 31.235,6.771 34.557,22.522c3.321,15.751 -6.771,31.235 -22.522,34.557c-38.976,8.218 -77.827,16.369 -116.539,24.451Zm233.034,-49.14c-15.744,3.354 -31.249,-6.706 -34.603,-22.45c-3.353,-15.745 6.706,-31.25 22.451,-34.603c38.671,-8.237 77.449,-16.539 116.322,-24.904c15.737,-3.386 31.263,6.641 34.65,22.378c3.386,15.738 -6.641,31.264 -22.378,34.65c-38.913,8.374 -77.731,16.684 -116.442,24.929Zm232.832,-50.105c-15.73,3.42 -31.277,-6.574 -34.697,-22.304c-3.421,-15.73 6.573,-31.277 22.303,-34.697c38.663,-8.407 77.404,-16.875 116.211,-25.402c15.722,-3.455 31.292,6.505 34.747,22.227c3.455,15.723 -6.505,31.292 -22.228,34.747c-38.849,8.537 -77.632,17.013 -116.336,25.429Zm232.619,-51.118c-15.714,3.491 -31.306,-6.434 -34.796,-22.149c-3.491,-15.714 6.434,-31.306 22.148,-34.796c38.65,-8.585 77.351,-17.227 116.092,-25.926c15.706,-3.526 31.321,6.362 34.848,22.068c3.527,15.707 -6.362,31.322 -22.068,34.848c-38.785,8.709 -77.53,17.361 -116.224,25.955Zm232.377,-52.181c-15.698,3.564 -31.336,-6.287 -34.9,-21.985c-3.565,-15.698 6.286,-31.336 21.984,-34.9c38.633,-8.772 77.291,-17.598 115.962,-26.479c15.689,-3.603 31.352,6.21 34.955,21.899c3.603,15.689 -6.21,31.352 -21.899,34.955c-38.718,8.891 -77.423,17.728 -116.102,26.51Zm232.14,-53.307c-15.681,3.639 -31.366,-6.137 -35.005,-21.818c-3.639,-15.681 6.137,-31.366 21.818,-35.005c38.606,-8.959 77.229,-17.96 115.858,-26.999c15.674,-3.668 31.377,6.08 35.045,21.754c3.668,15.674 -6.08,31.377 -21.754,35.045c-38.664,9.047 -77.321,18.056 -115.962,27.023Zm231.876,-54.255c-15.668,3.696 -31.388,-6.024 -35.083,-21.692c-3.695,-15.668 6.025,-31.388 21.692,-35.083c38.596,-9.103 77.187,-18.24 115.763,-27.408c15.662,-3.722 31.398,5.971 35.12,21.632c3.722,15.662 -5.971,31.398 -21.632,35.12c-38.609,9.176 -77.232,18.321 -115.86,27.431Zm231.685,-55.059c-15.655,3.748 -31.408,-5.919 -35.156,-21.574c-3.748,-15.655 5.92,-31.408 21.575,-35.156c38.59,-9.239 77.155,-18.504 115.685,-27.794c15.649,-3.772 31.417,5.87 35.19,21.519c3.773,15.649 -5.869,31.417 -21.518,35.19c-38.56,9.296 -77.155,18.569 -115.776,27.815Zm231.493,-55.809c-15.643,3.797 -31.426,-5.821 -35.223,-21.464c-3.797,-15.643 5.82,-31.426 21.463,-35.223c38.583,-9.366 77.119,-18.751 115.599,-28.153c15.637,-3.821 31.435,5.773 35.256,21.41c3.82,15.638 -5.773,31.436 -21.411,35.256c-38.508,9.409 -77.073,18.801 -115.684,28.174Zm231.319,-56.517c-15.632,3.844 -31.444,-5.727 -35.288,-21.359c-3.843,-15.632 5.727,-31.444 21.359,-35.287c38.575,-9.485 77.082,-18.983 115.51,-28.49c15.627,-3.866 31.452,5.682 35.318,21.308c3.866,15.627 -5.682,31.452 -21.308,35.318c-38.455,9.514 -76.989,19.018 -115.591,28.51Zm231.15,-57.185c-15.621,3.888 -31.459,-5.638 -35.347,-21.259c-3.888,-15.621 5.638,-31.46 21.259,-35.347c38.576,-9.601 77.061,-19.206 115.443,-28.814c15.616,-3.909 31.467,5.596 35.376,21.212c3.909,15.616 -5.596,31.467 -21.212,35.376c-38.408,9.614 -76.918,19.226 -115.519,28.832Zm230.996,-57.818c-15.61,3.929 -31.474,-5.555 -35.404,-21.165c-3.929,-15.611 5.555,-31.475 21.165,-35.404c38.575,-9.71 77.034,-19.417 115.366,-29.118c15.606,-3.95 31.482,5.513 35.431,21.119c3.95,15.605 -5.513,31.482 -21.119,35.431c-38.356,9.707 -76.84,19.421 -115.439,29.137Zm230.831,-58.418c-15.601,3.969 -31.489,-5.474 -35.458,-21.075c-3.969,-15.6 5.474,-31.488 21.075,-35.458c38.575,-9.814 77.009,-19.618 115.288,-29.407c15.596,-3.989 31.495,5.435 35.484,21.031c3.988,15.595 -5.436,31.495 -21.031,35.483c-38.303,9.796 -76.759,19.605 -115.358,29.426Zm230.681,-58.992c-15.591,4.007 -31.502,-5.398 -35.509,-20.988c-4.007,-15.591 5.397,-31.502 20.988,-35.509c38.582,-9.917 76.993,-19.814 115.221,-29.687c15.586,-4.026 31.508,5.36 35.534,20.946c4.025,15.586 -5.36,31.508 -20.946,35.533c-38.25,9.88 -76.683,19.782 -115.288,29.705Zm230.533,-59.542c-15.581,4.044 -31.514,-5.324 -35.558,-20.905c-4.043,-15.581 5.324,-31.514 20.905,-35.558c38.591,-10.015 76.979,-20.001 115.149,-29.954c15.577,-4.061 31.52,5.288 35.582,20.864c4.061,15.577 -5.288,31.521 -20.865,35.582c-38.191,9.958 -76.6,19.95 -115.213,29.971Zm230.41,-60.076c-15.572,4.079 -31.526,-5.252 -35.605,-20.824c-4.079,-15.572 5.252,-31.527 20.824,-35.606c38.609,-10.112 76.976,-20.185 115.087,-30.213c15.568,-4.096 31.532,5.218 35.628,20.785c4.097,15.568 -5.217,31.532 -20.785,35.628c-38.132,10.034 -76.519,20.112 -115.149,30.23Zm230.263,-60.585c-15.563,4.113 -31.538,-5.183 -35.651,-20.746c-4.113,-15.563 5.183,-31.538 20.747,-35.651c38.63,-10.209 76.975,-20.365 115.019,-30.463c15.559,-4.129 31.543,5.15 35.673,20.709c4.13,15.558 -5.149,31.543 -20.708,35.673c-38.065,10.103 -76.43,20.264 -115.08,30.478Zm230.125,-61.079c-15.555,4.146 -31.549,-5.116 -35.695,-20.671c-4.146,-15.554 5.116,-31.548 20.67,-35.695c38.662,-10.305 76.987,-20.543 114.957,-30.707c15.551,-4.162 31.555,5.083 35.717,20.633c4.162,15.55 -5.083,31.554 -20.633,35.717c-37.99,10.169 -76.334,20.412 -115.016,30.723Zm229.999,-61.566c-15.545,4.179 -31.559,-5.05 -35.738,-20.596c-4.178,-15.545 5.051,-31.559 20.596,-35.737c38.707,-10.404 77.012,-20.722 114.896,-30.946c15.541,-4.195 31.565,5.017 35.759,20.559c4.195,15.541 -5.018,31.564 -20.559,35.759c-37.904,10.23 -76.228,20.552 -114.954,30.961Zm229.876,-62.041c-15.537,4.211 -31.57,-4.985 -35.78,-20.522c-4.211,-15.538 4.985,-31.57 20.522,-35.78c38.768,-10.506 77.052,-20.902 114.832,-31.181c15.533,-4.226 31.575,4.953 35.801,20.486c4.226,15.533 -4.953,31.575 -20.486,35.801c-37.799,10.284 -76.102,20.686 -114.889,31.196Zm229.739,-62.507c-15.529,4.242 -31.58,-4.921 -35.822,-20.45c-4.242,-15.528 4.922,-31.58 20.45,-35.822c38.855,-10.614 77.121,-21.088 114.77,-31.414c15.524,-4.257 31.584,4.89 35.842,20.414c4.258,15.524 -4.889,31.585 -20.414,35.842c-37.667,10.331 -75.952,20.811 -114.826,31.43Zm229.624,-62.977c-15.52,4.274 -31.59,-4.857 -35.864,-20.377c-4.273,-15.52 4.858,-31.589 20.378,-35.863c38.984,-10.734 77.228,-21.287 114.701,-31.647c15.516,-4.289 31.595,4.825 35.884,20.341c4.289,15.515 -4.825,31.594 -20.34,35.884c-37.492,10.365 -75.756,20.922 -114.759,31.662Zm229.487,-63.443c-15.511,4.305 -31.6,-4.793 -35.905,-20.304c-4.306,-15.511 4.792,-31.599 20.303,-35.905c39.189,-10.877 77.415,-21.51 114.637,-31.884c15.506,-4.322 31.604,4.759 35.926,20.265c4.322,15.507 -4.759,31.605 -20.266,35.927c-37.24,10.379 -75.486,21.017 -114.695,31.901Zm229.353,-63.923c-15.502,4.339 -31.61,-4.725 -35.948,-20.227c-4.339,-15.501 4.725,-31.609 20.227,-35.948c39.542,-11.066 77.751,-21.783 114.565,-32.13c15.497,-4.355 31.615,4.69 35.97,20.187c4.356,15.497 -4.69,31.615 -20.187,35.971c-36.834,10.352 -75.063,21.075 -114.627,32.147Zm229.221,-64.425c-15.492,4.373 -31.62,-4.654 -35.994,-20.146c-4.373,-15.492 4.654,-31.62 20.146,-35.993c40.278,-11.371 78.475,-22.181 114.488,-32.395c15.487,-4.392 31.626,4.615 36.018,20.101c4.393,15.487 -4.614,31.626 -20.101,36.019c-36.035,10.22 -74.255,21.037 -114.557,32.414Zm229.074,-64.975c-15.481,4.413 -31.632,-4.573 -36.045,-20.053c-4.413,-15.481 4.572,-31.632 20.053,-36.045c42.587,-12.14 80.806,-23.072 114.391,-32.702c15.474,-4.436 31.639,4.524 36.076,19.998c4.437,15.474 -4.524,31.64 -19.998,36.076c-33.61,9.637 -71.858,20.577 -114.477,32.726Zm228.913,-65.655c-15.465,4.468 -31.648,-4.459 -36.116,-19.924c-4.469,-15.465 4.459,-31.649 19.924,-36.117c31.545,-9.115 50.444,-14.613 55.63,-16.124c6.329,-2.618 36.332,-15.319 74.272,-36.175c14.107,-7.755 31.856,-2.598 39.61,11.508c7.755,14.107 2.598,31.856 -11.509,39.61c-46.408,25.512 -81.896,39.705 -81.896,39.705l-1.321,0.53l-1.368,0.398c0,0 -19.674,5.739 -57.226,16.589Zm289.732,-165.004c-11.233,11.53 -29.714,11.772 -41.245,0.54c-11.53,-11.233 -11.772,-29.714 -0.54,-41.245c18.739,-19.235 34.757,-40.147 45.104,-62.648c6.726,-14.625 24.06,-21.039 38.685,-14.313c14.625,6.725 21.039,24.059 14.313,38.685c-13.003,28.274 -32.77,54.809 -56.317,78.981Z"/><path d="M16590.4,5016.52l235.481,144.769c-10.11,16.445 -22.833,32.77 -38.321,48.564l-197.16,-193.333Zm-0,-0l-12.986,-7.984c0.565,-0.919 1.03,-2.008 1.895,-2.891l11.091,10.875Zm-10693.4,2417.22l-1.78,-291.661c0,-0 9.138,-0.061 27.114,-0.436l6.084,291.603c-20.83,0.435 -31.418,0.494 -31.418,0.494Zm61.599,-1.224l-7.922,-291.559c15.844,-0.43 34.927,-1.021 57.182,-1.828l10.579,291.474c-23.289,0.846 -43.259,1.463 -59.839,1.913Zm89.633,-3.051l-11.669,-291.433c17.609,-0.705 36.793,-1.531 57.527,-2.498l13.588,291.35c-21.426,1 -41.249,1.853 -59.446,2.581Zm89.114,-4.009l-14.455,-291.308c18.185,-0.903 37.409,-1.906 57.658,-3.023l16.058,291.224c-20.813,1.148 -40.57,2.18 -59.261,3.107Zm88.859,-4.777l-16.806,-291.182c18.472,-1.066 37.717,-2.222 57.726,-3.474l18.222,291.097c-20.501,1.283 -40.217,2.467 -59.142,3.559Zm88.688,-5.443l-18.895,-291.054c18.643,-1.211 37.9,-2.502 57.765,-3.88l20.184,290.967c-20.309,1.409 -39.995,2.729 -59.054,3.967Zm88.561,-6.045l-20.804,-290.924c18.754,-1.341 38.017,-2.757 57.785,-4.252l21.999,290.836c-20.177,1.526 -39.838,2.971 -58.98,4.34Zm88.452,-6.599l-22.577,-290.792c18.832,-1.462 38.098,-2.994 57.794,-4.6l23.702,290.702c-20.079,1.637 -39.72,3.199 -58.919,4.69Zm88.362,-7.119l-24.248,-290.657c18.889,-1.575 38.155,-3.218 57.795,-4.929l25.315,290.566c-20.003,1.743 -39.624,3.415 -58.862,5.02Zm88.282,-7.609l-25.835,-290.521c18.931,-1.683 38.195,-3.43 57.791,-5.241l26.853,290.427c-19.94,1.844 -39.544,3.621 -58.809,5.335Zm88.202,-8.078l-27.352,-290.381c18.962,-1.786 38.224,-3.633 57.782,-5.542l28.331,290.288c-19.889,1.941 -39.477,3.819 -58.761,5.635Zm88.133,-8.526l-28.811,-290.24c18.988,-1.885 38.246,-3.828 57.772,-5.831l29.755,290.145c-19.845,2.036 -39.418,4.01 -58.716,5.926Zm88.059,-8.959l-30.219,-290.097c19.007,-1.979 38.26,-4.015 57.758,-6.108l31.133,290c-19.806,2.126 -39.364,4.194 -58.672,6.205Zm87.999,-9.377l-31.583,-289.951c19.022,-2.072 38.27,-4.198 57.743,-6.38l32.472,289.854c-19.773,2.215 -39.317,4.373 -58.632,6.477Zm87.939,-9.783l-32.909,-289.804c19.033,-2.161 38.274,-4.375 57.724,-6.643l33.774,289.705c-19.741,2.301 -39.271,4.548 -58.589,6.742Zm87.869,-10.177l-34.201,-289.655c19.041,-2.248 38.275,-4.547 57.703,-6.899l35.044,289.554c-19.711,2.386 -39.227,4.719 -58.546,7Zm87.811,-10.563l-35.461,-289.503c19.047,-2.333 38.275,-4.716 57.684,-7.149l36.286,289.4c-19.686,2.469 -39.189,4.885 -58.509,7.252Zm87.756,-10.94l-36.694,-289.349c19.05,-2.416 38.271,-4.88 57.66,-7.394l37.502,289.245c-19.661,2.55 -39.151,5.048 -58.468,7.498Zm87.692,-11.307l-37.902,-289.194c19.053,-2.497 38.266,-5.041 57.637,-7.634l38.694,289.088c-19.638,2.629 -39.114,5.208 -58.429,7.74Zm87.637,-11.669l-39.086,-289.036c19.054,-2.577 38.258,-5.2 57.613,-7.87l39.864,288.929c-19.615,2.707 -39.079,5.365 -58.391,7.977Zm87.57,-12.023l-40.25,-288.876c19.053,-2.654 38.249,-5.355 57.586,-8.101l41.015,288.768c-19.594,2.783 -39.044,5.519 -58.351,8.209Zm87.52,-12.371l-41.394,-288.715c19.052,-2.731 38.239,-5.508 57.56,-8.329l42.147,288.605c-19.573,2.859 -39.011,5.671 -58.313,8.439Zm87.466,-12.715l-42.522,-288.551c19.051,-2.807 38.229,-5.658 57.534,-8.554l43.263,288.44c-19.554,2.933 -38.98,5.821 -58.275,8.665Zm87.394,-13.051l-43.631,-288.385c19.047,-2.882 38.215,-5.806 57.505,-8.775l44.361,288.274c-19.534,3.006 -38.946,5.968 -58.235,8.886Zm87.35,-13.386l-44.725,-288.217c19.043,-2.955 38.202,-5.952 57.477,-8.993l45.446,288.105c-19.517,3.078 -38.916,6.113 -58.198,9.105Zm87.28,-13.711l-45.804,-288.048c19.037,-3.027 38.186,-6.096 57.446,-9.208l46.517,287.933c-19.499,3.15 -38.885,6.258 -58.159,9.323Zm87.233,-14.038l-46.871,-287.876c19.033,-3.099 38.171,-6.239 57.416,-9.42l47.574,287.76c-19.48,3.221 -38.853,6.399 -58.119,9.536Zm87.171,-14.357l-47.924,-287.702c19.026,-3.17 38.155,-6.38 57.385,-9.631l48.62,287.586c-19.463,3.29 -38.824,6.539 -58.081,9.747Zm87.111,-14.673l-48.965,-287.527c19.02,-3.239 38.138,-6.518 57.353,-9.838l49.654,287.409c-19.446,3.36 -38.793,6.678 -58.042,9.956Zm87.054,-14.986l-49.996,-287.35c19.014,-3.308 38.121,-6.655 57.322,-10.043l50.676,287.23c-19.428,3.428 -38.763,6.816 -58.002,10.163Zm86.993,-15.295l-51.015,-287.171c19.006,-3.376 38.103,-6.791 57.289,-10.246l51.689,287.05c-19.412,3.495 -38.733,6.951 -57.963,10.367Zm86.926,-15.6l-52.024,-286.99c18.998,-3.444 38.083,-6.926 57.255,-10.448l52.692,286.868c-19.395,3.563 -38.703,7.086 -57.923,10.57Zm86.879,-15.906l-53.024,-286.806c18.99,-3.511 38.064,-7.06 57.222,-10.648l53.685,286.684c-19.379,3.629 -38.673,7.219 -57.883,10.77Zm86.816,-16.206l-54.015,-286.621c18.982,-3.577 38.044,-7.192 57.188,-10.845l54.67,286.497c-19.363,3.695 -38.644,7.351 -57.843,10.969Zm86.749,-16.502l-54.996,-286.435c18.972,-3.642 38.023,-7.323 57.152,-11.04l55.647,286.309c-19.347,3.76 -38.614,7.482 -57.803,11.166Zm86.697,-16.799l-55.971,-286.246c18.964,-3.708 38.003,-7.453 57.118,-11.235l56.615,286.119c-19.331,3.825 -38.585,7.612 -57.762,11.362Zm86.638,-17.093l-56.936,-286.055c18.954,-3.773 37.981,-7.582 57.082,-11.428l57.575,285.927c-19.314,3.89 -38.554,7.741 -57.721,11.556Zm86.568,-17.381l-57.894,-285.863c10.538,-2.134 21.097,-4.28 31.679,-6.436c8.521,-1.737 17.195,-3.488 26.022,-5.255l57.238,285.995c-8.484,1.698 -16.823,3.382 -25.013,5.051c-10.699,2.181 -21.377,4.35 -32.032,6.508Zm85.263,-17.155l-56.255,-286.19c18.799,-3.695 38.229,-7.454 58.271,-11.278l54.659,286.5c-19.493,3.719 -38.391,7.374 -56.675,10.968Zm85.106,-16.358l-54.006,-286.623c18.865,-3.555 38.234,-7.164 58.091,-10.828l52.922,286.826c-19.486,3.595 -38.494,7.137 -57.007,10.625Zm85.571,-15.872l-52.471,-286.908c18.915,-3.459 38.246,-6.966 57.98,-10.521l51.711,287.046c-19.475,3.508 -38.553,6.969 -57.22,10.383Zm85.871,-15.528l-51.392,-287.103c18.952,-3.393 38.256,-6.828 57.902,-10.307l50.855,287.199c-19.463,3.446 -38.588,6.85 -57.365,10.211Zm86.077,-15.283l-50.631,-287.239c18.983,-3.346 38.268,-6.731 57.847,-10.156l50.254,287.305c-19.452,3.403 -38.612,6.766 -57.47,10.09Zm86.223,-15.111l-50.098,-287.332c19.007,-3.314 38.278,-6.664 57.804,-10.05l49.841,287.376c-19.44,3.372 -38.625,6.707 -57.547,10.006Zm86.336,-14.993l-49.738,-287.395c19.025,-3.292 38.283,-6.619 57.766,-9.979l49.576,287.422c-19.429,3.351 -38.632,6.668 -57.604,9.952Zm86.418,-14.918l-49.515,-287.433c19.041,-3.28 38.288,-6.592 57.736,-9.936l49.427,287.448c-19.418,3.339 -38.637,6.646 -57.648,9.921Zm86.483,-14.878l-49.4,-287.453c19.052,-3.274 38.29,-6.579 57.706,-9.914l49.375,287.457c-19.408,3.334 -38.637,6.637 -57.681,9.91Zm86.529,-14.865l-49.377,-287.456c19.063,-3.275 38.291,-6.578 57.68,-9.91l49.404,287.452c-19.398,3.334 -38.636,6.638 -57.707,9.914Zm86.569,-14.876l-49.429,-287.448c19.07,-3.279 38.29,-6.586 57.655,-9.921l49.501,287.436c-19.389,3.339 -38.633,6.65 -57.727,9.933Zm86.597,-14.908l-49.547,-287.427c19.077,-3.289 38.29,-6.604 57.633,-9.946l49.659,287.408c-19.381,3.349 -38.631,6.67 -57.745,9.965Zm86.618,-14.957l-49.723,-287.397c19.081,-3.301 38.286,-6.629 57.609,-9.982l49.869,287.372c-19.372,3.362 -38.625,6.697 -57.755,10.007Zm86.632,-15.022l-49.951,-287.358c19.085,-3.317 38.281,-6.66 57.584,-10.028l50.129,287.327c-19.363,3.378 -38.618,6.731 -57.762,10.059Zm86.644,-15.103l-50.225,-287.31c19.086,-3.336 38.274,-6.697 57.56,-10.083l50.432,287.273c-19.354,3.398 -38.612,6.771 -57.767,10.12Zm86.647,-15.195l-50.543,-287.254c19.087,-3.359 38.266,-6.741 57.533,-10.147l50.778,287.212c-19.346,3.42 -38.603,6.816 -57.768,10.189Zm86.656,-15.302l-50.901,-287.191c19.087,-3.383 38.257,-6.789 57.507,-10.219l51.16,287.145c-19.336,3.445 -38.593,6.867 -57.766,10.265Zm86.645,-15.418l-51.296,-287.12c19.086,-3.41 38.247,-6.843 57.48,-10.298l51.58,287.069c-19.328,3.473 -38.584,6.923 -57.764,10.349Zm86.647,-15.546l-51.728,-287.043c19.083,-3.439 38.235,-6.901 57.452,-10.385l52.036,286.987c-19.32,3.503 -38.574,6.983 -57.76,10.441Zm86.643,-15.686l-52.196,-286.958c19.081,-3.471 38.223,-6.964 57.423,-10.479l52.526,286.898c-19.311,3.535 -38.563,7.048 -57.753,10.539Zm86.63,-15.835l-52.696,-286.866c19.077,-3.505 38.209,-7.031 57.392,-10.58l53.05,286.802c-19.302,3.57 -38.551,7.118 -57.746,10.644Zm86.619,-15.994l-53.231,-286.768c19.073,-3.54 38.194,-7.103 57.362,-10.687l53.607,286.698c-19.293,3.608 -38.54,7.193 -57.738,10.757Zm86.602,-16.164l-53.8,-286.661c19.067,-3.579 38.178,-7.179 57.328,-10.801l54.198,286.587c-19.283,3.647 -38.526,7.272 -57.726,10.875Zm86.585,-16.343l-54.402,-286.548c19.061,-3.619 38.16,-7.259 57.294,-10.921l54.822,286.468c-19.274,3.689 -38.513,7.356 -57.714,11.001Zm86.573,-16.535l-55.038,-286.427c19.055,-3.661 38.142,-7.344 57.259,-11.048l55.481,286.341c-19.265,3.733 -38.5,7.444 -57.702,11.134Zm86.544,-16.734l-55.708,-286.297c19.047,-3.706 38.122,-7.434 57.221,-11.182l56.174,286.206c-19.254,3.779 -38.484,7.537 -57.687,11.273Zm86.529,-16.947l-56.414,-286.159c19.039,-3.753 38.1,-7.527 57.181,-11.323l56.904,286.062c-19.244,3.828 -38.469,7.635 -57.671,11.42Zm86.503,-17.169l-57.155,-286.011c19.029,-3.803 38.076,-7.627 57.138,-11.472l57.67,285.909c-19.233,3.879 -38.452,7.737 -57.653,11.574Zm86.469,-17.401l-57.935,-285.855c19.019,-3.854 38.051,-7.73 57.093,-11.627l58.475,285.745c-19.222,3.934 -38.434,7.846 -57.633,11.737Zm86.448,-17.648l-58.751,-285.688c19.007,-3.909 38.023,-7.839 57.045,-11.79l59.318,285.571c-19.21,3.99 -38.415,7.959 -57.612,11.907Zm86.41,-17.904l-59.609,-285.511c18.995,-3.965 37.995,-7.952 56.995,-11.961l60.204,285.386c-19.199,4.05 -38.396,8.079 -57.59,12.086Zm86.382,-18.176l-60.509,-285.321c18.982,-4.026 37.963,-8.072 56.941,-12.14l61.133,285.188c-19.186,4.112 -38.375,8.203 -57.565,12.273Zm86.343,-18.459l-61.453,-285.119c18.968,-4.089 37.93,-8.198 56.884,-12.329l62.108,284.977c-19.172,4.179 -38.353,8.336 -57.539,12.471Zm86.302,-18.757l-62.443,-284.904c18.952,-4.154 37.894,-8.329 56.824,-12.526l63.13,284.753c-19.158,4.247 -38.33,8.473 -57.511,12.677Zm86.258,-19.069l-63.482,-284.674c18.935,-4.223 37.856,-8.467 56.759,-12.733l64.205,284.512c-19.144,4.321 -38.305,8.619 -57.482,12.895Zm86.212,-19.397l-64.575,-284.429c18.917,-4.295 37.815,-8.611 56.691,-12.95l65.333,284.256c-19.128,4.396 -38.279,8.77 -57.449,13.123Zm86.167,-19.745l-65.722,-284.165c13.566,-3.138 27.119,-6.286 40.658,-9.446c5.352,-1.25 10.704,-2.499 16.056,-3.749l66.338,284.022c-5.367,1.254 -10.734,2.507 -16.102,3.76c-13.729,3.204 -27.472,6.397 -41.228,9.578Zm85.868,-20.007l-66.42,-284.004c18.975,-4.437 37.946,-8.88 56.913,-13.327l66.58,283.966c-19.019,4.459 -38.045,8.914 -57.073,13.365Zm85.617,-20.062l-66.66,-283.947c18.978,-4.455 37.949,-8.915 56.911,-13.377l66.817,283.91c-19.015,4.475 -38.038,8.946 -57.068,13.414Zm85.596,-20.132l-66.894,-283.892c18.975,-4.471 37.941,-8.946 56.896,-13.423l67.046,283.856c-19.006,4.49 -38.023,8.976 -57.048,13.459Zm85.567,-20.199l-67.121,-283.838c18.978,-4.488 37.944,-8.978 56.896,-13.47l67.269,283.803c-19.002,4.504 -38.017,9.006 -57.044,13.505Zm85.565,-20.269l-67.342,-283.786c18.977,-4.503 37.94,-9.008 56.886,-13.514l67.487,283.751c-18.995,4.518 -38.005,9.034 -57.031,13.549Zm85.535,-20.332l-67.558,-283.735c18.976,-4.518 37.934,-9.037 56.873,-13.556l67.699,283.701c-18.986,4.53 -37.991,9.061 -57.014,13.59Zm85.519,-20.396l-67.769,-283.684c18.975,-4.533 37.93,-9.066 56.862,-13.599l67.907,283.652c-18.978,4.543 -37.979,9.087 -57,13.631Zm85.504,-20.459l-67.975,-283.635c18.977,-4.548 37.931,-9.095 56.859,-13.641l68.109,283.603c-18.972,4.556 -37.971,9.114 -56.993,13.673Zm85.48,-20.518l-68.176,-283.587c18.976,-4.562 37.926,-9.122 56.847,-13.68l68.308,283.555c-18.965,4.569 -37.959,9.139 -56.979,13.712Zm85.476,-20.58l-68.373,-283.54c18.978,-4.576 37.925,-9.15 56.84,-13.72l68.502,283.508c-18.958,4.581 -37.948,9.165 -56.969,13.752Zm85.449,-20.636l-68.566,-283.493c18.978,-4.59 37.922,-9.177 56.831,-13.759l68.692,283.462c-18.951,4.593 -37.937,9.189 -56.957,13.79Zm85.438,-20.695l-68.755,-283.447c18.979,-4.603 37.92,-9.202 56.822,-13.796l68.879,283.417c-18.944,4.604 -37.927,9.213 -56.946,13.826Zm85.42,-20.749l-68.94,-283.402c18.979,-4.617 37.918,-9.229 56.814,-13.834l69.062,283.373c-18.937,4.615 -37.916,9.236 -56.936,13.863Zm85.403,-20.804l-69.121,-283.358c18.98,-4.63 37.917,-9.254 56.807,-13.87l69.241,283.328c-18.93,4.627 -37.906,9.26 -56.927,13.9Zm85.395,-20.86l-69.3,-283.314c18.982,-4.643 37.916,-9.279 56.8,-13.906l69.417,283.285c-18.922,4.637 -37.896,9.282 -56.917,13.935Zm85.382,-20.913l-69.476,-283.271c18.985,-4.656 37.918,-9.304 56.796,-13.942l69.592,283.242c-18.917,4.648 -37.889,9.305 -56.912,13.971Zm85.358,-20.963l-69.648,-283.229c18.986,-4.668 37.915,-9.327 56.786,-13.976l69.762,283.201c-18.908,4.658 -37.876,9.326 -56.9,14.004Zm85.353,-21.016l-69.819,-283.187c18.988,-4.681 37.915,-9.352 56.779,-14.011l69.931,283.16c-18.901,4.667 -37.865,9.347 -56.891,14.038Zm85.33,-21.065l-69.987,-283.145c18.991,-4.694 37.916,-9.376 56.773,-14.045l70.097,283.118c-18.893,4.678 -37.855,9.369 -56.883,14.072Zm85.321,-21.116l-70.153,-283.104c18.994,-4.707 37.918,-9.4 56.767,-14.079l70.263,283.078c-18.886,4.687 -37.846,9.389 -56.877,14.105Zm85.313,-21.167l-70.317,-283.063c18.997,-4.719 37.916,-9.423 56.756,-14.111l70.425,283.037c-18.876,4.697 -37.832,9.41 -56.864,14.137Zm85.297,-21.214l-70.479,-283.024c19.001,-4.731 37.919,-9.446 56.751,-14.143l70.586,282.996c-18.868,4.706 -37.822,9.43 -56.858,14.171Zm85.275,-21.261l-70.639,-282.984c19.003,-4.743 37.918,-9.469 56.741,-14.175l70.745,282.957c-18.858,4.715 -37.808,9.449 -56.847,14.202Zm85.274,-21.312l-70.798,-282.944c19.008,-4.756 37.92,-9.492 56.734,-14.207l70.904,282.917c-18.848,4.724 -37.796,9.468 -56.84,14.234Zm85.256,-21.359l-70.957,-282.903c19.014,-4.769 37.925,-9.516 56.728,-14.24l71.062,282.878c-18.838,4.732 -37.784,9.488 -56.833,14.265Zm85.244,-21.405l-71.115,-282.865c19.02,-4.781 37.927,-9.538 56.718,-14.27l71.219,282.838c-18.826,4.74 -37.768,9.506 -56.822,14.297Zm85.231,-21.453l-71.271,-282.825c19.025,-4.794 37.93,-9.562 56.709,-14.302l71.375,282.799c-18.814,4.748 -37.753,9.525 -56.813,14.328Zm85.226,-21.502l-71.428,-282.785c19.035,-4.808 37.938,-9.587 56.705,-14.334l71.532,282.759c-18.802,4.756 -37.739,9.543 -56.809,14.36Zm85.208,-21.547l-71.585,-282.746c19.043,-4.821 37.942,-9.61 56.693,-14.364l71.689,282.719c-18.786,4.763 -37.72,9.561 -56.797,14.391Zm85.193,-21.594l-71.742,-282.706c19.054,-4.835 37.95,-9.634 56.685,-14.396l71.847,282.679c-18.77,4.771 -37.702,9.579 -56.79,14.423Zm85.19,-21.644l-71.899,-282.666c19.066,-4.85 37.96,-9.659 56.677,-14.428l72.006,282.639c-18.753,4.777 -37.682,9.596 -56.784,14.455Zm85.171,-21.69l-72.059,-282.625c19.081,-4.865 37.972,-9.685 56.668,-14.46l72.166,282.598c-18.731,4.784 -37.658,9.613 -56.775,14.487Zm85.165,-21.74l-72.22,-282.584c19.098,-4.881 37.986,-9.712 56.659,-14.492l72.329,282.556c-18.708,4.789 -37.633,9.63 -56.768,14.52Zm85.149,-21.788l-72.385,-282.541c19.12,-4.899 38.004,-9.741 56.649,-14.525l72.496,282.513c-18.681,4.794 -37.603,9.645 -56.76,14.553Zm85.142,-21.839l-72.553,-282.499c19.146,-4.917 38.028,-9.771 56.64,-14.559l72.667,282.47c-18.649,4.797 -37.569,9.661 -56.754,14.588Zm85.132,-21.892l-72.726,-282.454c19.178,-4.938 38.057,-9.803 56.628,-14.594l72.846,282.424c-18.61,4.8 -37.529,9.675 -56.748,14.624Zm85.118,-21.945l-72.907,-282.408c19.221,-4.962 38.096,-9.839 56.616,-14.629l73.032,282.375c-18.561,4.801 -37.478,9.689 -56.741,14.662Zm85.113,-22.003l-73.096,-282.359c19.277,-4.99 38.148,-9.88 56.602,-14.667l73.229,282.324c-18.498,4.798 -37.413,9.7 -56.735,14.702Zm85.101,-22.063l-73.299,-282.306c19.354,-5.025 38.22,-9.929 56.586,-14.707l73.443,282.268c-18.413,4.791 -37.327,9.708 -56.73,14.745Zm85.091,-22.128l-73.52,-282.248c19.464,-5.071 38.325,-9.989 56.563,-14.751l73.683,282.206c-18.291,4.776 -37.206,9.708 -56.726,14.793Zm85.094,-22.204l-73.771,-282.184c19.641,-5.134 38.494,-10.07 56.535,-14.8l73.964,282.133c-18.102,4.746 -37.02,9.698 -56.728,14.851Zm85.091,-22.293l-74.071,-282.104c19.96,-5.241 38.803,-10.197 56.489,-14.858l74.323,282.038c-17.765,4.682 -36.691,9.66 -56.741,14.924Zm85.12,-22.41l-74.476,-281.998c20.702,-5.467 39.523,-10.452 56.386,-14.932l74.883,281.89c-16.985,4.512 -35.942,9.533 -56.793,15.04Zm85.231,-22.61l-75.192,-281.808c24.476,-6.531 43.165,-11.562 55.681,-14.983l76.889,281.35c-12.898,3.525 -32.156,8.711 -57.378,15.441Zm85.47,-23.492l-76.803,-281.373c13.309,-3.632 34.433,-8.735 61.085,-15.153l68.285,283.561c-22.927,5.521 -41.117,9.84 -52.567,12.965Zm81.364,-19.93l-68.979,-283.392c16.958,-4.128 35.54,-8.713 55.254,-13.742l72.09,282.617c-20.824,5.312 -40.452,10.157 -58.365,14.517Zm87.74,-22.122l-74.17,-282.079c17.431,-4.583 35.521,-9.481 53.96,-14.685l79.22,280.702c-20.165,5.691 -39.947,11.049 -59.01,16.062Zm88.636,-24.591l-82.218,-279.839c17.369,-5.103 34.915,-10.468 52.38,-16.09l89.373,277.636c-19.852,6.39 -39.794,12.492 -59.535,18.293Zm89.479,-28.184l-93.675,-276.214c16.877,-5.724 33.55,-11.689 49.761,-17.897l104.313,272.375c-19.678,7.536 -39.913,14.788 -60.399,21.736Zm90.961,-33.865l-111.025,-269.709c15.556,-6.404 30.488,-13.035 44.484,-19.928l128.863,261.656c-19.615,9.66 -40.52,19.006 -62.322,27.981Zm94.43,-44.721l-141.17,-255.226c11.371,-6.289 21.716,-12.658 30.457,-19.424l178.531,230.643c-19.563,15.143 -42.37,29.932 -67.818,44.007Z" style="fill:#1c1c1c;"/><path d="M6611.42,7490.48c-0,-0 166.664,-612.751 472.642,-558.264c305.977,54.486 634.274,-20.849 712.543,-59.231c78.268,-38.381 89.374,553.59 89.374,553.59l-1274.56,63.905Z"/></g></svg>