<?xml version="1.0" encoding="UTF-8" standalone="no"?><!DOCTYPE svg PUBLIC "-//W3C//DTD SVG 1.1//EN" "http://www.w3.org/Graphics/SVG/1.1/DTD/svg11.dtd"><svg width="100%" height="100%" viewBox="0 0 19500 14400" version="1.1" xmlns="http://www.w3.org/2000/svg" xmlns:xlink="http://www.w3.org/1999/xlink" xml:space="preserve" xmlns:serif="http://www.serif.com/" style="fill-rule:evenodd;clip-rule:evenodd;stroke-linejoin:round;stroke-miterlimit:2;"><g id="blue-camo" serif:id="blue camo"><clipPath id="_clip1"><path d="M5998.04,8475.07c0,-0 473.35,152.292 2000.27,-18.17c585.94,-65.412 2092,-306.479 3633.97,-696.653c1999.31,-505.898 3941.87,-984.32 4333.71,-1173.81c85.969,-41.574 645.929,-260.199 730.906,-355.024c84.977,-94.825 142.259,2016.01 -271.574,2888.1c-685.905,1445.44 -1474.93,1616.43 -1607.6,1707.73c-187.738,129.207 -2621.71,1142.67 -5133.8,1695.18c-765.036,168.26 -1407.23,334.139 -2399.96,-291.775c-168.333,-106.135 -892.14,-326.7 -1098.47,-2021.03c-220.548,-1811.13 -187.457,-1734.55 -187.457,-1734.55Z"/></clipPath><g clip-path="url(#_clip1)"><path d="M20418.2,4209.14l-16801,2243.96l-1464.12,7491.46l16801,-2243.96l1464.12,-7491.46Z" style="fill:#0f1f36;"/><path d="M17427.6,5721.35l-679.987,674.816l-552.039,1372.36l458.093,666.581c0,-0 378.533,-159.588 739.325,-135.58c360.792,24.007 593.369,137.334 671.788,244.177c78.419,106.844 164.724,210.247 300.325,386.161c135.601,175.913 313.734,282.975 180.005,454.25c-133.729,171.276 -223.451,399.844 -383.741,588.204c-160.29,188.36 -239.445,80.4 -330.598,56.13c-91.153,-24.271 -175.738,-349.782 -300.049,-360.513c-124.311,-10.73 -1369.95,-211.508 -1369.95,-211.508l-715.233,539.728l257.654,635.215l1553.03,557.957l1462.15,-301.887l1008.44,-1443.96l235.571,-2985.78l-571.35,-51.42c0,-0 -569.951,-85.766 -474.118,-299.85c95.833,-214.084 206.176,-447.316 379.878,-452.467c173.703,-5.151 451.678,-124.321 451.678,-124.321c0,-0 -141.217,-173.384 -330.017,-166.39c-188.8,6.994 -734.907,350.664 -892.825,534.194c-157.919,183.531 -383.954,-63.953 -585.278,-14.547c-201.323,49.407 -343.156,-50.095 -343.156,-50.095l-169.594,-111.456Z" style="fill:#d8cbc2;"/><path d="M3877.12,7782.07c-0,-0 365.988,14.198 504.66,122.018c138.671,107.821 246.904,106.294 467.689,81.144c220.785,-25.149 338.418,-280.808 383.829,-711.768c45.411,-430.96 748.448,-80.094 1104.23,-864.819c355.785,-784.725 -696.863,-742.489 -696.863,-742.489l-1529.83,792.605l-233.718,1323.31Z" style="fill:#0d0d10;"/><path d="M6489.78,9050.09c0,0 -255.916,-155.288 -623.368,-97.663c-367.453,57.624 -358.657,124.132 -527.596,430.964c-168.94,306.832 -151.589,619.087 -459.065,653.852c-307.477,34.766 -638.969,-11.074 -767.47,-89.578c-128.501,-78.505 -382.572,-351.834 -673.285,-51.299c-290.713,300.536 -274.368,615.594 -174.134,890.987c100.234,275.393 137.958,192.823 411.534,74.284c273.577,-118.54 356.552,-233.403 362.05,-85.235c5.498,148.168 -199.437,22.125 -129.032,278.941c70.404,256.816 437.124,71.43 716.962,-57.057c279.837,-128.487 887.18,-241.71 1021.32,-110.724c134.144,130.986 450.686,337.226 142.783,396.051c-307.902,58.825 -661.574,155.783 -920.14,162.897c-258.566,7.114 -359.766,7.094 -655.454,218.05c-295.688,210.955 -507.872,339.084 -740.229,279.006c-232.358,-60.078 -198.147,-168.428 -446.367,54.237c-248.22,222.664 -425.84,847.073 -425.84,847.073l206.737,274.011c-0,-0 756.869,-264.221 1083.28,-476.373c326.41,-212.152 682.59,-454.486 1266.21,-588.23c583.623,-133.744 960.862,-501.674 1273.05,-353.858c312.185,147.817 463.935,192.542 959.602,60.436c495.667,-132.106 1076.37,-487.556 1321.52,-593.187c245.149,-105.632 643.19,-282.836 1023.35,-133.209c380.162,149.627 767.596,247.391 1080.06,327.487c312.468,80.095 742.21,289.135 1006.43,262.653c264.219,-26.482 498.633,187.907 843.966,-76.884c345.333,-264.79 -110.883,-249.153 -348.363,-349.504c-237.481,-100.35 -832.078,-302.773 -1100.23,-407.835c-268.151,-105.061 -84.602,-411.241 -602.879,-288.133c-518.277,123.107 -565.325,102.057 -565.325,102.057c-0,0 193.238,-371.382 466.288,-398.87c273.051,-27.488 519.39,-183.389 768.696,-244.02c249.307,-60.631 760.408,-334.156 1166.17,-643.072c405.765,-308.917 453.78,-786.333 178.978,-865.645c-274.803,-79.313 -651.279,405.789 -977.267,535.059c-325.987,129.271 -774.515,419.299 -1021.67,547.064c-247.15,127.766 -445.955,208.465 -603.666,301.724c-157.712,93.259 -482.418,132.072 -323.413,-85.055c159.004,-217.127 479.636,-392.062 345.021,-506.195c-134.615,-114.132 -114.468,-239.52 -316.825,-185.463c-202.356,54.056 -455.722,457.896 -723.722,647.105c-268.001,189.209 -426.023,417.875 -426.023,417.875c-0,-0 -536.847,207.501 -594.269,32.948c-57.423,-174.554 -266.952,-259.461 -549.182,-108.961c-282.231,150.5 -503.508,256.761 -503.508,256.761c0,-0 -480.934,-131.266 -589.703,-221.517c-108.77,-90.25 -395.767,-411.766 95.946,-563.996c491.712,-152.229 667.972,-235.037 778.915,-473.034c110.943,-237.998 -250.979,-319.949 -730.864,3.075Z" style="fill:#0d0d10;"/><path d="M15382.7,5049.85c0,0 46.717,158.545 291.335,403.135c244.618,244.59 225.75,-68.288 273.483,40.398c47.733,108.685 -154.495,298.134 -213.456,486.497c-58.961,188.362 30.243,219.314 -20.193,332.087c-50.435,112.772 -586.175,243.028 -787.076,513.519c-200.901,270.491 -367.908,1286.98 -420.97,1574.51c-53.061,287.537 -76.226,1002.52 -76.226,1002.52l-639.263,399.216c-0,0 -56.059,81.917 -113.442,285.861c-57.383,203.945 71.988,204.715 147.407,393.178c75.42,188.463 214.36,587.718 606.99,679.494c392.631,91.777 539.755,205.736 775.753,326.307c235.999,120.571 836.561,-56.414 960.575,60.132c124.014,116.546 290.202,15.387 415.933,145.24c125.73,129.854 -56.774,328.512 994.585,183.168c1051.36,-145.345 576.352,362.158 1091.9,-337.256c515.544,-699.413 536.588,-1115.83 377.115,-1332.91c-159.474,-217.087 -246.894,-109.007 -478.619,10.993c-231.726,120.001 -738.724,528.126 -969.091,574.687c-230.366,46.56 -737.687,-188.866 -997.648,-326.91c-259.962,-138.045 -480.176,-212.782 -782.779,-202.736c-302.603,10.045 -225.44,-495.866 -26.239,-567.127c199.202,-71.26 422.293,-172.253 527.188,-145.653c104.895,26.6 144.473,163.295 428.46,164.935c175.777,1.014 51.332,112.153 435.114,115.28c383.782,3.126 274.827,58.266 433.134,43.522c158.308,-14.744 447.543,-215.423 192.177,-536.608c-255.366,-321.185 -647.146,-381.099 -709.164,-409.26c-62.017,-28.162 -413.402,-153.193 -174.735,-320.5c238.667,-167.308 329.303,-375.108 297.435,-457.386c-31.867,-82.278 -223.447,-238.848 -328.494,-313.63c-105.047,-74.782 -279.948,-150.907 -10.752,-505.752c269.196,-354.844 176.379,-403.948 68.875,-455.646c-107.504,-51.697 51.239,-260.046 105.077,-349.238c53.839,-89.191 390.471,-225.133 320.969,-496.018c-69.503,-270.886 -360.227,-206.176 -474.164,-80.41c-113.937,125.766 -373.461,74.755 -558.53,-24.063c-269.901,-144.114 -150.584,-189.293 68.603,-234.729c219.187,-45.436 239.127,-340.119 132.632,-408.554c-106.495,-68.435 -799.084,-375.583 -799.084,-375.583l-364.811,145.296Z" style="fill:#638294;"/><path d="M5586.98,6817.18c0,-0 -220.518,40.245 -303.14,322.011c-82.623,281.767 967.734,-166.238 1140.24,165.569c172.505,331.807 -173.458,803.364 175.671,756.626c349.13,-46.739 353.956,314.622 597.324,173.923c243.368,-140.699 389.557,-143.141 458.512,-192.212c68.954,-49.071 -533.507,-242.374 -218.101,-392.695c315.405,-150.321 234.594,-188.143 868.082,-244.463c393.218,-34.958 283.45,-315.728 815.692,-421.664c473.78,-94.3 822.465,190.765 935.813,187.732c456.91,-12.227 1050.67,-135.785 1405.59,-48.853c354.918,86.932 993.584,-28.739 1009.9,171.1c16.312,199.84 314.998,233.758 -974.961,980.863c-1289.96,747.104 191.395,153.948 492.197,243.498c300.803,89.551 851.794,206.755 -99.014,1114.91c-297.508,284.164 664.191,-114.579 1131.94,115.102c467.75,229.68 1018.28,119.707 1327.35,112.269c309.068,-7.438 419.723,6.255 442.71,-167.649c22.986,-173.905 258.01,-216.684 321.274,-458.607c63.264,-241.923 617.698,-536.756 826.757,-503.503c209.06,33.252 48.366,-321.24 -142.843,-212.226c-191.209,109.013 -273.416,158.347 -436.513,268.118c-163.097,109.771 -182.513,30.581 -338.992,51.263c-156.479,20.683 -159.288,180.026 -311.901,91.075c-152.613,-88.951 -67.534,-300.607 -8.625,-395.031c58.909,-94.424 -175.381,-288.308 115.755,-375.2c291.137,-86.891 206.502,-55.087 209.945,-139.825c3.443,-84.738 -264.382,24.704 -176.908,-404.011c23.151,-113.467 -261.313,-601.098 134.667,-718.894c275.057,-81.824 228.155,-87.179 426.282,-152.732c198.128,-65.553 225.434,172.288 325.371,224.259c99.936,51.971 93.996,-388.02 -56.848,-499.617c-150.844,-111.596 -368.973,-224.401 -537.868,-188.307c-168.894,36.094 -140.133,-135.067 -526.216,67.614c-386.082,202.68 -1029.79,-32.969 -1236.92,-75.894c-207.127,-42.926 -1451.09,99.334 -1622.58,219.251c-171.494,119.917 -1738.76,133.266 -1843.68,90.335c-104.92,-42.932 -829.073,-131.97 -997.114,-63.809c-168.042,68.161 -565.093,251.134 -832.597,237.814c-267.504,-13.321 -799.659,-233.511 -811.126,-342.11c-11.468,-108.599 -444.762,-126.558 -611.876,81.723c-167.115,208.28 -1000.6,407.285 -1073.24,322.242Z" style="fill:#d8cbc2;"/><path d="M12808.9,5393.61c-0,0 1228.93,518.411 1555.57,638.243c326.642,119.832 -145.838,-609.241 -376.159,-795.766c-230.321,-186.525 -1179.41,157.523 -1179.41,157.523Z" style="fill:#638294;"/></g></g></svg>