<?xml version="1.0" encoding="UTF-8" standalone="no"?><!DOCTYPE svg PUBLIC "-//W3C//DTD SVG 1.1//EN" "http://www.w3.org/Graphics/SVG/1.1/DTD/svg11.dtd"><svg width="100%" height="100%" viewBox="0 0 19500 14400" version="1.1" xmlns="http://www.w3.org/2000/svg" xmlns:xlink="http://www.w3.org/1999/xlink" xml:space="preserve" xmlns:serif="http://www.serif.com/" style="fill-rule:evenodd;clip-rule:evenodd;stroke-linejoin:round;stroke-miterlimit:1.5;"><g id="background"><g><path d="M4361.44,4100.76c-0,0 -119.992,843.154 8.747,1224.43c128.739,381.276 1129.83,23.047 1129.83,23.047l-1138.57,-1247.48Z"/><path d="M4413.75,4053.01l1138.57,1247.48c15.977,17.505 22.141,41.841 16.423,64.842c-5.719,23 -22.561,41.616 -44.876,49.601c-0,-0 -507.893,180.363 -858.187,154.015c-177.506,-13.351 -315.354,-81.129 -362.614,-221.094c-132.173,-391.447 -11.763,-1257.07 -11.763,-1257.07c3.863,-27.146 23.046,-49.624 49.247,-57.707c26.201,-8.082 54.714,-0.317 73.198,19.936Zm-52.318,47.75c-0,0 -119.992,843.154 8.747,1224.43c128.739,381.276 1129.83,23.047 1129.83,23.047l-1138.57,-1247.48Z" style="fill:#787878;fill-opacity:0.16;"/><path d="M4245.83,5584.34l58.223,127.05l-58.223,-468.638l307.83,-52.149l342.001,640.009l42.01,501.172l-505.767,11.03c-145.287,351.79 -458.735,1090.65 -582.904,1226.18c-164.136,179.151 -124.551,318.829 -716.773,68.306c-592.222,-250.522 -268.713,-635.067 -268.713,-635.067c0,0 878.82,-910.271 1103.91,-1171.62c225.089,-261.347 278.408,-246.272 278.408,-246.272Zm0,-341.588l0,341.588c0,0 -29.222,-238.655 0,-341.588Z"/><path d="M4131.53,5519.07c-6.11,-87.315 -11.323,-226.19 9.226,-302.795c1.694,-6.713 4.021,-13.207 6.923,-19.402c5.683,-12.18 13.486,-22.973 22.852,-32.016c11.705,-11.33 26.042,-20.109 42.224,-25.277c5.472,-1.757 11.109,-3.087 16.863,-3.957l305.946,-51.83c45.928,-7.78 91.688,14.67 113.642,55.754l342.002,640.01c6.953,13.012 11.175,27.307 12.407,42.008l42.009,501.173c2.497,29.789 -7.426,59.286 -27.421,81.509c-19.995,22.223 -48.285,35.195 -78.171,35.847l-435.155,9.49c-158.651,380.313 -455.672,1061.26 -576,1192.59c-49.694,54.239 -80.968,104.825 -116.421,142.338c-36.518,38.638 -76.71,67.104 -129.505,83.319c-96.208,29.548 -256.385,11.606 -592.931,-130.76c-285.828,-120.911 -386.273,-276.586 -414.225,-409.199c-45.251,-214.685 104.819,-395.383 104.819,-395.383c1.59,-1.89 3.245,-3.726 4.961,-5.504c0,0 875.533,-906.722 1099.76,-1167.07c121.488,-141.058 199.233,-208.194 246.194,-240.847Zm114.299,-276.316l58.223,468.638l-58.223,-127.05c0,0 -53.319,-15.075 -278.408,246.272c-225.088,261.347 -1103.91,1171.62 -1103.91,1171.62c0,0 -323.509,384.545 268.713,635.067c592.222,250.523 552.637,110.845 716.773,-68.306c124.169,-135.528 437.617,-874.387 582.904,-1226.18l505.767,-11.03l-42.01,-501.172l-342.001,-640.009l-307.83,52.149Zm0,341.588l0,-341.588c-29.222,102.933 0,341.588 0,341.588Z" style="fill-opacity:0.29;"/><path d="M9792.39,10567.7l-651.531,1008.97l2034.88,810.151c0,0 816.164,973.675 2442.58,755.077c1626.42,-218.597 2700.66,-1352.87 2700.66,-1352.87c0,-0 1995.4,-1563.5 2440.04,-3537.6c444.633,-1974.09 -3298.52,2194 -3298.52,2194l-5668.11,122.266Z"/><path d="M9790.05,10459.4c0,0 5621.46,-121.26 5621.46,-121.26c247.982,-272.888 1894,-2066.5 2776.87,-2577.15c136.056,-78.694 256.513,-127.969 353.41,-143.133c86.368,-13.517 158.619,-1.464 215.326,31.079c60.514,34.728 107.483,93.27 130.888,184.243c24.893,96.756 21.889,241.429 -23.301,442.063c-437.609,1942.91 -2350.16,3496.26 -2472.73,3594.16c-86.768,89.139 -1163.2,1165.36 -2759.22,1379.87c-1545.82,207.765 -2386.58,-625.116 -2520.89,-771.271l-2011.08,-800.675c-30.102,-11.985 -53.26,-36.814 -63.122,-67.678c-9.861,-30.863 -5.39,-64.52 12.186,-91.739l651.531,-1008.97c19.504,-30.205 52.724,-48.765 88.671,-49.541Zm2.337,108.308l-651.531,1008.97l2034.88,810.151c0,0 816.164,973.675 2442.58,755.077c1626.42,-218.597 2700.66,-1352.87 2700.66,-1352.87c0,-0 1995.4,-1563.5 2440.04,-3537.6c444.633,-1974.09 -3298.52,2194 -3298.52,2194l-5668.11,122.266Z" style="fill-opacity:0.21;"/><path d="M4655.3,6287.27c0,0 5089.48,5048.86 5367.58,5158.03c278.102,109.174 625.067,344.681 977.492,574.784c368.243,240.431 912.499,917.57 852.745,1423.49c-59.754,505.92 -361.73,406.58 -842.661,186.395c-480.932,-220.186 -1184.42,-1141.21 -1184.42,-1141.21c-0,0 -4777.84,-4441.21 -5050.17,-4667.05c-272.334,-225.841 -746.97,-435.775 -975.847,-543.938c-228.877,-108.164 -343.232,-339.144 -343.232,-339.144c-0,-0 -104.661,-576.901 -190.74,-825.975c-86.08,-249.073 52.511,-287.377 165.418,-334.902c476.735,-200.669 1223.83,509.513 1223.83,509.513Zm5783.77,6224.23c0,-0 234.649,713.477 751.484,728.306c226.23,6.491 179.485,-133.828 141.46,-250.773c-38.026,-116.946 -892.944,-477.533 -892.944,-477.533Z"/><path d="M4705.19,6236.98c-0,0 3256.18,3230.21 4700.99,4578.17c251.311,234.463 447.435,411.688 561.478,504.329c40.498,32.899 67.366,54.494 81.104,59.887c281.64,110.562 633.424,348.377 990.332,581.407c228.32,149.073 522.686,460.107 707.857,798.409c127.112,232.23 201.941,477.37 176.508,692.7c-20.585,174.284 -70.758,284.228 -139.447,348.427c-70.296,65.701 -161.682,89.418 -274.303,77.705c-139.895,-14.55 -318.128,-87.217 -528.741,-183.642c-470.114,-215.233 -1150.58,-1084.4 -1207.41,-1157.69c-159.914,-148.643 -4775.45,-4438.65 -5042.91,-4660.45c-268.022,-222.264 -735.645,-427.969 -960.897,-534.42c-250.957,-118.599 -376.447,-371.758 -376.447,-371.758c-2.94,-5.94 -5.033,-12.263 -6.216,-18.784c0,-0 -103.014,-569.593 -187.992,-815.481c-42.996,-124.41 -35.568,-206.951 -8.796,-264.72c39.711,-85.686 130.033,-123.396 213.681,-158.606c208.241,-87.653 464.626,-22.587 696.234,94.76c327.218,165.787 603.884,428.7 603.884,428.7c0.364,0.347 0.726,0.698 1.083,1.052Zm-49.886,50.287c0,0 -747.099,-710.182 -1223.83,-509.513c-112.907,47.525 -251.498,85.829 -165.418,334.902c86.079,249.074 190.74,825.975 190.74,825.975c-0,-0 114.355,230.98 343.232,339.144c228.877,108.163 703.513,318.097 975.847,543.938c272.335,225.841 5050.17,4667.05 5050.17,4667.05c-0,0 703.484,921.024 1184.42,1141.21c480.931,220.185 782.907,319.525 842.661,-186.395c59.754,-505.919 -484.502,-1183.06 -852.745,-1423.49c-352.425,-230.103 -699.39,-465.61 -977.492,-574.784c-278.101,-109.173 -5367.58,-5158.03 -5367.58,-5158.03Zm5783.77,6224.23c0,-0 854.918,360.587 892.944,477.533c38.025,116.945 84.77,257.264 -141.46,250.773c-516.835,-14.829 -751.484,-728.306 -751.484,-728.306Zm827.08,504.034c-3.192,-3.292 -14.753,-15.052 -24.268,-22.606c-35.504,-28.186 -89.922,-61.329 -153.777,-96.621c-157.494,-87.045 -370.381,-185.018 -514.996,-249.26c41.263,83.935 102.039,189.117 183.387,283.841c107.141,124.758 250.7,232.795 436.089,238.114c28.42,0.815 51.39,-0.881 69.742,-5.42c12.732,-3.149 22.216,-6.113 26.828,-13.409c7.421,-11.742 4.342,-27.118 1.831,-43.337c-4.586,-29.624 -15.017,-61.189 -24.836,-91.302Z" style="fill:#787878;fill-opacity:0.16;"/></g><path d="M9893.71,11190.3c-0,-0 1987.96,1289.25 2862.01,1420.95c487.483,73.455 2319.05,905.089 5252.17,-2891.94" style="fill:none;stroke:#333;stroke-opacity:0.27;stroke-width:183.33px;"/><path d="M4656.06,6281.6l5193.49,4893.81c1.934,1.822 3.8,3.715 5.595,5.675c0,-0 339.499,370.481 800.297,627.986c353.718,197.665 770.177,694.889 887.564,1051.72c65.321,198.565 36.937,360.496 -77.868,447.552c-146.572,111.145 -325.457,84.681 -500.932,-22.014c-209.052,-127.11 -414.967,-368.921 -524.149,-492.721c-163.97,-185.921 -717.383,-1184.01 -794.786,-1324.16c-288.608,-258.325 -5035.77,-4507.11 -5187.3,-4624.96c-110.581,-86.007 -749.45,-390.96 -1004.1,-637.032c-58.622,-56.648 -99.285,-112.405 -119.167,-162.246c-20.567,-51.555 -22.422,-100.263 -8.434,-144.767c14.194,-45.159 45.45,-88.929 104.273,-124.3c128.705,-77.392 303.295,-64.761 484.232,6.959c354.836,140.651 740.77,498.022 740.77,498.022c0.17,0.158 0.34,0.318 0.51,0.478Zm-74.294,78.844c-0,-0 -750.989,-698.554 -1095.39,-491.462c-344.402,207.093 881.661,768.31 1038.11,889.991c156.447,121.681 5206.76,4642.03 5206.76,4642.03c-0,0 616.318,1123.94 790.065,1320.95c173.748,197.008 600.496,710.784 878.375,500.07c277.878,-210.714 -320.668,-1052.15 -797.086,-1318.38c-476.419,-266.234 -827.34,-649.386 -827.34,-649.386l-5193.49,-4893.81Z" style="fill:#282727;"/></g></svg>