<?xml version="1.0" encoding="UTF-8" standalone="no"?><!DOCTYPE svg PUBLIC "-//W3C//DTD SVG 1.1//EN" "http://www.w3.org/Graphics/SVG/1.1/DTD/svg11.dtd"><svg width="100%" height="100%" viewBox="0 0 19500 14400" version="1.1" xmlns="http://www.w3.org/2000/svg" xmlns:xlink="http://www.w3.org/1999/xlink" xml:space="preserve" xmlns:serif="http://www.serif.com/" style="fill-rule:evenodd;clip-rule:evenodd;stroke-linejoin:round;stroke-miterlimit:2;"><g id="background"><g><path d="M4171.21,4608.45c0,0 -105.988,744.758 7.727,1081.54c113.715,336.781 997.976,20.357 997.976,20.357l-1005.7,-1101.9Z"/><path d="M4223.53,4560.7l1005.7,1101.9c15.977,17.506 22.141,41.842 16.422,64.842c-5.718,23 -22.561,41.616 -44.875,49.601c-0,0 -450.648,159.879 -761.443,136.502c-160.583,-12.078 -284.755,-74.269 -327.509,-200.891c-117.149,-346.953 -10.742,-1114.18 -10.742,-1114.18c3.863,-27.146 23.046,-49.624 49.247,-57.706c26.201,-8.082 54.714,-0.317 73.198,19.935Zm-52.319,47.751c0,0 -105.988,744.758 7.727,1081.54c113.715,336.781 997.976,20.357 997.976,20.357l-1005.7,-1101.9Z" style="fill:#787878;fill-opacity:0.16;"/><path d="M4069.1,5918.9l51.429,112.223l-51.429,-413.948l271.907,-46.064l302.09,565.321l37.107,442.686l-446.745,9.743c-128.332,310.736 -405.2,963.371 -514.879,1083.08c-144.982,158.244 -110.016,281.622 -633.126,60.335c-523.111,-221.287 -237.355,-560.955 -237.355,-560.955c0,-0 776.263,-804.044 975.084,-1034.89c198.82,-230.848 245.917,-217.532 245.917,-217.532Zm0,-301.725l0,301.725c0,-0 -25.812,-210.804 0,-301.725Z"/><path d="M3955.14,5854.97c-5.146,-78.31 -8.904,-197.295 8.84,-264.098c1.698,-6.778 4.04,-13.332 6.969,-19.583c5.682,-12.18 13.485,-22.973 22.851,-32.016c11.705,-11.331 26.042,-20.109 42.224,-25.277c5.472,-1.758 11.109,-3.087 16.863,-3.957l270.023,-45.744c45.928,-7.781 91.688,14.669 113.642,55.754l302.09,565.321c6.953,13.012 11.176,27.307 12.408,42.008l37.106,442.686c2.497,29.79 -7.426,59.287 -27.421,81.51c-19.995,22.222 -48.284,35.195 -78.171,35.847l-376.156,8.203c-141.424,338.46 -402.068,933.927 -507.952,1049.5c-43.948,47.968 -71.615,92.697 -102.969,125.871c-33.785,35.747 -71.024,61.996 -119.868,76.998c-86.332,26.515 -230.373,11.81 -532.373,-115.943c-258.191,-109.219 -348.081,-250.691 -373.331,-370.482c-41.196,-195.445 95.283,-359.988 95.283,-359.988c1.59,-1.89 3.245,-3.726 4.961,-5.503c0,-0 772.976,-800.495 970.936,-1030.34c103.328,-119.973 171.422,-180.058 214.045,-210.76Zm113.958,-237.8l51.429,413.948l-51.429,-112.223c0,-0 -47.097,-13.316 -245.917,217.532c-198.821,230.848 -975.084,1034.89 -975.084,1034.89c0,-0 -285.756,339.668 237.355,560.955c523.11,221.287 488.144,97.909 633.126,-60.335c109.679,-119.712 386.547,-772.347 514.879,-1083.08l446.745,-9.743l-37.107,-442.686l-302.09,-565.321l-271.907,46.064Zm0,301.725l0,-301.725c-25.812,90.921 0,301.725 0,301.725Z" style="fill-opacity:0.29;"/><path d="M8968.38,10320.7l-575.498,891.224l1797.41,715.608c0,-0 720.919,860.047 2157.54,666.96c1436.62,-193.088 2385.49,-1194.99 2385.49,-1194.99c0,-0 1762.54,-1381.05 2155.29,-3124.76c392.745,-1743.72 -2913.59,1937.97 -2913.59,1937.97l-5006.64,107.998Z"/><path d="M8966.05,10212.4l4960.02,-106.993c231.411,-254.418 1675.66,-1825.69 2452.17,-2274.82c121.832,-70.467 229.776,-114.398 316.543,-127.977c79.616,-12.46 146.171,-1.021 198.445,28.978c56.08,32.184 99.873,86.248 121.564,170.557c22.32,86.758 20.028,216.502 -20.492,396.402c-386.579,1716.34 -2073.12,3089.45 -2187.99,3181.33c-81.467,83.548 -1033.83,1032.45 -2444.05,1221.99c-1364.14,183.345 -2109.66,-546.696 -2235.74,-683.116l-1773.7,-706.17c-30.102,-11.985 -53.26,-36.814 -63.122,-67.678c-9.861,-30.863 -5.39,-64.52 12.186,-91.739l575.498,-891.225c19.504,-30.205 52.724,-48.765 88.672,-49.54Zm2.336,108.308l-575.498,891.224l1797.41,715.608c0,-0 720.919,860.047 2157.54,666.96c1436.62,-193.088 2385.49,-1194.99 2385.49,-1194.99c0,-0 1762.54,-1381.05 2155.29,-3124.76c392.745,-1743.72 -2913.59,1937.97 -2913.59,1937.97l-5006.64,107.998Z" style="fill-opacity:0.21;"/><path d="M4430.79,6539.8c0,-0 4495.54,4459.66 4741.19,4556.1c245.647,96.433 552.122,304.456 863.419,507.706c325.27,212.373 806.012,810.491 753.231,1257.37c-52.781,446.879 -319.516,359.133 -744.323,164.642c-424.808,-194.49 -1046.2,-1008.03 -1046.2,-1008.03c0,-0 -4220.27,-3922.92 -4460.82,-4122.41c-240.553,-199.485 -659.8,-384.92 -861.967,-480.461c-202.167,-95.541 -303.177,-299.566 -303.177,-299.566c-0,0 -92.447,-509.577 -168.481,-729.584c-76.034,-220.007 46.383,-253.841 146.113,-295.82c421.102,-177.251 1081.02,450.054 1081.02,450.054Zm5108.81,5497.86c-0,-0 207.265,630.215 663.786,643.313c199.83,5.734 158.54,-118.21 124.952,-221.508c-33.588,-103.298 -788.738,-421.805 -788.738,-421.805Z"/><path d="M4480.68,6489.51c-0,-0 2876.06,2853.13 4152.21,4043.73c221.795,206.926 394.879,363.342 495.527,445.103c34.759,28.236 57.657,46.99 69.448,51.619c249.185,97.822 560.479,308.153 876.26,514.331c202.536,132.238 463.723,408.09 627.982,708.188c113.171,206.76 179.512,425.087 156.868,616.8c-18.493,156.575 -64.03,255.161 -125.739,312.837c-63.78,59.612 -146.608,81.446 -248.791,70.819c-124.238,-12.922 -282.582,-77.284 -469.624,-162.917c-415.172,-190.079 -1015.81,-955.772 -1069.17,-1024.5c-149.741,-139.188 -4217.6,-3920.14 -4453.57,-4115.82c-236.24,-195.909 -648.473,-377.116 -847.016,-470.944c-224.248,-105.976 -336.392,-332.18 -336.392,-332.18c-2.94,-5.94 -5.033,-12.263 -6.216,-18.784c0,0 -90.8,-502.269 -165.733,-719.091c-38.979,-112.786 -31.728,-187.631 -7.456,-240.003c35.959,-77.592 117.29,-112.356 193.037,-144.239c185.988,-78.287 415.068,-20.861 621.927,83.946c290.092,146.977 535.37,380.054 535.37,380.054c0.365,0.347 0.726,0.697 1.084,1.052Zm-49.886,50.287c0,-0 -659.913,-627.305 -1081.02,-450.054c-99.73,41.979 -222.147,75.813 -146.113,295.82c76.034,220.007 168.481,729.584 168.481,729.584c-0,0 101.01,204.025 303.177,299.566c202.167,95.541 621.414,280.976 861.967,480.461c240.554,199.486 4460.82,4122.41 4460.82,4122.41c0,-0 621.389,813.541 1046.2,1008.03c424.807,194.491 691.542,282.237 744.323,-164.642c52.781,-446.879 -427.961,-1045 -753.231,-1257.37c-311.297,-203.25 -617.772,-411.273 -863.419,-507.706c-245.647,-96.433 -4741.19,-4556.1 -4741.19,-4556.1Zm5108.81,5497.86c-0,-0 755.15,318.507 788.738,421.805c33.588,103.298 74.878,227.242 -124.952,221.508c-456.521,-13.098 -663.786,-643.313 -663.786,-643.313Zm723.246,449.444c-3.99,-3.87 -16.832,-16.113 -28.091,-24.507c-31.128,-23.204 -75.107,-49.751 -125.861,-77.802c-131.443,-72.647 -306.627,-153.92 -433.164,-210.46c35.733,69.783 85.675,152.873 150.523,228.385c93.199,108.524 217.9,202.822 379.164,207.449c24.197,0.694 43.757,-0.684 59.382,-4.549c8.672,-2.144 15.553,-3.267 18.694,-8.236c5.578,-8.825 2.323,-20.408 0.436,-32.598c-3.902,-25.203 -12.704,-52.012 -21.083,-77.682Z" style="fill:#787878;fill-opacity:0.16;"/></g><path d="M3749.78,5933.99c-1371.15,-164.976 -280.471,787.486 3408.6,4624.31c1878.36,1953.59 4134.28,2772.53 5108.45,2768.18c1024.47,-4.581 2338.39,-586.507 3118.46,-1778.32c1241.25,-1896.4 2823.8,-4720.3 600.542,-5489.97c-3374.18,-1168.11 -11409.5,-24.748 -12236.1,-124.198Z" style="fill-opacity:0.18;"/></g></svg>