<?xml version="1.0" encoding="UTF-8" standalone="no"?><!DOCTYPE svg PUBLIC "-//W3C//DTD SVG 1.1//EN" "http://www.w3.org/Graphics/SVG/1.1/DTD/svg11.dtd"><svg width="100%" height="100%" viewBox="0 0 19500 14400" version="1.1" xmlns="http://www.w3.org/2000/svg" xmlns:xlink="http://www.w3.org/1999/xlink" xml:space="preserve" xmlns:serif="http://www.serif.com/" style="fill-rule:evenodd;clip-rule:evenodd;stroke-linejoin:round;stroke-miterlimit:2;"><g id="background"><g><path d="M9235.5,1507.35c1198.59,25.244 1629.44,580.421 1629.44,580.421c0,0 3272.65,2030.09 5041.27,2990c1768.62,959.917 1561.01,2193.93 1345.94,2850.29c-215.077,656.357 -2006.27,3204.81 -3277.43,4196.55c-1271.16,991.74 -2730.95,623.567 -3112.66,495.037c-381.706,-128.53 -1240.79,-842.514 -1240.79,-842.514c0,0 -5124.92,-5093.25 -5254.09,-5391.57c-129.165,-298.324 -253.628,-1117.76 -111.713,-2118.48c141.915,-1000.72 2017.72,-2049.12 3074.77,-2374.12c1057.05,-325.007 1905.26,-385.61 1905.26,-385.61Zm3.168,116.763l-0.002,0c-71.501,5.629 -878.956,74.376 -1874.14,380.362c-623.024,191.558 -1535.57,638.97 -2196.05,1178.56c-422.034,344.785 -744.05,723.548 -797.497,1100.43c-137.695,970.957 -22.06,1766.29 103.265,2055.74c5.77,13.326 26.986,37.969 57.908,75.409c95.927,116.144 277.081,313.727 515.802,566.045c1350.85,1427.8 4530.02,4588.94 4651.95,4710.14c63.077,52.493 843.648,698.494 1199.39,818.28c368.316,124.022 1777.09,480.497 3003.66,-476.453c1254.94,-979.088 3026,-3492.91 3238.33,-4140.89c102,-311.277 204.364,-759.415 69.4,-1243.66c-136.114,-488.376 -514.2,-1008.64 -1360.12,-1467.76c-1770.66,-961.024 -5047.11,-2993.4 -5047.11,-2993.4c-11.782,-7.309 -22.168,-16.659 -30.668,-27.613c-0,-0 -408.796,-509.819 -1534.11,-535.186Z" style="fill-opacity:0.35;"/><path d="M9235.5,1507.35c0,-0 -848.211,60.603 -1905.26,385.61c-1057.05,325.007 -2932.86,1373.4 -3074.77,2374.12c-141.915,1000.72 -17.452,1820.16 111.713,2118.48c129.166,298.324 5254.09,5391.57 5254.09,5391.57c0,0 859.088,713.984 1240.79,842.514c381.707,128.53 1841.5,496.703 3112.66,-495.037c1271.16,-991.739 3062.36,-3540.19 3277.43,-4196.55c215.076,-656.358 422.681,-1890.37 -1345.94,-2850.29c-1768.62,-959.916 -5041.27,-2990 -5041.27,-2990c0,0 -430.852,-555.177 -1629.44,-580.421Z"/><path d="M4171.21,4608.45c0,0 -105.988,744.758 7.727,1081.54c113.715,336.781 997.976,20.357 997.976,20.357l-1005.7,-1101.9Z"/><path d="M4069.1,5918.9l51.429,112.223l-51.429,-413.948l271.907,-46.064l302.09,565.321l37.107,442.686l-446.745,9.743c-128.332,310.736 -405.2,963.371 -514.879,1083.08c-144.982,158.244 -110.016,281.622 -633.126,60.335c-523.111,-221.287 -237.355,-560.955 -237.355,-560.955c0,-0 776.263,-804.044 975.084,-1034.89c198.82,-230.848 245.917,-217.532 245.917,-217.532Zm0,-301.725l0,301.725c0,-0 -25.812,-210.804 0,-301.725Z"/><path d="M8968.38,10320.7l-575.498,891.224l1797.41,715.608c0,-0 720.919,860.047 2157.54,666.96c1436.62,-193.088 2385.49,-1194.99 2385.49,-1194.99c0,-0 1762.54,-1381.05 2155.29,-3124.76c392.745,-1743.72 -2913.59,1937.97 -2913.59,1937.97l-5006.64,107.998Z"/><path d="M4430.79,6539.8c0,-0 4495.54,4459.66 4741.19,4556.1c245.647,96.433 552.122,304.456 863.419,507.706c325.27,212.373 806.012,810.491 753.231,1257.37c-52.781,446.879 -319.516,359.133 -744.323,164.642c-424.808,-194.49 -1046.2,-1008.03 -1046.2,-1008.03c0,-0 -4220.27,-3922.92 -4460.82,-4122.41c-240.553,-199.485 -659.8,-384.92 -861.967,-480.461c-202.167,-95.541 -303.177,-299.566 -303.177,-299.566c-0,0 -92.447,-509.577 -168.481,-729.584c-76.034,-220.007 46.383,-253.841 146.113,-295.82c421.102,-177.251 1081.02,450.054 1081.02,450.054Zm5108.81,5497.86c-0,-0 207.265,630.215 663.786,643.313c199.83,5.734 158.54,-118.21 124.952,-221.508c-33.588,-103.298 -788.738,-421.805 -788.738,-421.805Z"/></g><path d="M9057.88,10870.6c-0,-0 1755.97,1138.8 2528.02,1255.13c430.594,64.883 2048.42,799.467 4639.25,-2554.45" style="fill:none;"/><path d="M3780.14,6425.96c-1348.63,-164.977 -387.958,787.485 2777.41,4624.31c1611.71,1953.59 3755.85,2772.53 4730.61,2768.18c1025.1,-4.582 2418.45,-586.507 3361.19,-1778.32c1500.1,-1896.4 3468.1,-4720.3 1349.89,-5489.97c-3214.74,-1168.11 -11406.1,-24.749 -12219.1,-124.198Z" style="fill-opacity:0.18;"/><path d="M4485.85,6477.07l4587.42,4322.7c3.124,2.944 6.139,6.002 9.038,9.167c0,0 291.519,317.971 687.106,539.035c327.245,182.872 712.033,643.308 820.635,973.435c70.858,215.397 28.339,388.866 -96.198,483.302c-124.566,94.458 -268.252,101.358 -416.646,42.962c-228.483,-89.911 -476.288,-372.387 -596.211,-508.364c-142.679,-161.781 -615.904,-1010.53 -705.389,-1171.9c-337.476,-302.076 -4435.57,-3969.97 -4567.8,-4072.82c-98.458,-76.578 -666.61,-349.166 -893.341,-568.262c-102.162,-98.722 -146.329,-201.698 -144.767,-281.283c1.625,-82.83 36.759,-163.576 138.404,-224.696c132.301,-79.554 311.822,-73.338 497.817,0.387c325.078,128.855 679.113,455.56 679.113,455.56c0.276,0.257 0.551,0.514 0.825,0.772Zm-120.014,127.364c-0,0 -663.349,-617.033 -967.56,-434.108c-304.211,182.925 778.772,678.648 916.963,786.129c138.19,107.482 4599.13,4100.31 4599.13,4100.31c0,0 544.395,992.776 697.866,1166.79c153.471,174.018 530.419,627.836 775.869,441.712c245.451,-186.124 -283.246,-929.364 -704.067,-1164.53c-420.821,-235.165 -730.789,-573.603 -730.789,-573.603l-4587.42,-4322.7Z" style="fill:#202020;"/></g></svg>