<?xml version="1.0" encoding="UTF-8" standalone="no"?><!DOCTYPE svg PUBLIC "-//W3C//DTD SVG 1.1//EN" "http://www.w3.org/Graphics/SVG/1.1/DTD/svg11.dtd"><svg width="100%" height="100%" viewBox="0 0 19500 14400" version="1.1" xmlns="http://www.w3.org/2000/svg" xmlns:xlink="http://www.w3.org/1999/xlink" xml:space="preserve" xmlns:serif="http://www.serif.com/" style="fill-rule:evenodd;clip-rule:evenodd;stroke-linecap:round;stroke-linejoin:round;stroke-miterlimit:1.5;"><g id="overlay"><g id="binding-and-logo" serif:id="binding and logo"><g id="logo"><path d="M6420.04,6055.07l671.611,542.869c-0,0 2352.07,-1615.72 2413.11,-1690.64c61.049,-74.926 -661.473,-530.91 -751.902,-569.666c-90.429,-38.755 -2332.82,1717.44 -2332.82,1717.44Z"/><path d="M6355.81,5973.06c0,0 1438.57,-1126.57 2060.39,-1557.33c134.103,-92.898 233.88,-154.33 278.076,-171.478c47.974,-18.615 82.637,-9.645 99.613,-2.37c75.663,32.427 574.601,343.885 738.389,507.394c46.163,46.084 70.102,88.814 76.677,116.589c10.399,43.925 -0.675,79.282 -23.442,107.225c-13.194,16.194 -123.54,101.485 -294.654,223.592c-633.839,452.309 -2140.24,1487.11 -2140.24,1487.11c-37.991,26.098 -88.616,24.126 -124.462,-4.849l-671.611,-542.869c-24.685,-19.954 -38.926,-50.073 -38.682,-81.813c0.245,-31.74 14.947,-61.637 39.936,-81.208Zm64.228,82.01l671.611,542.869c-0,0 2352.07,-1615.72 2413.11,-1690.64c61.049,-74.926 -661.473,-530.91 -751.902,-569.666c-90.429,-38.755 -2332.82,1717.44 -2332.82,1717.44Z" style="fill-opacity:0.25;"/><g><path d="M7608.75,5451.47l62.454,-44.246l163.028,118.632l-21.892,-218.621l74.747,-52.955l23.44,235.989l345.881,18.632l-74.748,52.956l-321.713,-17.289l170.742,124.245l-62.454,44.246l-359.485,-261.589Z" style="fill:#fff;fill-rule:nonzero;"/><path d="M8434.36,5393.91c-34.423,24.387 -73.286,40.718 -116.589,48.992c-43.302,8.275 -87.132,7.69 -131.49,-1.753c-44.357,-9.442 -84.879,-27.512 -121.564,-54.207c-36.686,-26.695 -61.307,-56.029 -73.864,-88.001c-12.557,-31.972 -12.87,-63.51 -0.939,-94.612c11.932,-31.103 35.109,-58.848 69.532,-83.235c34.096,-24.156 72.88,-40.308 116.354,-48.457c43.474,-8.15 87.39,-7.503 131.747,1.94c44.358,9.442 84.879,27.512 121.565,54.207c36.686,26.695 61.221,55.967 73.607,87.814c12.385,31.848 12.612,63.323 0.681,94.425c-11.931,31.103 -34.945,58.732 -69.04,82.887Zm-59.143,-43.037c21.966,-15.562 36.735,-33.534 44.309,-53.918c7.575,-20.384 7.003,-41.398 -1.713,-63.043c-8.717,-21.644 -25.932,-41.822 -51.646,-60.534c-25.372,-18.462 -52.989,-31.025 -82.851,-37.689c-29.862,-6.664 -59.123,-7.475 -87.783,-2.435c-28.66,5.04 -54.137,15.457 -76.43,31.251c-22.293,15.793 -37.223,34.003 -44.789,54.627c-7.567,20.625 -6.91,41.702 1.97,63.23c8.881,21.528 26.007,41.524 51.378,59.986c25.714,18.712 53.585,31.341 83.611,37.889c30.026,6.548 59.365,7.181 88.018,1.9c28.652,-5.281 53.961,-15.703 75.926,-31.264Z" style="fill:#fff;fill-rule:nonzero;"/><path d="M8291.33,4967.9l60.979,-43.201l378.386,110.084l-148.242,-273.131l60.979,-43.201l359.485,261.59l-59.012,41.807l-233.485,-169.902l131.199,242.367l-29.506,20.904l-335.772,-97.437l233.486,169.902l-59.012,41.807l-359.485,-261.589Z" style="fill:#fff;fill-rule:nonzero;"/><path d="M8712.19,4669.74l62.454,-44.246l359.485,261.589l-62.454,44.246l-359.485,-261.589Z" style="fill:#fff;fill-rule:nonzero;"/></g><path d="M7167.19,5467.47l-747.153,536.074l666.197,520.06l736.819,-511.989l-655.863,-544.145Z" style="fill:#fff;"/><path d="M6965.25,6087.32l-34.27,-227.469c-2.124,-14.097 4.944,-28.421 18.7,-37.897c13.755,-9.475 32.255,-12.762 48.945,-8.698l269.816,65.71l66.145,-184.793c-0,-0 108.922,148.931 166.628,227.838c20.115,27.504 11.781,63.701 -19.641,85.308l-396.987,272.982c-31.422,21.607 -76.576,22.19 -106.419,1.375c-85.615,-59.715 -247.21,-172.427 -247.21,-172.427l234.293,-21.929Z"/></g><path d="M6005.76,6857.15c91.928,57.174 -103.251,-544.863 599.194,-977.864c840.486,-518.09 4372.83,-3260.64 4372.83,-3260.64c0,0 402.047,-277.685 550.202,-235.189c148.156,42.495 -548.947,-296.73 -610.955,-296.73c-62.009,-0 -110.607,-61.32 -412.947,176.576c-302.341,237.896 -4725.86,3427.62 -4725.86,3427.62c0,0 -334.663,287.015 -276.454,686.474c26.846,184.229 398.552,414.177 503.991,479.753Z"/><path d="M5955.14,6938.53c-77.514,-48.209 -291.456,-181.785 -422.873,-323.488c-68.869,-74.26 -114.995,-152.85 -125.338,-223.826c-65.478,-449.344 308.899,-773.037 308.899,-773.037c2.041,-1.75 4.155,-3.414 6.336,-4.987c0,0 4420.52,-3187.47 4722.65,-3425.2c168.67,-132.717 268.269,-179.088 332.64,-195.163c69.211,-17.284 102.374,-1.933 139.568,-1.933c14.586,0 54.304,8.647 107.783,29.841c149.681,59.319 467.036,213.252 553.111,266.816c42.626,26.526 57.704,56.625 60.96,65.875c7.273,20.662 6.661,39.088 2.904,54.85c-5.624,23.593 -18.585,44.505 -42.995,59.732c-8.586,5.355 -40.418,23.864 -97.23,7.569c-10.143,-2.91 -22.811,-0.268 -37.158,2.477c-26.149,5.005 -55.127,14.587 -85.256,26.542c-150.293,59.633 -323.777,177.065 -344.792,191.453c-99.502,77.214 -3549.2,2753.24 -4379.11,3264.82c-520.303,320.724 -506.279,743.08 -524.407,871.504c-11.185,79.238 -55.035,111.085 -83.252,119.746c-24.535,7.531 -55.902,9.133 -92.434,-13.587Zm50.612,-81.379c91.928,57.174 -103.251,-544.863 599.194,-977.864c840.486,-518.09 4372.83,-3260.64 4372.83,-3260.64c0,0 402.047,-277.685 550.202,-235.189c148.156,42.495 -548.947,-296.73 -610.955,-296.73c-62.009,-0 -110.607,-61.32 -412.947,176.576c-302.341,237.896 -4725.86,3427.62 -4725.86,3427.62c0,0 -334.663,287.015 -276.454,686.474c26.846,184.229 398.552,414.177 503.991,479.753Z" style="fill-opacity:0.16;"/><path d="M5912.96,6801.7c1.357,19.5 -13.373,36.433 -32.872,37.79c-19.5,1.357 -36.433,-13.372 -37.79,-32.872c-0,-0 -1.032,-14.458 -0.983,-39.985c0.037,-19.547 15.937,-35.387 35.484,-35.35c19.547,0.038 35.387,15.938 35.349,35.485c-0.042,22.301 0.812,34.932 0.812,34.932Zm9.693,-179.546c-2.678,19.362 -20.572,32.908 -39.935,30.23c-19.362,-2.678 -32.908,-20.572 -30.23,-39.935c3.313,-23.956 7.568,-49.461 13.014,-76.106c3.914,-19.151 22.64,-31.521 41.791,-27.607c19.151,3.914 31.522,22.64 27.608,41.791c-5.126,25.076 -9.129,49.08 -12.248,71.627Zm50.81,-211.279c-6.523,18.427 -26.779,28.09 -45.205,21.567c-18.427,-6.523 -28.09,-26.779 -21.567,-45.206c8.444,-23.853 17.958,-47.979 28.67,-72.163c7.917,-17.872 28.854,-25.954 46.726,-18.038c17.872,7.917 25.955,28.854 18.038,46.726c-9.963,22.492 -18.808,44.931 -26.662,67.114Zm95.576,-193.222c-10.827,16.275 -32.83,20.699 -49.105,9.872c-16.274,-10.826 -20.698,-32.829 -9.871,-49.104c14.207,-21.357 29.591,-42.426 46.246,-63.051c12.281,-15.207 34.598,-17.584 49.806,-5.303c15.207,12.281 17.583,34.598 5.303,49.805c-15.264,18.901 -29.36,38.21 -42.379,57.781Zm142.349,-159.856c-14.959,12.583 -37.319,10.653 -49.902,-4.305c-12.582,-14.959 -10.653,-37.319 4.306,-49.902c15,-12.617 30.685,-24.883 47.088,-36.747c4.282,-3.097 9.026,-6.552 14.223,-10.356c15.772,-11.547 37.952,-8.116 49.498,7.656c11.547,15.772 8.116,37.952 -7.656,49.498c-5.317,3.892 -10.171,7.427 -14.552,10.596c-14.98,10.835 -29.306,22.037 -43.005,33.56Zm178.136,-133.948c-15.629,11.74 -37.848,8.583 -49.589,-7.046c-11.74,-15.629 -8.582,-37.849 7.046,-49.589c18.534,-13.922 38.501,-28.953 59.828,-45.036c15.606,-11.769 37.832,-8.654 49.601,6.953c11.77,15.607 8.654,37.832 -6.952,49.602c-21.365,16.111 -41.368,31.169 -59.934,45.116Zm179.572,-135.561c-15.582,11.803 -37.814,8.735 -49.617,-6.846c-11.802,-15.582 -8.735,-37.814 6.847,-49.617c19.223,-14.561 39.136,-29.656 59.709,-45.262c15.573,-11.814 37.808,-8.761 49.621,6.812c11.814,15.574 8.761,37.808 -6.812,49.622c-20.586,15.615 -40.512,30.721 -59.748,45.291Zm179.163,-135.977c-15.561,11.829 -37.799,8.799 -49.628,-6.763c-11.829,-15.561 -8.799,-37.799 6.762,-49.628c19.455,-14.788 39.345,-29.914 59.652,-45.363c15.557,-11.835 37.795,-8.813 49.63,6.744c11.836,15.556 8.814,37.795 -6.743,49.63c-20.314,15.455 -40.211,30.586 -59.673,45.38Zm178.956,-136.186c-15.55,11.845 -37.791,8.837 -49.635,-6.713c-11.845,-15.549 -8.837,-37.79 6.713,-49.635c19.568,-14.905 39.443,-30.049 59.611,-45.419c15.546,-11.849 37.788,-8.847 49.636,6.7c11.849,15.547 8.847,37.788 -6.7,49.637c-20.173,15.374 -40.052,30.521 -59.625,45.43Zm178.847,-136.334c-15.542,11.855 -37.785,8.862 -49.64,-6.68c-11.855,-15.541 -8.862,-37.784 6.68,-49.639c19.637,-14.98 39.503,-30.137 59.587,-45.462c15.539,-11.858 37.782,-8.869 49.64,6.671c11.858,15.539 8.869,37.782 -6.67,49.64c-20.087,15.328 -39.956,30.487 -59.597,45.47Zm178.754,-136.428c-15.536,11.863 -37.78,8.881 -49.643,-6.655c-11.863,-15.535 -8.881,-37.779 6.655,-49.642c19.683,-15.03 39.541,-30.195 59.564,-45.489c15.534,-11.865 37.778,-8.887 49.643,6.647c11.865,15.534 8.886,37.779 -6.648,49.644c-20.025,15.296 -39.885,30.463 -59.571,45.495Zm178.694,-136.506c-15.531,11.869 -37.777,8.896 -49.646,-6.635c-11.869,-15.531 -8.895,-37.776 6.636,-49.645c19.717,-15.068 39.569,-30.241 59.548,-45.513c15.53,-11.87 37.775,-8.9 49.646,6.63c11.871,15.53 8.9,37.776 -6.63,49.646c-19.981,15.273 -39.835,30.448 -59.554,45.517Zm178.65,-136.571c-15.527,11.874 -37.774,8.908 -49.647,-6.62c-11.874,-15.527 -8.908,-37.773 6.619,-49.647c19.744,-15.098 39.592,-30.277 59.536,-45.532c15.527,-11.875 37.773,-8.911 49.648,6.616c11.875,15.526 8.911,37.772 -6.615,49.647c-19.946,15.256 -39.796,30.437 -59.541,45.536Zm178.604,-136.617c-15.524,11.878 -37.771,8.918 -49.649,-6.607c-11.878,-15.524 -8.918,-37.771 6.607,-49.649c19.764,-15.122 39.607,-30.305 59.522,-45.545c15.523,-11.879 37.77,-8.92 49.649,6.603c11.879,15.524 8.921,37.771 -6.603,49.65c-19.916,15.241 -39.76,30.425 -59.526,45.548Zm178.574,-136.662c-15.521,11.881 -37.769,8.926 -49.65,-6.596c-11.881,-15.521 -8.926,-37.769 6.596,-49.65c19.783,-15.144 39.623,-30.332 59.513,-45.559c15.521,-11.883 37.769,-8.929 49.651,6.592c11.883,15.521 8.929,37.769 -6.592,49.651c-19.892,15.229 -39.733,30.418 -59.518,45.562Zm178.53,-136.686c-15.52,11.884 -37.768,8.933 -49.652,-6.587c-11.885,-15.519 -8.933,-37.767 6.586,-49.651c19.799,-15.162 39.636,-30.354 59.504,-45.57c15.519,-11.885 37.767,-8.935 49.653,6.583c11.885,15.519 8.935,37.767 -6.584,49.652c-19.869,15.218 -39.707,30.41 -59.507,45.573Zm178.527,-136.737c-15.517,11.887 -37.766,8.94 -49.653,-6.577c-11.886,-15.518 -8.939,-37.766 6.578,-49.653c19.815,-15.179 39.649,-30.374 59.496,-45.579c15.517,-11.888 37.766,-8.942 49.653,6.575c11.888,15.517 8.942,37.766 -6.575,49.653c-19.848,15.207 -39.683,30.402 -59.499,45.581Zm178.487,-136.75c-15.515,11.889 -37.764,8.945 -49.654,-6.57c-11.889,-15.516 -8.945,-37.765 6.571,-49.654c19.829,-15.195 39.661,-30.392 59.489,-45.588c15.514,-11.89 37.764,-8.947 49.654,6.568c11.89,15.515 8.947,37.765 -6.568,49.655c-19.829,15.195 -39.661,30.393 -59.492,45.589Zm178.477,-136.783c-15.513,11.891 -37.763,8.95 -49.654,-6.564c-11.892,-15.514 -8.951,-37.763 6.563,-49.655c19.846,-15.211 39.676,-30.411 59.484,-45.596c15.514,-11.892 37.763,-8.952 49.655,6.561c11.892,15.514 8.952,37.763 -6.561,49.655c-19.81,15.186 -39.64,30.387 -59.487,45.599Zm178.454,-136.802c-15.513,11.893 -37.763,8.955 -49.656,-6.557c-11.893,-15.513 -8.955,-37.763 6.557,-49.656c19.863,-15.229 39.692,-30.432 59.482,-45.606c15.512,-11.894 37.762,-8.956 49.656,6.556c11.893,15.511 8.956,37.762 -6.556,49.655c-19.79,15.175 -39.62,30.379 -59.483,45.608Zm178.434,-136.821c-15.511,11.895 -37.761,8.959 -49.656,-6.552c-11.895,-15.511 -8.959,-37.761 6.552,-49.656c19.879,-15.245 39.705,-30.45 59.472,-45.61c15.511,-11.896 37.761,-8.961 49.657,6.55c11.896,15.51 8.961,37.761 -6.55,49.656c-19.768,15.161 -39.595,30.366 -59.475,45.612Zm178.433,-136.851c-15.51,11.896 -37.76,8.963 -49.657,-6.547c-11.897,-15.51 -8.963,-37.76 6.547,-49.657c19.899,-15.264 39.725,-30.471 59.469,-45.617c15.509,-11.897 37.76,-8.964 49.657,6.545c11.897,15.509 8.965,37.76 -6.545,49.657c-19.745,15.146 -39.571,30.354 -59.471,45.619Zm178.399,-136.854c-15.508,11.898 -37.759,8.967 -49.657,-6.542c-11.899,-15.508 -8.967,-37.759 6.541,-49.658c19.924,-15.285 39.749,-30.495 59.467,-45.624c15.508,-11.898 37.759,-8.968 49.658,6.54c11.898,15.509 8.968,37.76 -6.54,49.658c-19.719,15.129 -39.544,30.34 -59.469,45.626Zm178.401,-136.883c-15.508,11.9 -37.759,8.971 -49.658,-6.537c-11.9,-15.507 -8.971,-37.758 6.537,-49.658c19.953,-15.311 39.777,-30.523 59.462,-45.63c15.507,-11.9 37.758,-8.971 49.658,6.536c11.9,15.507 8.972,37.758 -6.535,49.658c-19.686,15.107 -39.51,30.32 -59.464,45.631Zm178.388,-136.898c-15.506,11.901 -37.758,8.974 -49.659,-6.533c-11.901,-15.506 -8.974,-37.758 6.533,-49.659c19.991,-15.342 39.812,-30.556 59.455,-45.632c15.506,-11.902 37.758,-8.975 49.659,6.531c11.902,15.506 8.975,37.757 -6.531,49.659c-19.643,15.077 -39.465,30.291 -59.457,45.634Zm178.369,-136.909c-15.505,11.903 -37.757,8.977 -49.659,-6.528c-11.903,-15.505 -8.978,-37.757 6.528,-49.659c20.044,-15.387 39.865,-30.602 59.452,-45.639c15.505,-11.903 37.757,-8.978 49.66,6.527c11.903,15.505 8.978,37.757 -6.527,49.659c-19.588,15.038 -39.41,30.254 -59.454,45.64Zm178.358,-136.924c-15.504,11.904 -37.756,8.98 -49.66,-6.524c-11.903,-15.505 -8.98,-37.757 6.524,-49.66c20.122,-15.449 39.943,-30.667 59.449,-45.643c15.504,-11.905 37.756,-8.982 49.66,6.522c11.904,15.504 8.981,37.756 -6.523,49.66c-19.506,14.978 -39.328,30.196 -59.45,45.645Zm178.348,-136.94c-15.504,11.905 -37.756,8.983 -49.661,-6.52c-11.905,-15.503 -8.983,-37.756 6.52,-49.661c20.252,-15.551 40.074,-30.772 59.446,-45.649c15.503,-11.905 37.755,-8.984 49.661,6.519c11.905,15.503 8.984,37.755 -6.519,49.66c-19.373,14.878 -39.195,30.099 -59.447,45.651Zm178.335,-136.954c-15.503,11.906 -37.755,8.987 -49.662,-6.516c-11.906,-15.502 -8.986,-37.755 6.516,-49.661c20.512,-15.753 40.336,-30.98 59.442,-45.654c15.502,-11.907 37.754,-8.988 49.661,6.514c11.907,15.502 8.988,37.754 -6.514,49.661c-19.106,14.675 -38.931,29.902 -59.443,45.656Zm178.325,-136.973c-15.501,11.908 -37.754,8.991 -49.662,-6.511c-11.908,-15.501 -8.99,-37.754 6.511,-49.661c21.305,-16.366 41.144,-31.607 59.437,-45.66c15.501,-11.909 37.754,-8.992 49.662,6.509c11.908,15.501 8.992,37.753 -6.509,49.662c-18.294,14.054 -38.134,29.295 -59.439,45.661Zm178.314,-136.994c-15.5,11.91 -37.753,8.995 -49.663,-6.504c-11.91,-15.5 -8.995,-37.753 6.504,-49.663c19.49,-14.976 29.714,-22.833 29.714,-22.833c0.309,-0.237 0.621,-0.469 0.937,-0.696c0,0 14.987,-10.788 41.777,-26.883c16.756,-10.067 38.532,-4.636 48.599,12.119c10.066,16.756 4.636,38.532 -12.12,48.599c-21.263,12.775 -34.141,21.729 -36.569,23.439c-2.341,1.798 -12.275,9.433 -29.179,22.422Zm228.343,-124.295c-18.306,6.853 -38.732,-2.447 -45.585,-20.753c-6.852,-18.307 2.447,-38.733 20.753,-45.585c28.951,-10.837 60.008,-20.946 92.652,-29.464c18.914,-4.936 38.276,6.413 43.211,25.327c4.936,18.913 -6.413,38.276 -25.327,43.211c-30.197,7.88 -58.923,17.24 -85.704,27.264Zm261.61,-50.545c-19.547,-0.141 -35.302,-16.124 -35.161,-35.671c0.14,-19.546 16.124,-35.301 35.67,-35.161c16.409,0.118 32.942,0.862 49.557,2.305c19.474,1.692 33.911,18.875 32.22,38.349c-1.692,19.473 -18.875,33.91 -38.348,32.219c-14.731,-1.279 -29.39,-1.937 -43.938,-2.041Z" style="fill:#151515;"/></g><path d="M10558,11851.1c0,0 20.719,382.871 255.908,669.488" style="fill:none;stroke:#000;stroke-opacity:0.33;stroke-width:154.17px;"/><path d="M4538.75,3935.5c0,0 -609.307,776.091 527.417,2034.57c1136.72,1258.48 3997.33,3651.07 4552.21,4075.48c554.877,424.413 2581.32,1751.79 4148.02,818.413c1566.7,-933.375 1667.24,-1235.4 1667.24,-1235.4" style="fill:none;stroke:#000;stroke-opacity:0.14;stroke-width:100px;"/><path d="M5112.7,6114.36c12.182,-3.402 24.834,3.726 28.236,15.908c3.402,12.182 -3.726,24.834 -15.907,28.236c-0,0 -7.581,2.132 -21.066,6.848c-11.939,4.176 -25.022,-2.127 -29.198,-14.066c-4.175,-11.939 2.127,-25.022 14.066,-29.198c15.274,-5.342 23.869,-7.728 23.869,-7.728Zm-113.366,44.965c11.415,-5.447 25.105,-0.601 30.551,10.815c5.447,11.415 0.601,25.105 -10.815,30.551c-12.946,6.177 -26.742,13.109 -41.203,20.851c-11.151,5.969 -25.05,1.762 -31.019,-9.389c-5.97,-11.151 -1.763,-25.05 9.388,-31.019c15.126,-8.097 29.557,-15.348 43.098,-21.809Zm-126.055,71.201c10.562,-6.959 24.786,-4.035 31.746,6.526c6.959,10.561 4.035,24.786 -6.526,31.745c-12.478,8.223 -25.161,16.979 -37.963,26.293c-10.228,7.441 -24.573,5.179 -32.014,-5.049c-7.441,-10.227 -5.178,-24.572 5.049,-32.013c13.392,-9.743 26.657,-18.902 39.708,-27.502Zm-115.072,88.005c9.47,-8.384 23.965,-7.503 32.35,1.967c8.384,9.47 7.503,23.965 -1.967,32.349c-11.299,10.004 -22.569,20.467 -33.753,31.405c-9.043,8.844 -23.564,8.683 -32.407,-0.36c-8.844,-9.042 -8.683,-23.563 0.36,-32.407c11.736,-11.478 23.561,-22.457 35.417,-32.954Zm-101.084,104.074c8.089,-9.723 22.551,-11.05 32.274,-2.961c9.723,8.089 11.05,22.55 2.961,32.274c-9.673,11.627 -19.187,23.672 -28.499,36.148c-7.566,10.136 -21.937,12.222 -32.073,4.657c-10.136,-7.566 -12.223,-21.937 -4.657,-32.073c9.801,-13.13 19.814,-25.808 29.994,-38.045Zm-83.727,118.678c6.44,-10.886 20.506,-14.496 31.392,-8.056c10.886,6.439 14.496,20.506 8.056,31.392c-7.701,13.018 -15.163,26.42 -22.352,40.213c-5.846,11.216 -19.699,15.576 -30.914,9.73c-11.216,-5.846 -15.576,-19.698 -9.73,-30.914c7.574,-14.532 15.435,-28.65 23.548,-42.365Zm-63.688,130.533c4.625,-11.772 17.938,-17.573 29.71,-12.948c11.772,4.626 17.574,17.938 12.948,29.71c-5.533,14.081 -10.783,28.508 -15.725,43.288c-4.01,11.995 -17.005,18.477 -29.001,14.466c-11.995,-4.011 -18.477,-17.005 -14.466,-29.001c5.196,-15.54 10.716,-30.709 16.534,-45.515Zm-42.57,138.671c2.802,-12.333 15.09,-20.072 27.424,-17.27c12.334,2.802 20.072,15.09 17.27,27.424c-3.356,14.773 -6.414,29.852 -9.155,45.243c-2.218,12.452 -14.128,20.761 -26.58,18.544c-12.452,-2.218 -20.761,-14.128 -18.543,-26.58c2.869,-16.111 6.071,-31.896 9.584,-47.361Zm-22.221,143.017c1.108,-12.6 12.237,-21.929 24.837,-20.821c12.599,1.109 21.928,12.238 20.82,24.837c-1.331,15.13 -2.368,30.526 -3.098,46.193c-0.588,12.635 -11.323,22.415 -23.957,21.827c-12.635,-0.589 -22.414,-11.324 -21.826,-23.958c0.759,-16.307 1.839,-32.331 3.224,-48.078Zm-3.965,144.289c-0.377,-12.642 9.581,-23.212 22.224,-23.589c12.642,-0.376 23.212,9.582 23.589,22.224c0.228,7.674 0.528,15.406 0.899,23.197c0.602,12.634 -9.166,23.38 -21.8,23.982c-12.634,0.602 -23.379,-9.166 -23.981,-21.8c-0.385,-8.066 -0.695,-16.07 -0.931,-24.014Z" style="fill-opacity:0.27;"/><path d="M9515.93,10169.4c12.469,-2.12 24.313,6.283 26.433,18.752c2.12,12.469 -6.283,24.314 -18.752,26.433c0,0 -10.587,1.861 -29.05,7.651c-12.069,3.784 -24.94,-2.941 -28.724,-15.01c-3.785,-12.068 2.941,-24.939 15.009,-28.724c22.277,-6.986 35.084,-9.102 35.084,-9.102Zm-160.37,65.919c10.904,-6.408 24.96,-2.757 31.368,8.148c6.408,10.904 2.757,24.96 -8.148,31.368c-17.071,10.031 -35.102,21.639 -53.806,35.054c-10.278,7.371 -24.607,5.011 -31.978,-5.267c-7.371,-10.278 -5.011,-24.607 5.267,-31.979c19.917,-14.284 39.119,-26.642 57.297,-37.324Zm-161.037,125.575c8.958,-8.929 23.48,-8.905 32.409,0.053c8.929,8.958 8.906,23.48 -0.052,32.409c-14.632,14.584 -29.362,30.317 -44.083,47.287c-8.288,9.554 -22.774,10.581 -32.328,2.293c-9.554,-8.288 -10.582,-22.774 -2.293,-32.328c15.477,-17.84 30.964,-34.381 46.347,-49.714Zm-128.162,157.757c6.983,-10.546 21.214,-13.439 31.759,-6.456c10.546,6.983 13.439,21.214 6.456,31.76c-11.579,17.486 -23.024,35.876 -34.28,55.214c-6.362,10.931 -20.402,14.641 -31.334,8.278c-10.931,-6.363 -14.64,-20.403 -8.278,-31.334c11.714,-20.126 23.627,-39.264 35.677,-57.462Zm-97.323,177.493c5.209,-11.526 18.796,-16.654 30.321,-11.445c11.526,5.209 16.654,18.795 11.445,30.321c-8.72,19.294 -17.233,39.313 -25.505,60.085c-4.68,11.751 -18.019,17.492 -29.77,12.812c-11.75,-4.68 -17.491,-18.019 -12.811,-29.769c8.536,-21.436 17.322,-42.095 26.32,-62.004Zm-70.848,188.876c3.716,-12.09 16.548,-18.889 28.638,-15.173c12.09,3.715 18.889,16.547 15.173,28.637c-6.264,20.382 -12.303,41.358 -18.098,62.945c-3.279,12.216 -15.858,19.472 -28.074,16.193c-12.215,-3.279 -19.471,-15.859 -16.192,-28.074c5.94,-22.13 12.132,-43.634 18.553,-64.528Zm-49.039,195.11c2.489,-12.401 14.577,-20.448 26.978,-17.96c12.401,2.489 20.448,14.577 17.96,26.978c-2.131,10.617 -4.205,21.36 -6.222,32.23c-2.307,12.436 -14.276,20.66 -26.712,18.353c-12.436,-2.307 -20.659,-14.276 -18.352,-26.712c2.057,-11.093 4.174,-22.055 6.348,-32.889Z" style="fill-opacity:0.27;"/></g></svg>