<?xml version="1.0" encoding="UTF-8" standalone="no"?><!DOCTYPE svg PUBLIC "-//W3C//DTD SVG 1.1//EN" "http://www.w3.org/Graphics/SVG/1.1/DTD/svg11.dtd"><svg width="100%" height="100%" viewBox="0 0 19500 14400" version="1.1" xmlns="http://www.w3.org/2000/svg" xmlns:xlink="http://www.w3.org/1999/xlink" xml:space="preserve" xmlns:serif="http://www.serif.com/" style="fill-rule:evenodd;clip-rule:evenodd;stroke-linejoin:round;stroke-miterlimit:2;"><g id="overlay"><g id="binding-and-logo" serif:id="binding and logo"><g id="logo"><path d="M6907.37,5738.5l760.342,614.591c-0,0 2662.81,-1829.18 2731.93,-1914c69.115,-84.826 -748.865,-601.053 -851.241,-644.929c-102.376,-43.875 -2641.03,1944.34 -2641.03,1944.34Z"/><path d="M6843.14,5656.49c0,-0 1628.18,-1275.06 2331.96,-1762.6c150.495,-104.254 262.358,-173.372 311.955,-192.617c49.31,-19.133 84.927,-10.341 102.375,-2.863c85.221,36.523 647.163,387.356 831.641,571.519c49.779,49.694 76.048,95.473 83.138,125.424c10.619,44.856 -0.565,80.991 -23.816,109.527c-14.807,18.173 -138.874,113.588 -330.908,250.623c-717.52,512.024 -2422.79,1683.44 -2422.79,1683.44c-37.991,26.097 -88.617,24.125 -124.462,-4.849l-760.342,-614.592c-24.685,-19.953 -38.926,-50.073 -38.682,-81.813c0.244,-31.74 14.947,-61.636 39.936,-81.207Zm64.228,82.009l760.342,614.591c-0,0 2662.81,-1829.18 2731.93,-1914c69.115,-84.826 -748.865,-601.053 -851.241,-644.929c-102.376,-43.875 -2641.03,1944.34 -2641.03,1944.34Z" style="fill-opacity:0.25;"/><g><path d="M8253.13,5055.15l70.705,-50.091l184.567,134.305l-24.785,-247.504l84.623,-59.952l26.537,267.168l391.577,21.093l-84.623,59.952l-364.217,-19.573l193.301,140.66l-70.705,50.092l-406.98,-296.15Z" style="fill:#fff;fill-rule:nonzero;"/><path d="M9187.82,4989.99c-38.972,27.609 -82.969,46.098 -131.993,55.465c-49.023,9.368 -98.644,8.706 -148.861,-1.984c-50.218,-10.691 -96.093,-31.147 -137.626,-61.37c-41.532,-30.222 -69.406,-63.431 -83.622,-99.627c-14.216,-36.197 -14.57,-71.901 -1.063,-107.112c13.508,-35.212 39.747,-66.623 78.718,-94.232c38.6,-27.347 82.509,-45.633 131.727,-54.859c49.218,-9.226 98.935,-8.494 149.153,2.196c50.218,10.691 96.093,31.147 137.625,61.369c41.533,30.222 69.31,63.361 83.332,99.416c14.021,36.055 14.278,71.689 0.771,106.9c-13.508,35.212 -39.561,66.491 -78.161,93.838Zm-66.957,-48.723c24.867,-17.617 41.588,-37.965 50.163,-61.041c8.575,-23.077 7.928,-46.868 -1.94,-71.372c-9.868,-24.504 -29.358,-47.348 -58.469,-68.532c-28.724,-20.901 -59.989,-35.124 -93.797,-42.668c-33.807,-7.544 -66.934,-8.463 -99.381,-2.757c-32.446,5.706 -61.288,17.499 -86.527,35.379c-25.238,17.881 -42.141,38.496 -50.707,61.845c-8.566,23.35 -7.823,47.211 2.231,71.584c10.054,24.372 29.442,47.009 58.166,67.911c29.111,21.184 60.664,35.482 94.657,42.894c33.993,7.413 67.209,8.13 99.646,2.151c32.438,-5.979 61.091,-17.777 85.958,-35.394Z" style="fill:#fff;fill-rule:nonzero;"/><path d="M9025.88,4507.69l69.035,-48.908l428.378,124.628l-167.827,-309.216l69.034,-48.909l406.98,296.15l-66.808,47.33l-264.333,-192.349l148.533,274.389l-33.404,23.665l-380.133,-110.31l264.333,192.349l-66.808,47.331l-406.98,-296.15Z" style="fill:#fff;fill-rule:nonzero;"/><path d="M9502.35,4170.14l70.705,-50.091l406.979,296.149l-70.705,50.092l-406.979,-296.15Z" style="fill:#fff;fill-rule:nonzero;"/></g><path d="M7753.23,5073.27l-845.864,606.899l754.213,588.768l834.165,-579.631l-742.514,-616.036Z" style="fill:#fff;"/><path d="M7524.61,5775.01l-38.797,-257.522c-2.404,-15.959 5.597,-32.176 21.171,-42.904c15.572,-10.727 36.516,-14.448 55.411,-9.846l305.463,74.39l74.884,-209.207c-0,-0 123.312,168.608 188.642,257.939c22.773,31.138 13.338,72.117 -22.235,96.579l-449.436,309.047c-35.573,24.462 -86.693,25.123 -120.479,1.557c-96.926,-67.604 -279.87,-195.208 -279.87,-195.208l265.246,-24.825Z"/></g><path d="M6438.35,6646.54c104.073,64.727 -116.893,-616.849 678.357,-1107.06c951.528,-586.539 4950.55,-3691.42 4950.55,-3691.42c0,0 455.163,-314.371 622.893,-266.261c167.73,48.11 -621.472,-335.934 -691.673,-335.934c-70.201,0 -125.219,-69.421 -467.504,199.906c-342.285,269.326 -5350.22,3880.46 -5350.22,3880.46c-0,-0 -378.878,324.934 -312.979,777.168c30.393,208.569 451.208,468.897 570.577,543.137Z"/><path d="M6372.33,6752.69c-88.393,-54.975 -332.265,-207.427 -482.126,-369.019c-80.594,-86.902 -134.025,-179.18 -146.129,-262.24c-75.38,-517.302 355.298,-890.077 355.298,-890.077c2.662,-2.283 5.42,-4.453 8.265,-6.505c-0,0 5004.02,-3608.2 5346.04,-3877.31c193.969,-152.624 308.769,-205.504 382.795,-223.99c80.341,-20.063 118.831,-2.68 162.006,-2.68c17.319,0 64.608,9.781 128.104,34.944c170.178,67.442 530.965,242.5 628.826,303.398c53.442,33.257 71.781,71.515 75.863,83.112c9.468,26.898 8.665,50.885 3.774,71.404c-7.325,30.729 -24.203,57.968 -55.996,77.8c-10.899,6.798 -51.241,31.117 -123.362,10.431c-16.114,-4.622 -37.17,2.852 -61.477,9.559c-44.178,12.19 -93.081,32.635 -141.775,55.96c-146.481,70.167 -290.145,167.058 -311.449,181.596c-122.038,94.697 -4020.04,3118.22 -4958.69,3696.82c-581.87,358.676 -565.734,831.281 -586.007,974.901c-14.015,99.288 -70.395,138.186 -105.751,149.038c-31.368,9.628 -71.502,11.902 -118.207,-17.145Zm66.016,-106.146c104.073,64.727 -116.893,-616.849 678.357,-1107.06c951.528,-586.539 4950.55,-3691.42 4950.55,-3691.42c0,0 455.163,-314.371 622.893,-266.261c167.73,48.11 -621.472,-335.934 -691.673,-335.934c-70.201,0 -125.219,-69.421 -467.504,199.906c-342.285,269.326 -5350.22,3880.46 -5350.22,3880.46c-0,-0 -378.878,324.934 -312.979,777.168c30.393,208.569 451.208,468.897 570.577,543.137Z" style="fill-opacity:0.1;"/><path d="M6328.62,6584.09c1.357,19.5 -13.373,36.433 -32.873,37.79c-19.5,1.357 -36.433,-13.372 -37.79,-32.872c0,-0 -1.048,-14.742 -1.1,-40.94c-0.04,-19.547 15.798,-35.448 35.345,-35.487c19.547,-0.039 35.449,15.799 35.488,35.346c0.046,23.14 0.93,36.163 0.93,36.163Zm8.568,-185.619c-2.398,19.399 -20.096,33.201 -39.495,30.802c-19.399,-2.398 -33.201,-20.096 -30.802,-39.495c3.038,-24.572 6.954,-50.789 11.982,-78.268c3.518,-19.228 21.984,-31.982 41.212,-28.464c19.228,3.518 31.982,21.984 28.464,41.212c-4.767,26.055 -8.479,50.914 -11.361,74.213Zm47.169,-219.704c-5.849,18.652 -25.74,29.046 -44.392,23.197c-18.651,-5.849 -29.045,-25.741 -23.196,-44.392c7.745,-24.697 16.47,-49.772 26.294,-75.028c7.086,-18.217 27.63,-27.254 45.847,-20.167c18.217,7.086 27.254,27.629 20.168,45.847c-9.237,23.746 -17.439,47.323 -24.721,70.543Zm88.59,-205.061c-9.692,16.975 -31.342,22.888 -48.317,13.197c-16.975,-9.692 -22.889,-31.342 -13.197,-48.317c13.023,-22.81 27.126,-45.462 42.395,-67.811c11.026,-16.14 33.082,-20.291 49.222,-9.265c16.14,11.027 20.291,33.083 9.265,49.223c-14.18,20.754 -27.274,41.791 -39.368,62.973Zm132.913,-177.711c-13.613,14.027 -36.053,14.363 -50.081,0.75c-14.027,-13.613 -14.363,-36.054 -0.75,-50.081c18.316,-18.873 37.743,-37.264 58.346,-55.064c14.792,-12.778 37.176,-11.143 49.954,3.648c12.778,14.792 11.144,37.176 -3.648,49.954c-19.006,16.419 -36.925,33.383 -53.821,50.793Zm174.424,-142.704c-15.689,11.66 -37.892,8.39 -49.552,-7.299c-11.66,-15.688 -8.39,-37.891 7.299,-49.552c18.173,-13.507 38.783,-28.898 61.692,-46.068c15.642,-11.722 37.858,-8.541 49.581,7.101c11.723,15.641 8.541,37.858 -7.1,49.581c-22.994,17.232 -43.679,32.68 -61.92,46.237Zm185.292,-139.091c-15.6,11.778 -37.828,8.675 -49.606,-6.925c-11.778,-15.6 -8.675,-37.828 6.925,-49.606c19.61,-14.806 40.128,-30.313 61.513,-46.493c15.588,-11.793 37.819,-8.713 49.613,6.876c11.793,15.588 8.712,37.819 -6.876,49.612c-21.405,16.195 -41.941,31.716 -61.569,46.536Zm184.569,-139.735c-15.572,11.815 -37.807,8.764 -49.622,-6.808c-11.814,-15.572 -8.764,-37.807 6.809,-49.622c19.947,-15.134 40.429,-30.682 61.425,-46.628c15.567,-11.822 37.803,-8.783 49.625,6.784c11.823,15.566 8.783,37.803 -6.784,49.625c-21.005,15.953 -41.496,31.508 -61.453,46.649Zm184.307,-140.031c-15.558,11.834 -37.796,8.812 -49.631,-6.746c-11.834,-15.557 -8.811,-37.796 6.746,-49.63c20.098,-15.289 40.563,-30.861 61.381,-46.707c15.553,-11.839 37.793,-8.823 49.632,6.731c11.839,15.554 8.823,37.793 -6.731,49.632c-20.823,15.85 -41.294,31.427 -61.397,46.72Zm184.148,-140.205c-15.548,11.847 -37.789,8.843 -49.636,-6.705c-11.847,-15.548 -8.843,-37.789 6.705,-49.636c20.183,-15.379 40.636,-30.967 61.349,-46.756c15.545,-11.851 37.787,-8.851 49.637,6.694c11.85,15.546 8.851,37.787 -6.695,49.638c-20.716,15.792 -41.174,31.384 -61.36,46.765Zm184.044,-140.325c-15.541,11.856 -37.784,8.864 -49.64,-6.677c-11.856,-15.54 -8.865,-37.783 6.676,-49.639c20.235,-15.437 40.678,-31.036 61.319,-46.788c15.539,-11.858 37.782,-8.87 49.64,6.669c11.859,15.539 8.871,37.782 -6.668,49.641c-20.644,15.754 -41.09,31.354 -61.327,46.794Zm183.978,-140.424c-15.536,11.863 -37.78,8.882 -49.643,-6.654c-11.863,-15.536 -8.881,-37.78 6.654,-49.643c20.275,-15.482 40.713,-31.09 61.306,-46.819c15.534,-11.865 37.779,-8.886 49.644,6.648c11.865,15.534 8.886,37.778 -6.648,49.643c-20.596,15.731 -41.036,31.341 -61.313,46.825Zm183.912,-140.489c-15.531,11.869 -37.776,8.895 -49.645,-6.637c-11.868,-15.531 -8.895,-37.776 6.637,-49.645c20.301,-15.513 40.732,-31.127 61.284,-46.836c15.53,-11.87 37.776,-8.898 49.646,6.632c11.87,15.53 8.898,37.775 -6.632,49.646c-20.554,15.71 -40.986,31.325 -61.29,46.84Zm183.867,-140.547c-15.528,11.873 -37.774,8.905 -49.647,-6.623c-11.874,-15.528 -8.906,-37.774 6.622,-49.647c20.324,-15.54 40.749,-31.159 61.271,-46.853c15.527,-11.875 37.773,-8.909 49.647,6.618c11.875,15.527 8.909,37.773 -6.618,49.647c-20.523,15.695 -40.95,31.316 -61.275,46.858Zm183.815,-140.587c-15.525,11.877 -37.772,8.915 -49.649,-6.61c-11.877,-15.525 -8.915,-37.772 6.61,-49.649c20.344,-15.563 40.768,-31.189 61.265,-46.872c15.524,-11.878 37.771,-8.918 49.649,6.606c11.878,15.524 8.918,37.771 -6.606,49.649c-20.499,15.685 -40.924,31.311 -61.269,46.876Zm183.8,-140.641c-15.523,11.88 -37.77,8.923 -49.65,-6.6c-11.881,-15.522 -8.923,-37.77 6.599,-49.65c20.359,-15.582 40.779,-31.211 61.252,-46.883c15.522,-11.881 37.77,-8.925 49.651,6.597c11.881,15.521 8.925,37.769 -6.596,49.65c-20.475,15.673 -40.896,31.303 -61.256,46.886Zm183.756,-140.666c-15.52,11.883 -37.768,8.93 -49.651,-6.59c-11.883,-15.521 -8.93,-37.769 6.59,-49.652c20.374,-15.599 40.791,-31.232 61.246,-46.895c15.519,-11.884 37.767,-8.932 49.651,6.588c11.884,15.519 8.932,37.767 -6.587,49.651c-20.456,15.664 -40.874,31.298 -61.249,46.898Zm183.751,-140.712c-15.519,11.886 -37.767,8.936 -49.653,-6.582c-11.885,-15.518 -8.936,-37.767 6.583,-49.652c20.388,-15.616 40.804,-31.253 61.241,-46.908c15.518,-11.887 37.767,-8.938 49.653,6.579c11.886,15.518 8.938,37.767 -6.58,49.653c-20.438,15.656 -40.855,31.294 -61.244,46.91Zm183.712,-140.727c-15.517,11.887 -37.766,8.941 -49.654,-6.575c-11.887,-15.517 -8.941,-37.766 6.575,-49.654c20.4,-15.628 40.811,-31.267 61.229,-46.911c15.516,-11.889 37.765,-8.944 49.654,6.572c11.888,15.516 8.943,37.765 -6.573,49.654c-20.419,15.645 -40.831,31.284 -61.231,46.914Zm183.694,-140.755c-15.515,11.89 -37.764,8.947 -49.654,-6.568c-11.89,-15.515 -8.947,-37.765 6.568,-49.655c20.414,-15.643 40.825,-31.286 61.227,-46.923c15.515,-11.89 37.764,-8.948 49.655,6.567c11.89,15.514 8.948,37.764 -6.566,49.654c-20.404,15.638 -40.815,31.281 -61.23,46.925Zm183.684,-140.784c-15.513,11.892 -37.763,8.952 -49.654,-6.562c-11.892,-15.513 -8.952,-37.763 6.562,-49.655c20.427,-15.658 40.836,-31.303 61.223,-46.932c15.513,-11.892 37.763,-8.952 49.655,6.561c11.892,15.513 8.953,37.763 -6.56,49.655c-20.388,15.629 -40.798,31.275 -61.226,46.933Zm183.66,-140.798c-15.512,11.893 -37.762,8.955 -49.655,-6.557c-11.894,-15.512 -8.956,-37.762 6.557,-49.656c20.44,-15.672 40.848,-31.32 61.218,-46.938c15.511,-11.894 37.761,-8.957 49.655,6.555c11.894,15.512 8.957,37.762 -6.555,49.656c-20.37,15.619 -40.778,31.267 -61.22,46.94Zm183.652,-140.824c-15.511,11.895 -37.761,8.96 -49.656,-6.552c-11.895,-15.511 -8.96,-37.761 6.551,-49.656c20.455,-15.686 40.861,-31.336 61.212,-46.943c15.51,-11.896 37.761,-8.961 49.656,6.55c11.896,15.511 8.961,37.761 -6.55,49.657c-20.351,15.608 -40.757,31.257 -61.213,46.944Zm183.632,-140.838c-15.509,11.897 -37.76,8.963 -49.657,-6.547c-11.896,-15.509 -8.963,-37.76 6.547,-49.657c20.472,-15.702 40.875,-31.352 61.205,-46.947c15.509,-11.897 37.76,-8.964 49.657,6.546c11.897,15.509 8.964,37.76 -6.545,49.657c-20.331,15.595 -40.735,31.246 -61.207,46.948Zm183.624,-140.858c-15.509,11.898 -37.76,8.967 -49.658,-6.542c-11.898,-15.509 -8.966,-37.76 6.542,-49.658c20.491,-15.72 40.893,-31.372 61.2,-46.952c15.509,-11.899 37.76,-8.968 49.658,6.541c11.899,15.508 8.968,37.759 -6.541,49.658c-20.307,15.58 -40.71,31.233 -61.201,46.953Zm183.599,-140.865c-15.507,11.899 -37.759,8.969 -49.658,-6.538c-11.899,-15.508 -8.969,-37.759 6.538,-49.659c20.515,-15.741 40.916,-31.395 61.197,-46.958c15.508,-11.9 37.759,-8.971 49.659,6.537c11.899,15.507 8.97,37.758 -6.537,49.658c-20.282,15.563 -40.683,31.218 -61.199,46.96Zm183.596,-140.887c-15.507,11.9 -37.758,8.973 -49.659,-6.534c-11.9,-15.507 -8.973,-37.758 6.534,-49.659c20.544,-15.766 40.944,-31.423 61.193,-46.963c15.506,-11.901 37.758,-8.974 49.659,6.533c11.901,15.506 8.973,37.758 -6.533,49.659c-20.249,15.54 -40.649,31.197 -61.194,46.964Zm183.592,-140.908c-15.506,11.902 -37.757,8.976 -49.659,-6.53c-11.902,-15.506 -8.976,-37.758 6.53,-49.659c20.584,-15.8 40.984,-31.459 61.192,-46.971c15.506,-11.902 37.757,-8.976 49.66,6.529c11.902,15.506 8.976,37.757 -6.529,49.66c-20.209,15.512 -40.609,31.171 -61.194,46.971Zm183.573,-140.915c-15.505,11.903 -37.757,8.978 -49.66,-6.527c-11.903,-15.505 -8.979,-37.756 6.526,-49.659c20.638,-15.844 41.037,-31.505 61.188,-46.975c15.505,-11.903 37.757,-8.98 49.66,6.525c11.903,15.505 8.98,37.757 -6.525,49.66c-20.151,15.471 -40.551,31.132 -61.189,46.976Zm183.557,-140.927c-15.504,11.905 -37.756,8.982 -49.66,-6.522c-11.904,-15.504 -8.982,-37.756 6.522,-49.66c20.718,-15.907 41.117,-31.57 61.184,-46.979c15.504,-11.905 37.756,-8.983 49.66,6.521c11.905,15.504 8.983,37.756 -6.521,49.661c-20.068,15.409 -40.467,31.072 -61.185,46.979Zm183.548,-140.94c-15.504,11.905 -37.756,8.984 -49.661,-6.519c-11.906,-15.503 -8.985,-37.755 6.519,-49.661c20.85,-16.012 41.25,-31.678 61.179,-46.983c15.503,-11.906 37.756,-8.986 49.661,6.517c11.906,15.503 8.986,37.755 -6.517,49.661c-19.93,15.306 -40.33,30.972 -61.181,46.985Zm183.545,-140.962c-15.503,11.907 -37.755,8.987 -49.662,-6.515c-11.906,-15.502 -8.987,-37.754 6.515,-49.661c21.119,-16.22 41.521,-31.891 61.176,-46.988c15.502,-11.907 37.755,-8.989 49.662,6.513c11.907,15.502 8.988,37.755 -6.514,49.662c-19.655,15.097 -40.058,30.768 -61.177,46.989Zm183.529,-140.974c-15.502,11.908 -37.754,8.991 -49.662,-6.51c-11.908,-15.501 -8.991,-37.754 6.51,-49.662c21.937,-16.851 42.353,-32.536 61.172,-46.994c15.5,-11.908 37.753,-8.992 49.662,6.509c11.908,15.501 8.992,37.754 -6.509,49.662c-18.819,14.458 -39.236,30.143 -61.173,46.995Zm183.514,-140.992c-15.499,11.91 -37.752,8.995 -49.662,-6.504c-11.91,-15.5 -8.996,-37.753 6.504,-49.663c20.076,-15.426 30.582,-23.501 30.582,-23.501c0.309,-0.237 0.621,-0.469 0.937,-0.695c0,-0 16.854,-12.128 46.979,-30.227c16.756,-10.066 38.532,-4.636 48.599,12.12c10.066,16.755 4.636,38.532 -12.12,48.598c-24.425,14.675 -39.15,24.934 -41.766,26.778c-2.368,1.82 -12.592,9.677 -30.053,23.094Zm256.665,-139.039c-18.307,6.852 -38.733,-2.447 -45.585,-20.753c-6.852,-18.307 2.447,-38.733 20.753,-45.585c32.633,-12.215 67.639,-23.611 104.434,-33.212c18.914,-4.935 38.276,6.413 43.211,25.327c4.936,18.914 -6.413,38.276 -25.327,43.211c-34.348,8.963 -67.024,19.609 -97.486,31.012Zm297.847,-57.52c-19.547,-0.141 -35.302,-16.124 -35.161,-35.671c0.14,-19.546 16.124,-35.301 35.67,-35.161c18.453,0.133 37.048,0.97 55.733,2.593c19.474,1.691 33.911,18.874 32.22,38.348c-1.692,19.474 -18.875,33.911 -38.348,32.219c-16.802,-1.459 -33.521,-2.209 -50.114,-2.328Z" style="fill:#151515;"/></g><path d="M5501.55,2662.49c367.159,-334.351 629.067,-744.791 73.907,-307.489c-435.271,342.865 -777.12,748.116 -777.12,748.116c0,-0 -616.667,610.691 -222.818,1508.82c393.849,898.125 1070.47,1510.07 1708.57,2047.18c638.094,537.106 4186.24,4073.67 4719.33,4259.09c533.08,185.419 1822.94,1103.06 3444.02,709.285c1621.08,-393.771 3316.37,-2707.78 3097.53,-2416.56c-1441.75,1918.62 -3021.88,2129.51 -4183.25,2201.35c-2251.93,139.309 -6470.41,-4562.15 -6741.95,-4825.72c-213.94,-207.657 -1605.56,-1358.65 -1821.42,-2202.23c-183.438,-716.859 39.902,-1117.79 703.213,-1721.83Z" style="fill-opacity:0.22;"/></g></svg>