<?xml version="1.0" encoding="UTF-8" standalone="no"?><!DOCTYPE svg PUBLIC "-//W3C//DTD SVG 1.1//EN" "http://www.w3.org/Graphics/SVG/1.1/DTD/svg11.dtd"><svg width="100%" height="100%" viewBox="0 0 19500 14400" version="1.1" xmlns="http://www.w3.org/2000/svg" xmlns:xlink="http://www.w3.org/1999/xlink" xml:space="preserve" xmlns:serif="http://www.serif.com/" style="fill-rule:evenodd;clip-rule:evenodd;stroke-linejoin:round;stroke-miterlimit:2;"><g id="sides"><path d="M6963.26,4660.26c-285.916,159.751 -1025.15,527.58 -1075.32,1872.23c-50.165,1344.65 343.026,3964.81 374.054,4103.45c31.028,138.647 162.815,654.852 399.641,1037.25c236.827,382.397 1804.71,966.98 2182.31,951.863c377.602,-15.116 -1663.1,170.922 -2497.04,-1029.46c-833.945,-1200.39 -1025.91,-3073.25 -1016.35,-4282.59c4.075,-515.072 205.895,-2175.07 1396.92,-3006.54c744.94,-520.052 1295.7,-755.402 1675.99,-720.026c0,-0 316.628,760.455 48.303,771.766c-826.952,34.859 -1488.51,302.064 -1488.51,302.064Z" style="fill:undefined;"/><path d="M7023.98,4788.61l-0.006,0.003c-273.243,152.024 -948.01,503.863 -994.469,1749.16c-49.722,1332.78 339.979,3929.81 370.733,4067.24c29.712,132.768 155.05,627.416 381.834,993.597c30.452,49.171 90.461,100.189 167.383,155.039c137.64,98.146 326.753,199.92 533.426,295.598c515.05,238.44 1138.88,442.932 1355.4,434.264c75.91,-3.039 112.068,12.769 114.857,14.158c50.433,25.11 66.432,63.193 73.645,89.768c8.162,30.072 6.903,60.56 -5.823,91.31c-3.934,9.504 -25.322,74.926 -114.069,86.672c-39.456,5.222 -706.855,26.681 -1403.76,-203.876c-471.12,-155.86 -953.921,-426.457 -1272.57,-885.115c-850.16,-1223.73 -1051.42,-3131.69 -1041.67,-4364.54c4.234,-535.247 219.812,-2257.54 1457.49,-3121.58c784.326,-547.549 1369.81,-782.17 1770.2,-744.924c52.229,4.858 97.499,38.179 117.661,86.604c0,-0 165.937,406.315 167.083,653.874c0.884,191.001 -85.871,307.238 -243.597,313.887c-749.738,31.604 -1359.18,259.918 -1433.75,288.864Zm-60.724,-128.341c0,-0 661.555,-267.205 1488.51,-302.064c268.325,-11.311 -48.303,-771.766 -48.303,-771.766c-380.284,-35.376 -931.048,199.974 -1675.99,720.026c-1191.02,831.47 -1392.84,2491.47 -1396.92,3006.54c-9.566,1209.34 182.404,3082.2 1016.35,4282.59c833.945,1200.39 2874.64,1014.35 2497.04,1029.46c-377.602,15.117 -1945.48,-569.466 -2182.31,-951.863c-236.826,-382.397 -368.613,-898.602 -399.641,-1037.25c-31.028,-138.647 -424.219,-2758.81 -374.054,-4103.45c50.165,-1344.65 789.403,-1712.48 1075.32,-1872.23Z" style="fill-opacity:0.2;"/><path d="M14671.4,3014.84c-0,-0 98.287,248.674 89.256,311.289c-9.031,62.614 1086.9,-99.836 1433.28,320.986c384.84,467.546 438.109,1358.92 503.648,2320.48c65.539,961.561 254.781,-1602.31 -336.489,-2301.15c-591.27,-698.846 -1727.04,-590.625 -1689.69,-651.605Z" style="fill:undefined;"/><path d="M14740.9,2891.38c78.815,5.032 392.391,28.288 679.764,94.962c356.505,82.712 761.24,248.949 1048.62,588.609c202.439,239.272 326.558,680.443 389.67,1139.4c92.475,672.476 59.35,1378.8 19.793,1495.68c-27.564,81.445 -85.472,102.742 -114.156,109.001c-43.199,9.428 -89.95,3.711 -133.359,-38.455c-12.432,-12.077 -29.897,-33.025 -42.247,-69.135c-10.868,-31.775 -24.005,-106.619 -32.701,-234.2c-38.761,-568.686 -72.367,-1112.56 -175.627,-1556.14c-64.276,-276.11 -154.39,-511.83 -296.062,-683.949c-105.256,-127.876 -296.269,-183.551 -492.482,-215.648c-346.893,-56.745 -717.573,-28.296 -821.481,-42.095c-131.139,-17.415 -153.83,-112.033 -151.22,-162.345l-73.694,-231.234c-24.43,-44.631 -27.025,-92.83 4.914,-144.977c28.044,-45.788 79.564,-71.786 133.057,-67.143c20.494,1.778 39.928,7.937 57.216,17.667Zm139.831,297.77c0.452,1.627 0.898,3.246 1.337,4.858c0.3,1.1 0.597,2.198 0.89,3.294c21.878,-0.2 47.912,-0.318 77.254,-0.234c-27.92,-3.013 -54.481,-5.614 -79.481,-7.918Zm-206.133,-166.191c-2.023,-5.226 -3.163,-8.11 -3.163,-8.11c-1.897,3.097 -0.768,5.758 3.163,8.11Zm0,0c16.763,43.297 94.151,247.308 86.093,303.179c-2.032,14.088 51.875,16.782 140.597,17.29c-0.117,1.005 -0.244,1.983 -0.381,2.933c0.141,-0.98 0.272,-1.957 0.394,-2.933c305.603,1.749 1024.23,-22.436 1292.67,303.696c384.84,467.546 438.109,1358.92 503.648,2320.48c65.539,961.561 254.781,-1602.31 -336.489,-2301.15c-561.237,-663.349 -1613.07,-599.536 -1686.53,-643.495Z" style="fill-opacity:0.2;"/><path d="M4912.52,7577.41c0,-0 -225.417,-1931.83 757.848,-3207.07c368.799,-478.313 701.171,-150.737 549.518,-45.007c-452.707,315.617 -1339.47,1942.73 -1307.37,3252.08Z" style="fill:undefined;"/><path d="M4771.8,7593.83c0,-0 -228.739,-1993.46 786.37,-3309.99c354.378,-459.608 702.5,-305.52 797.127,-164.901c75.185,111.727 61.384,241.888 -54.399,322.609c-170.355,118.768 -401.21,438.478 -620.777,853.965c-339.806,643.018 -644.683,1515.9 -625.985,2278.43c1.856,75.694 -56.137,139.467 -131.667,144.789c-75.53,5.321 -141.893,-49.691 -150.669,-124.897Zm140.712,-16.419c-32.107,-1309.35 854.659,-2936.46 1307.37,-3252.08c151.653,-105.73 -180.719,-433.306 -549.518,45.007c-983.265,1275.24 -757.848,3207.07 -757.848,3207.07Z" style="fill-opacity:0.2;"/></g></svg>