<?xml version="1.0" encoding="UTF-8" standalone="no"?><!DOCTYPE svg PUBLIC "-//W3C//DTD SVG 1.1//EN" "http://www.w3.org/Graphics/SVG/1.1/DTD/svg11.dtd"><svg width="100%" height="100%" viewBox="0 0 19500 14400" version="1.1" xmlns="http://www.w3.org/2000/svg" xmlns:xlink="http://www.w3.org/1999/xlink" xml:space="preserve" xmlns:serif="http://www.serif.com/" style="fill-rule:evenodd;clip-rule:evenodd;stroke-linejoin:round;stroke-miterlimit:2;"><path id="below-zipper" serif:id="below zipper" d="M5998.04,8475.07c0,-0 473.35,152.292 2000.27,-18.17c585.94,-65.412 2092,-306.479 3633.97,-696.653c1999.31,-505.898 3941.87,-984.32 4333.71,-1173.81c85.969,-41.574 645.929,-260.199 730.906,-355.024c84.977,-94.825 142.259,2016.01 -271.574,2888.1c-685.905,1445.44 -1474.93,1616.43 -1607.6,1707.73c-187.738,129.207 -2621.71,1142.67 -5133.8,1695.18c-765.036,168.26 -1407.23,334.139 -2399.96,-291.775c-168.333,-106.135 -892.14,-326.7 -1098.47,-2021.03c-220.548,-1811.13 -187.457,-1734.55 -187.457,-1734.55Z" style="fill:undefined;"/></svg>