<?xml version="1.0" encoding="UTF-8" standalone="no"?><!DOCTYPE svg PUBLIC "-//W3C//DTD SVG 1.1//EN" "http://www.w3.org/Graphics/SVG/1.1/DTD/svg11.dtd"><svg width="100%" height="100%" viewBox="0 0 19500 14400" version="1.1" xmlns="http://www.w3.org/2000/svg" xmlns:xlink="http://www.w3.org/1999/xlink" xml:space="preserve" xmlns:serif="http://www.serif.com/" style="fill-rule:evenodd;clip-rule:evenodd;stroke-linecap:round;stroke-miterlimit:1.5;"><g id="cording"><path d="M3917.89,5147.06c-0,0 64.715,130.241 78.46,261.006c10.358,98.532 -9.653,195.306 -77.176,259.249c-44.683,42.314 -112.019,73.633 -214.247,74.85c-98.223,1.17 -207.046,85.109 -317.949,186.766c-194.905,178.654 -383.987,423.691 -500.233,536.351c-49.237,47.718 -92.502,74.804 -121.29,82.689c-40.516,11.097 -73.34,2.332 -99.434,-16.76c-67.508,-49.394 -226.91,-126.844 -295.476,-202.332c-61.046,-67.208 -70.989,-137.606 -31.264,-200.717c754.313,-1198.37 1514.73,-1030 1514.73,-1030l43.878,8.854l20,40.046Zm-82.008,40.956c-0,0 -706.754,-142.602 -1419.02,988.977c-60.486,96.093 211.776,213.281 303.29,280.239c91.514,66.958 622.814,-802.43 983.687,-806.727c360.873,-4.297 132.046,-462.489 132.046,-462.489Z" style="fill-opacity:0.19;"/><path d="M3835.89,5188.02c-0,0 -706.754,-142.602 -1419.02,988.977c-60.486,96.093 211.776,213.281 303.29,280.239c91.514,66.958 622.814,-802.43 983.687,-806.727c360.873,-4.297 132.046,-462.489 132.046,-462.489Z" style="fill:#54bcb7;"/><path d="M6022.53,3932.22c42.415,39.879 75.144,60.882 89.241,78.374c27.803,34.499 33.076,67.988 22.312,104.71c-4.512,15.389 -13.15,33.152 -30.375,52.328c-15.833,17.627 -45.413,41.565 -94.058,76.37c-141.335,101.125 -583.1,342.42 -754.662,560.034c-179.099,227.173 -815.998,675.41 -1002.35,824.55c-229.249,183.469 -450.572,90.48 -450.572,90.48l-74.529,-29.584l19.407,-77.802c0,-0 38.78,-155.465 133.722,-544.256c31.964,-130.895 144.126,-274.544 304.145,-413.051c338.913,-293.351 892.521,-577.938 1189.18,-720.062c450.285,-215.725 617.802,-41.848 648.543,-2.091Zm-69.595,60.312c-0,-0 -122.972,-175.029 -539.342,24.448c-416.371,199.476 -1348.86,683.085 -1443.88,1072.19c-95.019,389.106 -133.83,544.696 -133.83,544.696c-0,0 176.103,69.904 359.475,-76.849c183.371,-146.753 811.41,-586.196 987.643,-809.733c176.233,-223.538 628.125,-473.954 773.309,-577.832c145.183,-103.877 94.803,-82.418 -3.376,-176.92Zm-580.928,234.332c0,-0 43.263,55.11 -8.17,79.945c-51.434,24.835 -1167.42,944.402 -1124.53,778.104c42.897,-166.299 1132.7,-858.049 1132.7,-858.049Z" style="fill-opacity:0.21;"/><path d="M5952.94,3992.53c98.179,94.502 148.559,73.043 3.376,176.92c-145.184,103.878 -597.076,354.294 -773.309,577.832c-176.233,223.537 -804.272,662.98 -987.643,809.733c-183.372,146.753 -359.475,76.849 -359.475,76.849c-0,0 38.811,-155.59 133.83,-544.696c95.018,-389.105 1027.51,-872.714 1443.88,-1072.19c416.37,-199.477 539.342,-24.448 539.342,-24.448Zm-580.928,234.332c0,-0 -1089.8,691.75 -1132.7,858.049c-42.897,166.298 1073.09,-753.269 1124.53,-778.104c51.433,-24.835 8.17,-79.945 8.17,-79.945Z" style="fill:#54bcb7;"/><path d="M2270.4,6143.97c96.199,3.716 195.701,15.892 293.466,72.742c95.495,55.531 191.501,154.485 276.769,340.474c75.421,164.51 68.203,276.457 34.946,353.021c-51.507,118.581 -177.307,164.6 -249.169,189.374c-50.758,17.499 -113.116,5.794 -175.781,-37.506c-80.141,-55.376 -169.579,-172.007 -226.577,-214.755c-26.535,-19.902 -52.866,-14.538 -85.299,-19.124c-59.297,-8.384 -132.39,-25.102 -234.813,-97.876c-43.049,-30.588 -64.304,-67.996 -71.975,-107.693c-9.245,-47.843 3.725,-103.966 39.818,-160.401c90.683,-141.791 346.563,-304.434 346.563,-304.434l23.902,-14.909l28.15,1.087Zm-3.538,91.599c0,-0 -479.78,299.269 -309.826,420.026c169.954,120.757 241.513,58.013 322.018,118.391c80.505,60.379 225.796,270.542 317.481,238.934c91.686,-31.609 309.805,-92.46 160.773,-417.532c-149.032,-325.071 -326.211,-353.476 -490.446,-359.819Z" style="fill-opacity:0.26;"/><path d="M2266.86,6235.57c0,-0 -479.78,299.269 -309.826,420.026c169.954,120.757 241.513,58.013 322.018,118.391c80.505,60.379 225.796,270.542 317.481,238.934c91.686,-31.609 309.805,-92.46 160.773,-417.532c-149.032,-325.071 -326.211,-353.476 -490.446,-359.819Z" style="fill:#54bcb7;"/><path d="M2029.66,6640.28c96.2,3.716 195.702,15.892 293.466,72.742c95.495,55.531 191.501,154.485 276.769,340.474c75.421,164.51 68.203,276.456 34.947,353.021c-51.507,118.581 -177.308,164.6 -249.17,189.374c-50.757,17.498 -113.116,5.794 -175.78,-37.506c-80.142,-55.376 -169.58,-172.007 -226.578,-214.755c-26.535,-19.902 -52.866,-14.538 -85.298,-19.124c-59.298,-8.384 -132.391,-25.102 -234.814,-97.877c-43.049,-30.587 -64.304,-67.995 -71.975,-107.692c-9.244,-47.843 3.725,-103.966 39.818,-160.401c90.683,-141.791 346.564,-304.434 346.564,-304.434l23.902,-14.909l28.149,1.087Zm-3.537,91.599c-0,-0 -479.781,299.269 -309.827,420.026c169.954,120.756 241.514,58.013 322.018,118.391c80.505,60.379 225.796,270.542 317.482,238.934c91.685,-31.609 309.805,-92.46 160.772,-417.532c-149.032,-325.072 -326.211,-353.476 -490.445,-359.819Z" style="fill-opacity:0.26;"/><path d="M2026.12,6731.88c-0,-0 -479.781,299.269 -309.827,420.026c169.954,120.756 241.514,58.013 322.018,118.391c80.505,60.379 225.796,270.542 317.482,238.934c91.685,-31.609 309.805,-92.46 160.772,-417.532c-149.032,-325.072 -326.211,-353.476 -490.445,-359.819Z" style="fill:#54bcb7;"/><path d="M6758,7512.45c0,0 -31.436,210.009 31.179,343.931c62.614,133.921 246.201,299.403 142.001,786.903c-104.2,487.5 -176.276,303.354 -104.716,544.868c71.559,241.514 116.284,317.546 169.954,317.546c53.669,0 219.28,-212.099 317.545,-613.976c98.266,-401.878 146.99,-1044.93 -56.207,-1261.67c-203.196,-216.743 -499.756,-117.603 -499.756,-117.603" style="fill:#54bcb7;stroke:#000;stroke-opacity:0.29;stroke-width:145.83px;"/><path d="M6679.2,7641.41c-0,0 -22.025,578.011 -65.085,993.421c-19.659,189.664 -45.799,347.096 -73.625,411.017c-25.982,59.686 -67.953,79.132 -96.132,82.726c-25.803,3.29 -53.191,-1.738 -79.852,-23.225c-19.125,-15.414 -48.465,-57.252 -69.632,-140.508c-140.192,-551.423 208.677,-1363.5 208.677,-1363.5l175.649,40.073Zm-91.6,-3.485c-0,-0 -338.06,776.577 -203.885,1304.33c134.174,527.752 203.885,-1304.33 203.885,-1304.33Z" style="fill-opacity:0.29;"/><path d="M6587.6,7637.92c-0,-0 -338.06,776.577 -203.885,1304.33c134.174,527.752 203.885,-1304.33 203.885,-1304.33Z" style="fill:#54bcb7;"/><path d="M6698.71,11694l-0.56,0.381c0,-0 202.816,-139.056 353.634,-201.572c57.823,-23.968 110.36,-36.388 147.49,-35.204c32.937,1.051 59.479,10.921 79.781,25.588c95.583,69.05 276.283,304.049 257.895,540.236c-7.722,99.184 -26.387,170.004 -64.717,228.858c-53.857,82.696 -151.139,144.791 -344.954,220.741c-138.385,54.228 -247.918,52.585 -336.733,19.85c-128.63,-47.409 -218.01,-166.17 -285.899,-310.514c-52.491,-111.605 -29.726,-217.02 19.862,-303.104c61.945,-107.537 167.267,-180.526 174.201,-185.26Zm51.401,75.898c-0,0 -257.103,172.341 -162.514,373.452c94.588,201.111 226.995,353.756 506.237,244.33c279.241,-109.425 336.093,-170.577 351.726,-371.366c15.632,-200.788 -138.927,-400.114 -220.184,-458.816c-81.257,-58.701 -475.265,212.4 -475.265,212.4Z" style="fill-opacity:0.27;"/><path d="M6750.11,11769.9c-0,0 -257.103,172.341 -162.514,373.452c94.588,201.111 226.995,353.756 506.237,244.33c279.241,-109.425 336.093,-170.577 351.726,-371.366c15.632,-200.788 -138.927,-400.114 -220.184,-458.816c-81.257,-58.701 -475.265,212.4 -475.265,212.4Z" style="fill:#54bcb7;"/><path d="M6829.43,8991.79c154.663,267.015 262.804,675.845 288.633,963.33c12.225,136.075 4.517,247.304 -19.393,311.158c-14.359,38.345 -10.236,126.374 -3.371,238.52c18.613,304.074 82.376,761.389 89.51,997.539c2.147,71.055 -1.689,125.374 -9.999,156.117c-10.776,39.868 -31.923,62.349 -50.034,74.222c-111.37,73.013 -221.397,120.812 -363.019,42.584c-17.311,-9.562 -36.558,-26.387 -52.918,-53.978c-17.071,-28.789 -34.532,-77.733 -49.54,-141.925c-69.735,-298.266 -114.186,-987.647 -160.442,-1166.22c-58.874,-227.277 -31.011,-744.348 -51.4,-1030.72c-26.002,-365.193 280.93,-433.742 280.93,-433.742l66.655,-16.258l34.388,59.368Zm-79.321,45.946c-0,-0 -231.279,56.41 -211.217,338.176c20.061,281.766 -9.225,790.618 48.703,1014.24c57.927,223.624 113.381,1246.81 218.484,1304.87c105.104,58.056 185.787,15.18 268.438,-39.006c82.652,-54.185 -131.017,-1236.75 -61.693,-1421.88c69.323,-185.134 -50.466,-829.965 -262.715,-1196.4Z" style="fill-opacity:0.27;"/><path d="M6750.11,9037.73c-0,-0 -231.279,56.41 -211.217,338.176c20.061,281.766 -9.225,790.618 48.703,1014.24c57.927,223.624 113.381,1246.81 218.484,1304.87c105.104,58.056 185.787,15.18 268.438,-39.006c82.652,-54.185 -131.017,-1236.75 -61.693,-1421.88c69.323,-185.134 -50.466,-829.965 -262.715,-1196.4Z" style="fill:#54bcb7;"/></g></svg>