<?xml version="1.0" encoding="UTF-8" standalone="no"?><!DOCTYPE svg PUBLIC "-//W3C//DTD SVG 1.1//EN" "http://www.w3.org/Graphics/SVG/1.1/DTD/svg11.dtd"><svg width="100%" height="100%" viewBox="0 0 19500 14400" version="1.1" xmlns="http://www.w3.org/2000/svg" xmlns:xlink="http://www.w3.org/1999/xlink" xml:space="preserve" xmlns:serif="http://www.serif.com/" style="fill-rule:evenodd;clip-rule:evenodd;stroke-linecap:round;stroke-miterlimit:1.5;"><g id="hinge"><g id="hinge1" serif:id="hinge"><path d="M7583.3,3102.29c0,-0 97.448,-302.903 524.871,-256.91c427.423,45.994 5317.52,-583.529 5317.52,-583.529c0,-0 695.793,56.701 852.308,206.529c156.515,149.828 532.841,635.587 539.729,909.934c3.441,137.013 -6216.27,962.222 -6272.5,927.05c-43.756,-27.368 -17.889,-853.057 -410.049,-1150.61c-264.929,-201.015 -551.878,-52.465 -551.878,-52.465Z" style="fill:#f2e014;"/><path d="M7404.81,3044.87c-0,0 49.494,-169.092 232.652,-286.698c106.854,-68.611 263.149,-123.705 490.769,-99.212c423.924,45.617 5273.52,-583.071 5273.52,-583.071c12.989,-1.672 26.117,-1.978 39.17,-0.915c-0,0 359.437,29.651 631.741,101.417c148.138,39.042 272.148,96.387 334.995,156.549c101.455,97.12 289.106,324.353 424.037,555.052c101.65,173.797 170.111,351.647 173.475,485.62c0.981,39.039 -8.31,82.81 -42.441,125.728c-13.278,16.697 -35.414,39.108 -72.588,58.434c-30.973,16.102 -100.123,39.459 -203.321,63.396c-908.636,210.761 -5100.55,773.335 -5966.9,860.475c-109.287,10.992 -176.832,12.679 -193.879,10.647c-41.031,-4.892 -66.355,-19.273 -80.24,-27.957c-24.289,-15.192 -55.682,-41.41 -77.313,-90.877c-9.768,-22.339 -22.332,-73.635 -31.209,-147.247c-15.952,-132.273 -36.443,-380.084 -115.075,-605.193c-43.36,-124.132 -102.946,-242.977 -200.358,-316.889c-169.227,-128.401 -352.343,-35.325 -352.343,-35.325c-67.455,34.921 -149.314,25.694 -207.303,-23.366c-57.989,-49.06 -80.65,-128.259 -57.387,-200.568Zm178.49,57.424c0,-0 286.949,-148.55 551.878,52.465c392.16,297.552 366.293,1123.24 410.049,1150.61c56.232,35.172 6275.94,-790.037 6272.5,-927.05c-6.888,-274.347 -383.214,-760.106 -539.729,-909.934c-156.515,-149.828 -852.308,-206.529 -852.308,-206.529c0,-0 -4890.09,629.523 -5317.52,583.529c-427.423,-45.993 -524.871,256.91 -524.871,256.91Z" style="fill-opacity:0.2;"/></g><path d="M8919.01,4302.91c1.959,15.977 -9.423,30.54 -25.401,32.498c-15.978,1.959 -30.54,-9.423 -32.499,-25.401c0,0 -2.603,-21.226 -7.794,-58.348c-2.229,-15.942 8.904,-30.695 24.846,-32.924c15.943,-2.23 30.696,8.903 32.925,24.846c5.279,37.745 7.923,59.329 7.923,59.329Zm-25.498,-177.256c2.507,15.901 -8.368,30.846 -24.27,33.352c-15.901,2.507 -30.845,-8.368 -33.352,-24.27c-5.54,-35.153 -11.99,-74.411 -19.346,-116.658c-2.761,-15.859 7.873,-30.976 23.732,-33.737c15.859,-2.762 30.976,7.872 33.737,23.731c7.414,42.582 13.915,82.15 19.499,117.582Zm-40.927,-234.854c3.03,15.81 -7.347,31.105 -23.157,34.135c-15.81,3.029 -31.105,-7.347 -34.134,-23.157c-7.185,-37.499 -14.955,-76.308 -23.31,-115.846c-3.328,-15.75 6.757,-31.238 22.507,-34.566c15.75,-3.328 31.239,6.757 34.567,22.506c8.432,39.908 16.275,79.079 23.527,116.928Zm-49.456,-233.442c3.675,15.672 -6.065,31.38 -21.738,35.055c-15.672,3.675 -31.38,-6.066 -35.055,-21.738c-8.949,-38.164 -18.419,-76.482 -28.408,-114.463c-4.095,-15.568 5.22,-31.532 20.788,-35.626c15.568,-4.095 31.531,5.22 35.626,20.788c10.123,38.485 19.719,77.312 28.787,115.984Zm-61.129,-231.249c4.625,15.418 -4.138,31.691 -19.557,36.317c-15.418,4.625 -31.692,-4.138 -36.317,-19.557c-11.492,-38.31 -23.547,-75.714 -36.167,-111.649c-5.333,-15.188 2.667,-31.85 17.855,-37.184c15.189,-5.333 31.85,2.667 37.184,17.855c12.91,36.763 25.246,75.026 37.002,114.218Zm-80.572,-226.765c6.355,14.79 -0.492,31.957 -15.282,38.313c-14.79,6.355 -31.957,-0.492 -38.313,-15.282c-16.192,-37.681 -33.152,-72.487 -50.911,-103.471c-8.005,-13.966 -3.165,-31.804 10.801,-39.809c13.966,-8.005 31.804,-3.165 39.809,10.801c18.788,32.779 36.765,69.585 53.896,109.448Zm-127.342,-211.229c11.134,11.626 10.735,30.104 -0.891,41.238c-11.626,11.134 -30.104,10.734 -41.238,-0.892c-12.921,-13.491 -26.159,-24.679 -39.828,-33.097c-13.707,-8.442 -17.982,-26.423 -9.54,-40.13c8.441,-13.706 26.423,-17.981 40.129,-9.54c17.586,10.83 34.747,25.065 51.368,42.421Z" style="fill:#f2e014;fill-opacity:0.37;"/><path d="M14349.4,3638.5c0,-0 -25.373,-976.845 -682.644,-1193.16" style="fill:none;stroke:#1c1c1c;stroke-opacity:0.37;stroke-width:58.33px;stroke-dasharray:116.67,116.67,116.67,116.67,116.67,116.67;"/></g></svg>