<?xml version="1.0" encoding="UTF-8" standalone="no"?><!DOCTYPE svg PUBLIC "-//W3C//DTD SVG 1.1//EN" "http://www.w3.org/Graphics/SVG/1.1/DTD/svg11.dtd"><svg width="100%" height="100%" viewBox="0 0 19500 14400" version="1.1" xmlns="http://www.w3.org/2000/svg" xmlns:xlink="http://www.w3.org/1999/xlink" xml:space="preserve" xmlns:serif="http://www.serif.com/" style="fill-rule:evenodd;clip-rule:evenodd;stroke-linejoin:round;stroke-miterlimit:2;"><g id="cording"><path d="M4014.31,5791.06l-1044.09,-393.199l135.507,-238.794l1120.7,435.078l-212.123,196.915Z" style="fill:#fa68b8;"/><path d="M3989.35,5857.35l-1044.09,-393.2c-19.379,-7.298 -34.594,-22.711 -41.641,-42.184c-7.048,-19.472 -5.221,-41.053 5,-59.063l135.506,-238.794c17.345,-30.565 54.479,-43.792 87.241,-31.073l1120.7,435.078c22.752,8.833 39.353,28.756 43.938,52.727c4.584,23.971 -3.495,48.614 -21.381,65.218l-212.124,196.916c-19.687,18.275 -48.017,23.842 -73.155,14.375Zm24.964,-66.289l212.123,-196.915l-1120.7,-435.078l-135.507,238.794l1044.09,393.199Z" style="fill:#787878;fill-opacity:0.16;"/><path d="M4308.35,5216.59c-0,-0 -1281.71,-197.593 -1351.91,-168.817c-70.201,28.777 -177.453,80.926 -41.285,170.739c136.167,89.812 1270.44,245.592 1360.25,251.386c89.812,5.794 32.942,-253.308 32.942,-253.308Z" style="fill:#fa68b8;"/><path d="M4377.54,5201.4c-0,0 30.252,144.922 14.185,229.547c-14.068,74.095 -58.085,113.684 -120.874,109.633c-63.438,-4.093 -643.327,-82.129 -1032.66,-159.796c-178.136,-35.536 -318.026,-74.121 -362.033,-103.146c-93.163,-61.448 -104.042,-122.626 -94.674,-165.024c6.512,-29.473 25.33,-57.183 54.118,-79.754c26.651,-20.896 63.065,-37.96 93.975,-50.631c8.579,-3.517 25.723,-7.728 50.973,-8.111c30.551,-0.464 83.098,3.039 150.391,9.666c365.242,35.966 1188.2,162.796 1188.2,162.796c28.919,4.458 52.121,26.239 58.394,54.82Zm-69.186,15.186c-0,-0 -1281.71,-197.593 -1351.91,-168.817c-70.201,28.777 -177.453,80.926 -41.285,170.739c136.167,89.812 1270.44,245.592 1360.25,251.386c89.812,5.794 32.942,-253.308 32.942,-253.308Z" style="fill:#787878;fill-opacity:0.16;"/><path d="M3210.24,5035.24c-0,-0 -34.814,-72.012 -144.521,-156.838c-109.706,-84.826 -18.223,-240.382 -171.383,-214.642c-153.16,25.741 -454.968,-10.585 -460.93,134.273c-5.961,144.859 -118.636,458.832 92.663,566.027c211.299,107.196 411.051,122.637 557.906,92.051c99.782,-20.782 126.265,-420.871 126.265,-420.871Z" style="fill:#fa68b8;"/><path d="M3280.92,5039.92c-0,0 -14.168,206.969 -58.538,338.726c-14.002,41.581 -31.565,76.513 -50.898,99.983c-21.673,26.31 -46.967,41.394 -73.065,46.829c-159.03,33.121 -375.579,17.856 -604.395,-98.226c-108.533,-55.061 -153.256,-150.887 -164.058,-260.023c-12.959,-130.929 28.994,-282.823 32.668,-372.086c2.985,-72.533 45.616,-121.71 117.451,-150.772c104.341,-42.212 291.12,-31.722 402.512,-50.442c50.933,-8.56 85.292,-1.365 109.613,10.838c31.296,15.703 51.261,40.973 63.576,74.767c7.85,21.542 11.886,48.23 18.059,76.349c4.964,22.612 11.14,47.9 35.203,66.505c126.373,97.712 164.965,182.044 164.965,182.044c5.337,11.039 7.716,23.274 6.907,35.508Zm-70.679,-4.678c-0,-0 -34.814,-72.012 -144.521,-156.838c-109.706,-84.826 -18.223,-240.382 -171.383,-214.642c-153.16,25.741 -454.968,-10.585 -460.93,134.273c-5.961,144.859 -118.636,458.832 92.663,566.027c211.299,107.196 411.051,122.637 557.906,92.051c99.782,-20.782 126.265,-420.871 126.265,-420.871Z" style="fill:#787878;fill-opacity:0.16;"/><path d="M3496.41,7720.66c0,-0 -1025.3,335.788 -1171.46,333.801c-146.159,-1.987 -458.849,-217.715 -458.849,-217.715l1046.51,-266.615l583.8,150.529Z" style="fill:#fa68b8;"/><path d="M3518.45,7787.97c-0,-0 -504.177,165.105 -856.99,263.491c-159.971,44.61 -290.928,74.455 -337.482,73.822c-51.258,-0.697 -120.564,-22.048 -191.739,-54.165c-147.374,-66.503 -306.372,-176.073 -306.372,-176.073c-22.862,-15.773 -34.396,-43.453 -29.499,-70.793c4.897,-27.34 25.321,-49.295 52.236,-56.152l1046.51,-266.615c11.542,-2.94 23.639,-2.923 35.173,0.051l583.8,150.529c30.468,7.856 52.102,34.869 53.111,66.318c1.009,31.449 -18.849,59.794 -48.751,69.587Zm-22.046,-67.315l-583.8,-150.529l-1046.51,266.615c-0,-0 312.69,215.728 458.849,217.715c146.159,1.987 1171.46,-333.801 1171.46,-333.801Z" style="fill:#787878;fill-opacity:0.16;"/><path d="M3182.25,7258.47c-0,-0 -461.057,301.625 -701.835,324.857c-240.778,23.232 -768.318,17.414 -768.318,17.414l-221.859,153.587c0,-0 76.826,152.121 211.271,196.707c134.445,44.585 1298.49,-21.62 1668.21,-438.547c369.723,-416.927 -187.468,-254.018 -187.468,-254.018Z" style="fill:#fa68b8;"/><path d="M3162.37,7190.48c0,-0 149.66,-42.698 253.561,-32.466c70.807,6.973 122.626,39.346 142.354,90.058c11.138,28.632 13.966,66.482 -3.76,115.423c-17.06,47.103 -56.828,111.429 -131.813,195.987c-193.39,218.082 -592.537,349.073 -962.902,415.078c-370.384,66.008 -710.272,67.027 -780.599,43.704c-159.604,-52.928 -252.202,-232.007 -252.202,-232.007c-15.94,-31.563 -6.163,-70.046 22.91,-90.172l221.858,-153.587c12.065,-8.352 26.426,-12.751 41.099,-12.589c0,-0 522.334,5.911 760.734,-17.091c230.278,-22.219 669.859,-313.627 669.859,-313.627c5.837,-3.819 12.206,-6.754 18.901,-8.711Zm19.878,67.987c-0,-0 -461.057,301.625 -701.835,324.857c-240.778,23.232 -768.318,17.414 -768.318,17.414l-221.859,153.587c0,-0 76.826,152.121 211.271,196.707c134.445,44.585 1298.49,-21.62 1668.21,-438.547c369.723,-416.927 -187.468,-254.018 -187.468,-254.018Z" style="fill:#787878;fill-opacity:0.16;"/><path d="M3496.41,6402.46c0,-0 -651.875,575.275 -646.791,637.082c5.085,61.806 -93.549,345.73 64.83,415.262c158.379,69.532 494.268,-730.089 673.418,-616.245c179.151,113.845 -91.457,-436.099 -91.457,-436.099Z" style="fill:#fa68b8;"/><path d="M3559.96,6371.18c-0,0 138.172,284.013 157.225,413.033c8.426,57.056 -7.912,97.089 -27.593,115.972c-23.574,22.619 -69.835,42.562 -139.721,-1.848c-4.484,-2.849 -8.751,2.046 -14.169,4.724c-8.976,4.436 -18.122,10.68 -27.595,18.153c-64.569,50.937 -135.756,149.927 -207.066,249.961c-93.299,130.881 -186.856,263.32 -262.328,319.192c-56.115,41.542 -109.203,48.405 -152.745,29.289c-88.949,-39.051 -126.112,-122.785 -132.001,-218.938c-4.11,-67.094 7.13,-139.848 16.505,-195.999c4.449,-26.649 9.492,-47.88 8.546,-59.376c-0.913,-11.097 0.28,-26.455 8.428,-44.614c8.869,-19.769 35.168,-55.376 75.305,-99.09c165.806,-180.581 586.784,-552.295 586.784,-552.295c16.549,-14.604 38.959,-20.659 60.61,-16.378c21.652,4.282 40.07,18.411 49.815,38.214Zm-63.556,31.274c0,-0 -651.875,575.275 -646.791,637.082c5.085,61.806 -93.549,345.73 64.83,415.262c158.379,69.532 494.268,-730.089 673.418,-616.245c179.151,113.845 -91.457,-436.099 -91.457,-436.099Z" style="fill:#787878;fill-opacity:0.16;"/><path d="M3502.35,7337.32c0,-0 -174.796,162.78 -101.401,290.953c73.395,128.172 214.057,171.128 331.875,59.977c117.819,-111.152 357.895,-658.644 357.895,-658.644l-240.299,-98.827l-348.07,406.541Z" style="fill:#fa68b8;"/><path d="M3450.67,7288.76l0.005,-0.005l345.937,-404.05c19.894,-23.236 52.457,-31.077 80.748,-19.442l240.299,98.828c17.636,7.253 31.602,21.311 38.741,38.993c7.138,17.683 6.845,37.498 -0.813,54.962c0,-0 -119.199,271.734 -231.634,473.405c-52.007,93.284 -103.88,171.86 -142.523,208.316c-79.16,74.68 -166.909,94.734 -246.28,77.445c-76.81,-16.732 -147.951,-70.41 -195.672,-153.747c-41.427,-72.345 -31.279,-152.573 1.165,-222.719c35.027,-75.731 95.149,-137.386 110.027,-151.986Zm51.678,48.554c0,-0 -174.796,162.78 -101.401,290.953c73.395,128.172 214.057,171.128 331.875,59.977c117.819,-111.152 357.895,-658.644 357.895,-658.644l-240.299,-98.827l-348.07,406.541Z" style="fill:#787878;fill-opacity:0.16;"/><path d="M1635.97,7528.64c0,-0 -124.746,-194.445 -251.423,-136.502c-126.677,57.944 -259.223,107.214 -331.411,236.13c-72.188,128.915 -85.708,206.38 -6.519,334.718c79.19,128.338 164.174,51.394 218.254,91.482c54.081,40.087 244.106,100.76 354.199,-0c110.093,-100.76 16.9,-525.828 16.9,-525.828Z" style="fill:#fa68b8;"/><path d="M1224.65,8112.8c-2.51,-0.199 -10.146,-0.766 -14.66,-0.693c-15.304,0.248 -31.488,1.266 -48.225,0.464c-55.473,-2.66 -117.486,-18.481 -175.432,-112.391c-49.049,-79.492 -67.079,-143.953 -63.976,-207.778c2.961,-60.893 26.315,-122.565 68.973,-198.744c79.934,-142.749 223.479,-201.775 363.75,-265.936c75.022,-34.316 150.333,-13.871 212.802,29.05c74.604,51.259 127.704,133.617 127.704,133.617c4.533,7.066 7.774,14.88 9.571,23.08c0,-0 47.715,219.49 36.796,387.575c-5.844,89.952 -31.609,165.904 -75.063,205.674c-70.749,64.752 -166.341,80.71 -253.775,70.963c-81.635,-9.101 -154.475,-40.538 -188.465,-64.881Zm411.317,-584.162c0,-0 -124.746,-194.445 -251.423,-136.502c-126.677,57.944 -259.223,107.214 -331.411,236.13c-72.188,128.915 -85.708,206.38 -6.519,334.718c79.19,128.338 164.174,51.394 218.254,91.482c54.081,40.087 244.106,100.76 354.199,-0c110.093,-100.76 16.9,-525.828 16.9,-525.828Z" style="fill:#787878;fill-opacity:0.16;"/><path d="M1228.01,7528.64c-0,-0 -124.746,-194.445 -251.423,-136.502c-126.678,57.944 -259.223,107.214 -331.411,236.13c-72.188,128.915 -85.709,206.38 -6.519,334.718c79.189,128.338 164.173,51.394 218.254,91.482c54.081,40.087 244.106,100.76 354.199,-0c110.092,-100.76 16.9,-525.828 16.9,-525.828Z" style="fill:#fa68b8;"/><path d="M816.69,8112.8c-2.51,-0.199 -10.145,-0.766 -14.659,-0.693c-15.305,0.248 -31.489,1.266 -48.225,0.464c-55.473,-2.66 -117.486,-18.481 -175.432,-112.391c-49.05,-79.492 -67.079,-143.953 -63.976,-207.778c2.96,-60.893 26.314,-122.565 68.972,-198.744c79.935,-142.749 223.48,-201.775 363.751,-265.936c75.021,-34.316 150.332,-13.871 212.801,29.05c74.604,51.259 127.705,133.617 127.705,133.617c4.532,7.066 7.773,14.88 9.571,23.08c-0,-0 47.714,219.49 36.795,387.575c-5.843,89.952 -31.609,165.904 -75.063,205.674c-70.749,64.752 -166.341,80.71 -253.775,70.963c-81.634,-9.101 -154.475,-40.538 -188.465,-64.881Zm411.318,-584.162c-0,-0 -124.746,-194.445 -251.423,-136.502c-126.678,57.944 -259.223,107.214 -331.411,236.13c-72.188,128.915 -85.709,206.38 -6.519,334.718c79.189,128.338 164.173,51.394 218.254,91.482c54.081,40.087 244.106,100.76 354.199,-0c110.092,-100.76 16.9,-525.828 16.9,-525.828Z" style="fill:#787878;fill-opacity:0.16;"/><path d="M762.268,7528.64c-0,-0 -124.746,-194.445 -251.423,-136.502c-126.677,57.944 -259.223,107.214 -331.411,236.13c-72.188,128.915 -85.709,206.38 -6.519,334.718c79.189,128.338 164.173,51.394 218.254,91.482c54.081,40.087 244.106,100.76 354.199,-0c110.092,-100.76 16.9,-525.828 16.9,-525.828Z" style="fill:#fa68b8;"/><path d="M350.95,8112.8c-2.51,-0.199 -10.145,-0.766 -14.659,-0.693c-15.304,0.248 -31.488,1.266 -48.225,0.464c-55.473,-2.66 -117.486,-18.481 -175.432,-112.391c-49.05,-79.492 -67.079,-143.953 -63.976,-207.778c2.96,-60.893 26.314,-122.565 68.972,-198.744c79.935,-142.749 223.48,-201.775 363.751,-265.936c75.021,-34.316 150.332,-13.871 212.802,29.05c74.603,51.259 127.704,133.617 127.704,133.617c4.532,7.066 7.773,14.88 9.571,23.08c-0,-0 47.714,219.49 36.795,387.575c-5.843,89.952 -31.609,165.904 -75.062,205.674c-70.75,64.752 -166.342,80.71 -253.775,70.963c-81.635,-9.101 -154.476,-40.538 -188.466,-64.881Zm411.318,-584.162c-0,-0 -124.746,-194.445 -251.423,-136.502c-126.677,57.944 -259.223,107.214 -331.411,236.13c-72.188,128.915 -85.709,206.38 -6.519,334.718c79.189,128.338 164.173,51.394 218.254,91.482c54.081,40.087 244.106,100.76 354.199,-0c110.092,-100.76 16.9,-525.828 16.9,-525.828Z" style="fill:#787878;fill-opacity:0.16;"/></g></svg>