<?xml version="1.0" encoding="UTF-8" standalone="no"?><!DOCTYPE svg PUBLIC "-//W3C//DTD SVG 1.1//EN" "http://www.w3.org/Graphics/SVG/1.1/DTD/svg11.dtd"><svg width="100%" height="100%" viewBox="0 0 19500 14400" version="1.1" xmlns="http://www.w3.org/2000/svg" xmlns:xlink="http://www.w3.org/1999/xlink" xml:space="preserve" xmlns:serif="http://www.serif.com/" style="fill-rule:evenodd;clip-rule:evenodd;stroke-linejoin:round;stroke-miterlimit:2;"><g id="cording"><path d="M4528.78,6052.45l-805.898,-303.498l104.593,-184.317l865.036,335.822l-163.731,151.993Z" style="fill:#fa68b8;"/><path d="M4503.82,6118.74l-805.898,-303.498c-19.379,-7.298 -34.594,-22.711 -41.641,-42.184c-7.047,-19.472 -5.22,-41.053 5,-59.063l104.593,-184.317c17.345,-30.566 54.478,-43.792 87.24,-31.073l865.036,335.823c22.751,8.832 39.353,28.755 43.938,52.726c4.584,23.971 -3.495,48.614 -21.382,65.219l-163.731,151.992c-19.687,18.275 -48.017,23.842 -73.155,14.375Zm24.964,-66.288l163.731,-151.993l-865.036,-335.822l-104.593,184.317l805.898,303.498Z" style="fill:#787878;fill-opacity:0.16;"/><path d="M4755.74,5609.04c-0,-0 -989.311,-152.516 -1043.5,-130.304c-54.186,22.212 -136.97,62.464 -31.867,131.788c105.104,69.323 980.612,189.564 1049.94,194.036c69.323,4.473 25.427,-195.52 25.427,-195.52Z" style="fill:#fa68b8;"/><path d="M4824.93,5593.85c-0,0 23.895,115.957 11.041,183.659c-12.699,66.884 -53.536,101.39 -110.215,97.734c-49.095,-3.168 -497.887,-63.513 -799.197,-123.621c-140.415,-28.01 -250.49,-59.094 -285.178,-81.973c-80.806,-53.297 -88.083,-107.578 -79.958,-144.352c4.689,-21.221 16.062,-41.305 33.818,-58.746c22.713,-22.31 59.388,-40.754 90.14,-53.36c6.597,-2.704 17.49,-5.903 32.82,-6.969c22.158,-1.541 68.507,0.953 130.319,7.04c282.189,27.788 918.016,125.768 918.016,125.768c28.919,4.458 52.121,26.24 58.394,54.82Zm-69.186,15.186c-0,-0 -989.311,-152.516 -1043.5,-130.304c-54.186,22.212 -136.97,62.464 -31.867,131.788c105.104,69.323 980.612,189.564 1049.94,194.036c69.323,4.473 25.427,-195.52 25.427,-195.52Z" style="fill:#787878;fill-opacity:0.16;"/><path d="M3908.14,5469.06c0,0 -26.871,-55.583 -111.55,-121.057c-84.68,-65.475 -14.066,-185.544 -132.286,-165.676c-118.219,19.869 -351.175,-8.17 -355.777,103.641c-4.601,111.812 -91.571,354.158 71.524,436.898c163.095,82.741 317.277,94.659 430.63,71.051c77.018,-16.041 97.459,-324.857 97.459,-324.857Z" style="fill:#fa68b8;"/><path d="M3978.82,5473.74c0,-0 -11.208,162.244 -45.993,265.541c-11.538,34.263 -26.198,62.952 -42.128,82.291c-19.406,23.558 -42.207,36.825 -65.575,41.691c-125.527,26.144 -296.507,14.401 -477.119,-77.226c-89.252,-45.279 -126.517,-123.775 -135.4,-213.523c-10.081,-101.846 22.292,-220.022 25.15,-289.457c2.577,-62.625 38.72,-105.599 100.742,-130.691c81.432,-32.944 227.134,-25.281 314.069,-39.891c43.949,-7.386 73.545,-0.672 94.531,9.858c27.961,14.03 46.006,36.429 57.008,66.621c6.275,17.218 9.607,38.524 14.54,60.999c3.107,14.151 6.214,30.37 21.273,42.014c101.347,78.362 131.995,146.264 131.995,146.264c5.337,11.039 7.717,23.274 6.907,35.509Zm-70.679,-4.679c0,0 -26.871,-55.583 -111.55,-121.057c-84.68,-65.475 -14.066,-185.544 -132.286,-165.676c-118.219,19.869 -351.175,-8.17 -355.777,103.641c-4.601,111.812 -91.571,354.158 71.524,436.898c163.095,82.741 317.277,94.659 430.63,71.051c77.018,-16.041 97.459,-324.857 97.459,-324.857Z" style="fill:#787878;fill-opacity:0.16;"/><path d="M4129.02,7541.85c-0,0 -791.399,259.185 -904.215,257.651c-112.815,-1.534 -354.171,-168.048 -354.171,-168.048l807.769,-205.791l450.617,116.188Z" style="fill:#fa68b8;"/><path d="M4151.07,7609.16c-0,-0 -389.564,127.569 -662.172,203.589c-125.598,35.025 -228.501,58.07 -265.052,57.573c-41.255,-0.561 -97.138,-17.388 -154.424,-43.237c-114.965,-51.878 -239.009,-137.334 -239.009,-137.334c-22.862,-15.772 -34.396,-43.452 -29.499,-70.792c4.897,-27.34 25.321,-49.295 52.237,-56.152l807.769,-205.792c11.542,-2.94 23.639,-2.923 35.173,0.051l450.616,116.188c30.469,7.856 52.103,34.87 53.112,66.319c1.009,31.449 -18.849,59.793 -48.751,69.587Zm-22.046,-67.316l-450.617,-116.188l-807.769,205.791c-0,0 241.356,166.514 354.171,168.048c112.816,1.534 904.215,-257.651 904.215,-257.651Z" style="fill:#787878;fill-opacity:0.16;"/><path d="M3886.54,7185.1c0,-0 -355.875,232.815 -541.723,250.747c-185.849,17.932 -593.041,13.441 -593.041,13.441l-171.245,118.549c-0,-0 59.299,117.417 163.073,151.832c103.774,34.414 1002.26,-16.687 1287.64,-338.5c285.378,-321.813 -144.7,-196.069 -144.7,-196.069Z" style="fill:#fa68b8;"/><path d="M3866.66,7117.11c0,-0 119.14,-33.774 201.834,-25.63c61.741,6.08 106.153,35.516 123.355,79.735c9.692,24.915 12.656,57.866 -2.769,100.453c-13.606,37.567 -45.042,89.056 -104.845,156.495c-151.218,170.525 -462.888,273.961 -752.489,325.572c-289.619,51.615 -555.448,51.4 -610.44,33.163c-128.933,-42.757 -204.005,-187.132 -204.005,-187.132c-15.94,-31.562 -6.162,-70.046 22.91,-90.172l171.246,-118.549c12.065,-8.352 26.426,-12.751 41.099,-12.589c-0,-0 401.985,4.584 585.456,-13.118c175.348,-16.919 509.748,-239.517 509.748,-239.517c5.837,-3.818 12.206,-6.754 18.9,-8.711Zm19.878,67.987c0,-0 -355.875,232.815 -541.723,250.747c-185.849,17.932 -593.041,13.441 -593.041,13.441l-171.245,118.549c-0,-0 59.299,117.417 163.073,151.832c103.774,34.414 1002.26,-16.687 1287.64,-338.5c285.378,-321.813 -144.7,-196.069 -144.7,-196.069Z" style="fill:#787878;fill-opacity:0.16;"/><path d="M4129.02,6524.37c-0,0 -503.162,444.037 -499.237,491.743c3.924,47.707 -72.208,266.858 50.039,320.528c122.248,53.669 381.51,-563.532 519.791,-475.66c138.28,87.873 -70.593,-336.611 -70.593,-336.611Z" style="fill:#fa68b8;"/><path d="M3559.08,7020.34c-0.638,-10.393 0.627,-24.401 7.98,-40.79c7.214,-16.078 28.324,-45.247 60.966,-80.798c128.329,-139.764 454.131,-427.486 454.131,-427.486c16.548,-14.604 38.958,-20.659 60.61,-16.378c21.651,4.282 40.07,18.411 49.814,38.215c0,-0 67.953,138.352 102.611,244.029c19.954,60.841 25.788,114.527 18.532,141.19c-8.946,32.878 -29.365,51.862 -55.376,60.785c-18.786,6.445 -49.496,9.1 -89.665,-14.06c-7.756,4.864 -28.686,18.451 -41.895,31.373c-43.181,42.24 -89.354,106.095 -135.398,170.687c-73.153,102.619 -146.852,206.175 -206.026,249.982c-49.147,36.383 -95.875,41.158 -134.01,24.416c-74.503,-32.709 -106.589,-102.263 -111.521,-182.8c-3.248,-53.033 5.52,-110.551 12.93,-154.934c2.977,-17.829 6.017,-41.12 6.317,-43.431Zm569.946,-495.964c-0,0 -503.162,444.037 -499.237,491.743c3.924,47.707 -72.208,266.858 50.039,320.528c122.248,53.669 381.51,-563.532 519.791,-475.66c138.28,87.873 -70.593,-336.611 -70.593,-336.611Z" style="fill:#787878;fill-opacity:0.16;"/><path d="M4133.61,7245.96c-0,0 -134.92,125.645 -78.269,224.577c56.652,98.933 165.224,132.089 256.164,46.295c90.941,-85.794 276.248,-508.386 276.248,-508.386l-185.479,-76.282l-268.664,313.796Z" style="fill:#fa68b8;"/><path d="M4081.85,7197.51l0.006,-0.007l266.615,-311.403c19.895,-23.237 52.458,-31.077 80.749,-19.442l185.479,76.282c17.636,7.253 31.602,21.31 38.741,38.993c7.138,17.683 6.845,37.498 -0.813,54.962c0,-0 -92.363,210.533 -179.475,366.786c-41.156,73.819 -82.455,135.828 -113.035,164.677c-65.721,62.003 -138.727,78.167 -204.624,63.812c-63.336,-13.796 -122.267,-57.714 -161.616,-126.431c-34.732,-60.652 -26.944,-127.915 0.256,-186.724c27.612,-59.7 74.601,-108.534 87.717,-121.505Zm51.764,48.453c-0,0 -134.92,125.645 -78.269,224.577c56.652,98.933 165.224,132.089 256.164,46.295c90.941,-85.794 276.248,-508.386 276.248,-508.386l-185.479,-76.282l-268.664,313.796Z" style="fill:#787878;fill-opacity:0.16;"/><path d="M2693.02,7393.64c-0,0 -96.288,-150.086 -194.066,-105.361c-97.778,44.725 -200.086,82.755 -255.805,182.26c-55.72,99.506 -66.156,159.299 -5.032,258.359c61.124,99.06 126.72,39.67 168.463,70.612c41.743,30.942 188.418,77.773 273.395,-0c84.977,-77.774 13.045,-405.87 13.045,-405.87Z" style="fill:#fa68b8;"/><path d="M2370.13,7860.43c-7.542,0.206 -30.091,0.73 -43.912,0.067c-46.827,-2.245 -99.473,-15.133 -148.388,-94.406c-40.017,-64.854 -54.301,-117.575 -51.769,-169.648c2.389,-49.139 20.854,-99.039 55.278,-160.514c63.468,-113.343 176.771,-161.124 288.145,-212.068c63.466,-29.03 127.281,-12.51 180.128,23.8c60.165,41.338 103.02,107.728 103.02,107.728c4.533,7.065 7.774,14.879 9.571,23.079c0,-0 37.297,171.974 28.743,303.665c-4.831,74.363 -27.231,136.748 -63.154,169.626c-58.193,53.26 -136.666,66.931 -208.581,58.913c-63.269,-7.053 -119.949,-30.869 -149.081,-50.242Zm322.884,-466.793c-0,0 -96.288,-150.086 -194.066,-105.361c-97.778,44.725 -200.086,82.755 -255.805,182.26c-55.72,99.506 -66.156,159.299 -5.032,258.359c61.124,99.06 126.72,39.67 168.463,70.612c41.743,30.942 188.418,77.773 273.395,-0c84.977,-77.774 13.045,-405.87 13.045,-405.87Z" style="fill:#787878;fill-opacity:0.16;"/><path d="M2378.12,7393.64c-0,0 -96.288,-150.086 -194.066,-105.361c-97.778,44.725 -200.086,82.755 -255.805,182.26c-55.72,99.506 -66.156,159.299 -5.032,258.359c61.124,99.06 126.72,39.67 168.463,70.612c41.743,30.942 188.418,77.773 273.395,-0c84.977,-77.774 13.045,-405.87 13.045,-405.87Z" style="fill:#fa68b8;"/><path d="M2055.24,7860.43c-7.542,0.206 -30.092,0.73 -43.913,0.067c-46.827,-2.245 -99.473,-15.133 -148.388,-94.406c-40.017,-64.854 -54.301,-117.575 -51.769,-169.648c2.389,-49.139 20.854,-99.039 55.278,-160.514c63.468,-113.343 176.771,-161.124 288.145,-212.068c63.466,-29.03 127.281,-12.51 180.128,23.8c60.165,41.338 103.021,107.728 103.021,107.728c4.532,7.065 7.773,14.879 9.571,23.079c-0,-0 37.296,171.974 28.742,303.665c-4.831,74.363 -27.231,136.748 -63.154,169.626c-58.193,53.26 -136.665,66.931 -208.581,58.913c-63.268,-7.053 -119.949,-30.869 -149.08,-50.242Zm322.883,-466.793c-0,0 -96.288,-150.086 -194.066,-105.361c-97.778,44.725 -200.086,82.755 -255.805,182.26c-55.72,99.506 -66.156,159.299 -5.032,258.359c61.124,99.06 126.72,39.67 168.463,70.612c41.743,30.942 188.418,77.773 273.395,-0c84.977,-77.774 13.045,-405.87 13.045,-405.87Z" style="fill:#787878;fill-opacity:0.16;"/><path d="M2018.63,7393.64c-0,0 -96.287,-150.086 -194.065,-105.361c-97.779,44.725 -200.086,82.755 -255.806,182.26c-55.72,99.506 -66.155,159.299 -5.032,258.359c61.124,99.06 126.721,39.67 168.464,70.612c41.743,30.942 188.417,77.773 273.394,-0c84.977,-77.774 13.045,-405.87 13.045,-405.87Z" style="fill:#fa68b8;"/><path d="M1695.75,7860.43c-7.542,0.206 -30.092,0.73 -43.912,0.067c-46.827,-2.245 -99.474,-15.133 -148.389,-94.406c-40.017,-64.854 -54.3,-117.575 -51.769,-169.648c2.389,-49.139 20.854,-99.039 55.279,-160.514c63.467,-113.343 176.77,-161.124 288.145,-212.068c63.465,-29.03 127.28,-12.51 180.127,23.8c60.166,41.338 103.021,107.728 103.021,107.728c4.533,7.065 7.773,14.879 9.571,23.079c-0,-0 37.297,171.974 28.742,303.665c-4.831,74.363 -27.231,136.748 -63.154,169.626c-58.192,53.26 -136.665,66.931 -208.581,58.913c-63.268,-7.053 -119.948,-30.869 -149.08,-50.242Zm322.883,-466.793c-0,0 -96.287,-150.086 -194.065,-105.361c-97.779,44.725 -200.086,82.755 -255.806,182.26c-55.72,99.506 -66.155,159.299 -5.032,258.359c61.124,99.06 126.721,39.67 168.464,70.612c41.743,30.942 188.417,77.773 273.394,-0c84.977,-77.774 13.045,-405.87 13.045,-405.87Z" style="fill:#787878;fill-opacity:0.16;"/></g></svg>