<?xml version="1.0" encoding="UTF-8" standalone="no"?><!DOCTYPE svg PUBLIC "-//W3C//DTD SVG 1.1//EN" "http://www.w3.org/Graphics/SVG/1.1/DTD/svg11.dtd"><svg width="100%" height="100%" viewBox="0 0 19500 14400" version="1.1" xmlns="http://www.w3.org/2000/svg" xmlns:xlink="http://www.w3.org/1999/xlink" xml:space="preserve" xmlns:serif="http://www.serif.com/" style="fill-rule:evenodd;clip-rule:evenodd;stroke-linejoin:round;stroke-miterlimit:2;"><g id="edges"><path d="M11716.4,12593.3l217.539,503.803c-0,-0 424.434,181.522 692.541,227.54c385.75,66.209 986.263,221.376 2433.16,-514.611c479.842,-244.08 1259.38,-1020.98 1259.38,-1020.98c0,-0 -943.95,792.155 -1673.18,1048.11c-729.225,255.954 -1227.27,267.195 -1750.76,166.838c-551.783,-105.78 -1178.68,-410.703 -1178.68,-410.703Z" style="fill:#fa68b8;"/><path d="M11763.7,12495.9c-0,-0 612.482,298.358 1151.69,401.727c506.7,97.137 988.651,85.082 1694.48,-162.662c714.886,-250.921 1639.41,-1028.87 1639.41,-1028.87c44.451,-37.304 110.402,-32.956 149.571,9.861c39.169,42.816 37.644,108.893 -3.459,149.856c0,0 -796.911,791.644 -1286.74,1040.8c-1486.51,756.14 -2104.29,592.846 -2500.6,524.824c-277.411,-47.615 -716.815,-234.706 -716.815,-234.706c-25.509,-10.91 -45.86,-31.19 -56.858,-56.661l-217.539,-503.802c-17.957,-41.587 -8.144,-89.956 24.601,-121.257c32.745,-31.3 81.507,-38.923 122.242,-19.109Zm-47.385,97.42l217.539,503.803c-0,-0 424.434,181.522 692.541,227.54c385.75,66.209 986.263,221.376 2433.16,-514.611c479.842,-244.08 1259.38,-1020.98 1259.38,-1020.98c0,-0 -943.95,792.155 -1673.18,1048.11c-729.225,255.954 -1227.27,267.195 -1750.76,166.838c-551.783,-105.78 -1178.68,-410.703 -1178.68,-410.703Z" style="fill-opacity:0.29;"/><path d="M10784.7,10557.9c0,0 -677.301,-44.989 -689.085,238.934c-11.783,283.923 -60.729,-141.962 0,-0c60.73,141.962 1883.89,1475.16 3535.25,1502.8c1651.36,27.634 2493.22,-813.132 3515.2,-1740.17c1021.98,-927.041 2085.13,-2873.61 2179.85,-3159.35c94.715,-285.742 201.242,-1298.26 -930.44,-2163.07c-1131.68,-864.808 -1371.54,-1034.52 -1371.54,-1034.52l1156.56,1775.5l-1233.72,3082.57l-3706.58,1664.9l-2455.49,-167.591Z" style="fill:#fa68b8;"/><path d="M5327.64,5662.57c-0,-0 60.993,528.237 -259.679,356.495c-323.045,-173.012 -780.595,-1210 -759.089,-1666.81c21.506,-456.807 8.58,-1149.4 1279.77,-2103.24c1271.19,-953.84 2183.3,-1190.57 2183.3,-1190.57l487.819,686.018l-2932.13,3918.11Z" style="fill:#fa68b8;"/></g></svg>