<?xml version="1.0" encoding="UTF-8" standalone="no"?>
<!DOCTYPE svg PUBLIC "-//W3C//DTD SVG 1.1//EN" "http://www.w3.org/Graphics/SVG/1.1/DTD/svg11.dtd">
<svg width="100%" height="100%" viewBox="0 0 19500 14400" version="1.1"
  xmlns="http://www.w3.org/2000/svg" xmlns:xlink="http://www.w3.org/1999/xlink" xml:space="preserve"
  xmlns:serif="http://www.serif.com/"
  style="fill-rule:evenodd;clip-rule:evenodd;stroke-linejoin:round;stroke-miterlimit:2;">
  <g id="edges">
    <path d="M10473.7,11302.9l167.911,388.869c0,-0 327.608,140.111 534.551,175.63c297.747,51.105 761.264,170.873 1878.08,-397.211c370.374,-188.398 972.075,-788.059 972.075,-788.059c0,-0 -728.605,611.439 -1291.47,809.002c-562.866,197.563 -947.288,206.239 -1351.36,128.777c-425.904,-81.648 -909.787,-317.008 -909.787,-317.008Z" style="fill:#fa68b8;"/><path d="M10521.1,11205.4c-0,0 469.467,228.795 882.799,308.033c387.274,74.243 755.606,64.752 1295.08,-124.601c548.527,-192.53 1257.71,-789.767 1257.71,-789.767c44.451,-37.303 110.402,-32.955 149.571,9.861c39.17,42.817 37.644,108.893 -3.458,149.857c-0,-0 -619.074,614.409 -999.433,807.885c-1156.43,588.238 -1637.21,460.342 -1945.52,407.424c-216.248,-37.116 -558.825,-182.796 -558.825,-182.796c-25.508,-10.91 -45.859,-31.19 -56.858,-56.661l-167.911,-388.869c-17.957,-41.587 -8.144,-89.956 24.601,-121.256c32.745,-31.3 81.507,-38.923 122.242,-19.11Zm-47.385,97.421l167.911,388.869c0,-0 327.608,140.111 534.551,175.63c297.747,51.105 761.264,170.873 1878.08,-397.211c370.374,-188.398 972.075,-788.059 972.075,-788.059c0,-0 -728.605,611.439 -1291.47,809.002c-562.866,197.563 -947.288,206.239 -1351.36,128.777c-425.904,-81.648 -909.787,-317.008 -909.787,-317.008Z" style="fill-opacity:0.29;"/><path d="M9754.63,9731.85c0,-0 -522.787,-34.726 -531.882,184.425c-9.095,219.151 -46.875,-109.576 0,-0c46.875,109.576 1454.11,1138.63 2728.75,1159.96c1274.63,21.33 1924.43,-627.631 2713.27,-1343.18c788.833,-715.553 1609.45,-2218.05 1682.55,-2438.6c73.108,-220.555 155.333,-1002.09 -718.177,-1669.61c-873.509,-667.517 -1058.64,-798.509 -1058.64,-798.509l892.71,1370.45l-952.272,2379.34l-2860.99,1285.09l-1895.32,-129.358Z" style="fill:#fa68b8;"/><path d="M9133.75,9791.05c33.492,-54.64 88.849,-97.249 160.062,-126.748c178.251,-73.837 469.106,-57.184 469.106,-57.184c0.076,0.005 0.152,0.01 0.227,0.015l1864.12,127.228l2786.39,-1251.58c-0,0 909.383,-2272.18 909.383,-2272.18l-857.275,-1316.05c-32.742,-50.264 -25.161,-116.701 18.064,-158.296c43.225,-41.595 109.904,-46.619 158.873,-11.971c0,0 185.81,131.401 1062.34,801.23c942.871,720.522 839.843,1570.19 760.93,1808.25c-74.676,225.284 -911.477,1760.96 -1717.22,2491.86c-812.681,737.186 -1486.17,1397.56 -2799.34,1375.58c-1048.48,-17.546 -2185.41,-695.183 -2622.45,-1024.44c-29.989,-22.593 -56.848,-43.692 -80.389,-62.967c-43.98,14.083 -93.599,9.126 -135.559,-45.116c-9.242,-11.946 -28.012,-49.898 -33.432,-97.056c-4.257,-37.045 -2.385,-80.27 2.96,-101.532c8.036,-31.97 23.979,-52.849 37.149,-65.622c5.198,-5.04 10.557,-9.506 16.062,-13.427Zm89.001,125.218c46.875,109.576 1454.11,1138.63 2728.75,1159.96c1274.63,21.33 1924.43,-627.631 2713.27,-1343.18c788.833,-715.553 1609.45,-2218.05 1682.55,-2438.6c73.108,-220.555 155.333,-1002.09 -718.177,-1669.61c-873.509,-667.517 -1058.64,-798.509 -1058.64,-798.509l892.71,1370.45l-952.272,2379.34l-2860.99,1285.09l-1895.32,-129.358c0,-0 -522.787,-34.726 -531.882,184.425Zm0,-0c-46.875,-109.576 -9.095,219.151 0,-0Zm160.58,-18.426c59.993,49.916 163.506,132.664 278.13,209.395c495.782,331.88 1424.95,829.499 2292.13,844.011c1236.11,20.686 1862.2,-616.858 2627.19,-1310.79c771.921,-700.212 1576.35,-2169.52 1647.89,-2385.35c67.308,-203.057 128.788,-916.394 -675.424,-1530.95c-198.025,-151.326 -360.547,-274.986 -493.471,-375.733l508.175,780.126c22.214,34.103 26.435,76.887 11.312,114.673l-952.272,2379.34c-12.038,30.077 -35.282,54.305 -64.833,67.579l-2860.99,1285.09c-18.73,8.413 -39.244,12.083 -59.729,10.684l-1895.09,-129.342c-0.051,-0.003 -0.127,-0.009 -0.227,-0.015c-6.899,-0.462 -169.895,-10.92 -302.499,21.539c-21.462,5.254 -42.065,11.509 -60.292,19.75Z" style="fill-opacity:0.21;"/><path d="M5542.49,5953.28c-0,0 47.078,407.729 -200.438,275.168c-249.348,-133.543 -602.516,-933.963 -585.916,-1286.56c16.6,-352.594 6.623,-887.185 987.815,-1623.42c981.193,-736.239 1685.22,-918.965 1685.22,-918.965l376.531,529.515l-2263.21,3024.26Z" style="fill:#fa68b8;"/>
  </g>
</svg>