<?xml version="1.0" encoding="UTF-8" standalone="no"?><!DOCTYPE svg PUBLIC "-//W3C//DTD SVG 1.1//EN" "http://www.w3.org/Graphics/SVG/1.1/DTD/svg11.dtd"><svg width="100%" height="100%" viewBox="0 0 19500 14400" version="1.1" xmlns="http://www.w3.org/2000/svg" xmlns:xlink="http://www.w3.org/1999/xlink" xml:space="preserve" xmlns:serif="http://www.serif.com/" style="fill-rule:evenodd;clip-rule:evenodd;stroke-linejoin:round;stroke-miterlimit:2;"><g id="top-secondary" serif:id="top secondary"><path d="M4580.09,5313.92c474.488,900.894 914.994,1071.64 914.994,1071.64c0,-0 -58.588,-472.741 396.264,-763.369c454.852,-290.628 4425.09,-3213.39 4425.09,-3213.39c-0,-0 397.051,-330.097 529.729,-345.968c132.679,-15.872 -609.75,-402.637 -609.75,-402.637c0,-0 -1000.51,-278.05 -1730.21,-84.105c-375.225,99.73 -1467.96,95.066 -3558.84,1828.32c-1037.39,859.949 -367.277,1909.52 -367.277,1909.52Z" style="fill:#f3c04d;"/><path d="M4489.68,5365.79l-0.006,-0.011c-46.366,-75.429 -680.26,-1153.37 391.214,-2041.57c2114.23,-1752.61 3219.15,-1747.95 3598.57,-1848.79c752.698,-200.058 1784.86,84.414 1784.86,84.414c7.005,1.946 13.787,4.621 20.235,7.98c-0,0 491.348,257.77 617.851,368.745c33.681,29.546 50.788,58.055 57.189,76.51c13.065,37.668 6.516,69.428 -8.564,95.388c-13.504,23.247 -38.979,51.406 -92.48,57.806c-30.314,3.626 -76.718,32.913 -129.672,66.365c-157.291,99.365 -345.837,256.274 -345.837,256.274c-1.575,1.309 -3.189,2.572 -4.838,3.787c-0,-0 -3975.34,2926.29 -4430.76,3217.28c-396.122,253.102 -348.974,662.778 -348.974,662.778c4.508,36.37 -10.429,72.433 -39.332,94.965c-28.903,22.532 -67.52,28.218 -101.691,14.973c0,-0 -469.547,-172.648 -967.756,-1116.89Zm90.409,-51.871c474.488,900.894 914.994,1071.64 914.994,1071.64c0,-0 -58.588,-472.741 396.264,-763.369c454.852,-290.628 4425.09,-3213.39 4425.09,-3213.39c-0,-0 397.051,-330.097 529.729,-345.968c132.679,-15.872 -609.75,-402.637 -609.75,-402.637c0,-0 -1000.51,-278.05 -1730.21,-84.105c-375.225,99.73 -1467.96,95.066 -3558.84,1828.32c-1037.39,859.949 -367.277,1909.52 -367.277,1909.52Z" style="fill:#f3c04d;fill-opacity:0.31;"/></g></svg>