<?xml version="1.0" encoding="UTF-8" standalone="no"?><!DOCTYPE svg PUBLIC "-//W3C//DTD SVG 1.1//EN" "http://www.w3.org/Graphics/SVG/1.1/DTD/svg11.dtd"><svg width="100%" height="100%" viewBox="0 0 19500 14400" version="1.1" xmlns="http://www.w3.org/2000/svg" xmlns:xlink="http://www.w3.org/1999/xlink" xml:space="preserve" xmlns:serif="http://www.serif.com/" style="fill-rule:evenodd;clip-rule:evenodd;stroke-linejoin:round;stroke-miterlimit:2;"><path d="M5154.01,5364.24c414.628,787.242 799.562,936.447 799.562,936.447c0,-0 -51.197,-413.102 346.273,-667.066c397.47,-253.964 3866.84,-2808.01 3866.84,-2808.01c-0,0 346.961,-288.453 462.901,-302.322c115.94,-13.869 -532.827,-351.842 -532.827,-351.842c0,-0 -874.292,-242.973 -1511.93,-73.495c-327.888,87.149 -1282.77,83.073 -3109.88,1597.66c-906.515,751.462 -320.943,1668.62 -320.943,1668.62Z" style="fill:#f3c04d;"/><path d="M5063.58,5416.06c-43.466,-70.878 -597.938,-1019.07 344.897,-1800.64c1850.46,-1533.95 2817.52,-1529.88 3149.6,-1618.14c660.643,-175.59 1566.58,73.804 1566.58,73.804c7.005,1.946 13.787,4.621 20.235,7.98c-0,0 431.405,226.543 542.501,324.001c42.858,37.597 56.99,76.236 59.465,97.371c3.073,26.249 -2.601,49.219 -14.278,69.321c-13.252,22.815 -38.109,50.68 -90.616,56.961c-25.294,3.026 -63.668,28.14 -107.855,56.055c-136.823,86.434 -300.825,222.938 -300.825,222.938c-1.575,1.31 -3.189,2.573 -4.838,3.787c-0,0 -3474.47,2557.57 -3872.51,2811.9c-338.741,216.44 -298.983,566.476 -298.983,566.476c4.508,36.37 -10.429,72.432 -39.332,94.964c-28.903,22.532 -67.52,28.218 -101.691,14.973c0,0 -413.986,-151.111 -852.348,-981.744Zm90.433,-51.828c414.628,787.242 799.562,936.447 799.562,936.447c0,-0 -51.197,-413.102 346.273,-667.066c397.47,-253.964 3866.84,-2808.01 3866.84,-2808.01c-0,0 346.961,-288.453 462.901,-302.322c115.94,-13.869 -532.827,-351.842 -532.827,-351.842c0,-0 -874.292,-242.973 -1511.93,-73.495c-327.888,87.149 -1282.77,83.073 -3109.88,1597.66c-906.515,751.462 -320.943,1668.62 -320.943,1668.62Z" style="fill:#323232;fill-opacity:0.31;"/></svg>