<?xml version="1.0" encoding="UTF-8" standalone="no"?><!DOCTYPE svg PUBLIC "-//W3C//DTD SVG 1.1//EN" "http://www.w3.org/Graphics/SVG/1.1/DTD/svg11.dtd"><svg width="100%" height="100%" viewBox="0 0 19500 14400" version="1.1" xmlns="http://www.w3.org/2000/svg" xmlns:xlink="http://www.w3.org/1999/xlink" xml:space="preserve" xmlns:serif="http://www.serif.com/" style="fill-rule:evenodd;clip-rule:evenodd;stroke-linejoin:round;stroke-miterlimit:2;"><g id="cording"><path d="M3864.6,6101.5l-922.244,-347.314l119.693,-210.926l989.919,384.304l-187.368,173.936Z" style="fill:#202020;"/><path d="M3839.64,6167.78l-922.244,-347.313c-19.38,-7.299 -34.595,-22.712 -41.642,-42.184c-7.047,-19.472 -5.22,-41.053 5,-59.064l119.693,-210.926c17.345,-30.566 54.479,-43.792 87.241,-31.073l989.919,384.305c22.752,8.832 39.354,28.755 43.938,52.726c4.584,23.971 -3.495,48.614 -21.381,65.219l-187.369,173.935c-19.687,18.275 -48.017,23.842 -73.155,14.375Zm24.964,-66.288l187.368,-173.936l-989.919,-384.304l-119.693,210.926l922.244,347.314Z" style="fill-opacity:0.16;"/><path d="M4124.33,5594.07c0,0 -1132.13,-174.534 -1194.14,-149.116c-62.009,25.419 -156.744,71.482 -36.467,150.814c120.276,79.331 1122.18,216.931 1201.51,222.049c79.332,5.118 29.098,-223.747 29.098,-223.747Z" style="fill:#202020;"/><path d="M4193.51,5578.88c0,0 27,130.105 12.577,206.074c-13.368,70.405 -55.758,107.395 -115.421,103.546c-56.101,-3.62 -568.929,-72.607 -913.234,-141.291c-158.84,-31.686 -283.479,-66.434 -322.719,-92.315c-86.84,-57.278 -95.878,-114.93 -87.146,-154.45c4.964,-22.464 17.086,-43.675 35.881,-62.138c25.139,-24.694 65.829,-44.944 99.866,-58.896c8.088,-3.316 24.229,-7.42 48.034,-7.782c27.176,-0.412 73.919,2.683 133.776,8.577c322.757,31.783 1049.99,143.855 1049.99,143.855c28.919,4.458 52.12,26.24 58.393,54.82Zm-69.186,15.186c0,0 -1132.13,-174.534 -1194.14,-149.116c-62.009,25.419 -156.744,71.482 -36.467,150.814c120.276,79.331 1122.18,216.931 1201.51,222.049c79.332,5.118 29.098,-223.747 29.098,-223.747Z" style="fill-opacity:0.16;"/><path d="M3154.36,5433.88c0,0 -30.751,-63.608 -127.655,-138.534c-96.904,-74.927 -16.096,-212.33 -151.383,-189.594c-135.287,22.737 -401.874,-9.35 -407.14,118.604c-5.265,127.954 -104.791,405.286 81.85,499.972c186.64,94.686 363.081,108.324 492.799,81.308c88.137,-18.357 111.529,-371.756 111.529,-371.756Z" style="fill:#202020;"/><path d="M3225.04,5438.56c-0,-0 -12.654,184.09 -52.12,301.288c-12.742,37.838 -28.82,69.577 -46.412,90.933c-20.514,24.902 -44.532,39.057 -69.234,44.201c-141.891,29.552 -335.13,16.089 -539.288,-87.484c-98.669,-50.057 -139.578,-137.018 -149.398,-236.236c-11.487,-116.052 25.566,-250.698 28.822,-329.818c2.776,-67.464 42.089,-113.469 108.904,-140.5c92.622,-37.471 258.388,-28.426 357.269,-45.045c47.36,-7.959 79.283,-1.01 101.898,10.338c29.59,14.847 48.573,38.648 60.217,70.6c7.044,19.329 10.72,43.264 16.259,68.497c4.013,18.282 8.621,38.932 28.077,53.976c113.571,87.814 148.099,163.741 148.099,163.741c5.337,11.039 7.717,23.274 6.907,35.509Zm-70.679,-4.679c0,0 -30.751,-63.608 -127.655,-138.534c-96.904,-74.927 -16.096,-212.33 -151.383,-189.594c-135.287,22.737 -401.874,-9.35 -407.14,118.604c-5.265,127.954 -104.791,405.286 81.85,499.972c186.64,94.686 363.081,108.324 492.799,81.308c88.137,-18.357 111.529,-371.756 111.529,-371.756Z" style="fill-opacity:0.16;"/><path d="M3291.62,8046.7c-0,0 -905.652,296.603 -1034.75,294.848c-129.103,-1.756 -405.303,-192.309 -405.303,-192.309l924.386,-235.501l515.671,132.962Z" style="fill:#202020;"/><path d="M3313.67,8114.01c-0,-0 -445.547,145.903 -757.333,232.849c-142.388,39.706 -258.994,66.073 -300.43,65.509c-46.142,-0.627 -108.582,-19.664 -172.651,-48.575c-130.796,-59.021 -271.913,-156.256 -271.913,-156.256c-22.863,-15.773 -34.397,-43.452 -29.5,-70.792c4.897,-27.34 25.321,-49.295 52.237,-56.153l924.386,-235.501c11.542,-2.94 23.639,-2.923 35.172,0.051l515.671,132.962c30.469,7.856 52.103,34.87 53.112,66.319c1.009,31.449 -18.849,59.793 -48.751,69.587Zm-22.046,-67.316l-515.671,-132.962l-924.386,235.501c0,0 276.2,190.553 405.303,192.309c129.102,1.755 1034.75,-294.848 1034.75,-294.848Z" style="fill-opacity:0.16;"/><path d="M3014.13,7638.44c0,-0 -407.252,266.426 -619.931,286.946c-212.679,20.521 -678.656,15.382 -678.656,15.382l-195.968,135.664c-0,-0 67.86,134.369 186.615,173.751c118.755,39.382 1146.95,-19.096 1473.53,-387.368c326.578,-368.273 -165.59,-224.375 -165.59,-224.375Z" style="fill:#202020;"/><path d="M2994.25,7570.46c0,-0 134.048,-38.133 227.101,-28.969c66.168,6.516 114.2,37.387 132.635,84.777c10.398,26.73 13.296,62.075 -3.253,107.765c-15.294,42.225 -50.799,99.985 -118.018,175.785c-171.818,193.755 -526.216,310.651 -855.267,369.293c-329.069,58.645 -631.073,59.033 -693.556,38.312c-143.914,-47.726 -227.547,-209.053 -227.547,-209.053c-15.94,-31.562 -6.162,-70.045 22.91,-90.171l195.968,-135.664c12.065,-8.352 26.426,-12.751 41.099,-12.589c-0,-0 460.77,5.233 671.072,-15.058c202.179,-19.508 587.956,-275.717 587.956,-275.717c5.837,-3.819 12.206,-6.754 18.9,-8.711Zm19.878,67.987c0,-0 -407.252,266.426 -619.931,286.946c-212.679,20.521 -678.656,15.382 -678.656,15.382l-195.968,135.664c-0,-0 67.86,134.369 186.615,173.751c118.755,39.382 1146.95,-19.096 1473.53,-387.368c326.578,-368.273 -165.59,-224.375 -165.59,-224.375Z" style="fill-opacity:0.16;"/><path d="M3286.63,6885.62c20.215,-68.757 -570.813,504.852 -566.322,559.446c4.491,54.593 -82.633,305.383 57.264,366.801c139.896,61.418 492.039,-654.644 657.231,-565.961c23.897,12.83 -185.374,-233.752 -148.173,-360.286Z" style="fill:#202020;"/><path d="M3403.17,7309.29c-1.803,0.394 -6.245,1.418 -8.932,2.492c-11.169,4.465 -22.737,11.968 -34.983,21.257c-63.506,48.176 -135.359,138.573 -206.901,229.439c-93.291,118.491 -186.288,237.549 -258.227,287.912c-54.88,38.42 -105.576,43.655 -145.031,26.333c-81.559,-35.806 -116.125,-112.287 -121.525,-200.451c-3.669,-59.902 6.307,-124.862 14.677,-174.993c3.78,-22.638 8.267,-40.643 7.464,-50.408c-0.822,-9.985 0.028,-23.829 6.763,-40.373c6.748,-16.578 26.662,-46.735 57.963,-84.086c127.658,-152.333 460.484,-469.824 527.727,-505.776c41.989,-22.451 72.883,-6.754 85.37,2.219c17.712,12.729 40.435,37.222 27.051,82.743c-9.419,32.038 9.479,73.689 29.253,115.161c41.83,87.727 105.139,170.585 114.748,189.469c21.696,42.641 -0.007,72.114 -7.277,80.962c-10.97,13.352 -25.796,22.923 -46.264,25.478c-8.761,1.094 -23.458,1.946 -41.876,-7.378Zm-116.541,-423.672c20.215,-68.757 -570.813,504.852 -566.322,559.446c4.491,54.593 -82.633,305.383 57.264,366.801c139.896,61.418 492.039,-654.644 657.231,-565.961c23.897,12.83 -185.374,-233.752 -148.173,-360.286Z" style="fill-opacity:0.16;"/><path d="M3296.87,7708.09c0,0 -154.398,143.784 -89.568,256.999c64.83,113.215 189.077,151.158 293.146,52.978c104.07,-98.18 316.129,-581.781 316.129,-581.781c-0,0 -167.628,-42.458 -236.618,-101.152c-63.1,-53.683 -283.089,372.956 -283.089,372.956Z" style="fill:#202020;"/><path d="M3239.28,7665.49l0.001,-0.001c27.627,-51.792 155.7,-287.448 238.983,-364.257c58.239,-53.711 114.42,-48.275 147.592,-20.054c60.416,51.399 208.112,86.438 208.112,86.438c20.185,5.113 37.097,18.848 46.243,37.554c9.145,18.706 9.597,40.488 1.235,59.557c0,0 -105.471,240.428 -204.952,418.865c-46.456,83.327 -92.92,153.428 -127.439,185.993c-72.285,68.195 -152.493,86.26 -224.972,70.471c-69.917,-15.23 -134.812,-63.915 -178.25,-139.773c-38.002,-66.364 -29.062,-139.96 0.7,-204.306c27.839,-60.192 73.29,-110.506 92.747,-130.487Zm57.589,42.595c0,0 -154.398,143.784 -89.568,256.999c64.83,113.215 189.077,151.158 293.146,52.978c104.07,-98.18 316.129,-581.781 316.129,-581.781c-0,0 -167.628,-42.458 -236.618,-101.152c-63.1,-53.683 -283.089,372.956 -283.089,372.956Z" style="fill-opacity:0.16;"/><path d="M1648.3,7877.09c-0,-0 -110.188,-171.754 -222.083,-120.572c-111.894,51.181 -228.972,94.702 -292.735,208.573c-63.764,113.871 -75.707,182.296 -5.758,295.657c69.948,113.361 145.014,45.397 192.784,80.806c47.769,35.41 215.619,89.002 312.864,0c97.245,-89.001 14.928,-464.464 14.928,-464.464Z" style="fill:#202020;"/><path d="M1282.15,8401.19c-6.943,0.165 -35.827,0.773 -53.107,-0.056c-51.05,-2.447 -108.271,-16.768 -161.598,-103.191c-44.429,-72.003 -60.542,-130.459 -57.731,-188.273c2.668,-54.88 23.521,-110.53 61.967,-179.188c71.511,-127.706 199.586,-180.98 325.075,-238.38c69.111,-31.611 138.541,-13.174 196.088,26.365c67.218,46.184 115.078,120.374 115.078,120.374c4.532,7.065 7.773,14.879 9.571,23.079c-0,-0 42.385,195.183 32.676,344.651c-5.326,81.978 -29.37,150.991 -68.971,187.235c-64.326,58.873 -151.161,73.661 -230.657,64.799c-72.252,-8.055 -136.837,-35.598 -168.391,-57.415Zm366.153,-524.101c-0,-0 -110.188,-171.754 -222.083,-120.572c-111.894,51.181 -228.972,94.702 -292.735,208.573c-63.764,113.871 -75.707,182.296 -5.758,295.657c69.948,113.361 145.014,45.397 192.784,80.806c47.769,35.41 215.619,89.002 312.864,0c97.245,-89.001 14.928,-464.464 14.928,-464.464Z" style="fill-opacity:0.16;"/><path d="M1287.94,7877.09c0,-0 -110.188,-171.754 -222.082,-120.572c-111.894,51.181 -228.972,94.702 -292.736,208.573c-63.764,113.871 -75.706,182.296 -5.758,295.657c69.948,113.361 145.015,45.397 192.784,80.806c47.77,35.41 215.619,89.002 312.864,0c97.245,-89.001 14.928,-464.464 14.928,-464.464Z" style="fill:#202020;"/><path d="M921.791,8401.19c-6.942,0.165 -35.826,0.773 -53.106,-0.056c-51.05,-2.447 -108.272,-16.768 -161.598,-103.191c-44.429,-72.003 -60.542,-130.459 -57.732,-188.273c2.668,-54.88 23.522,-110.53 61.968,-179.188c71.511,-127.706 199.586,-180.98 325.075,-238.38c69.11,-31.611 138.541,-13.174 196.087,26.365c67.218,46.184 115.078,120.374 115.078,120.374c4.533,7.065 7.773,14.879 9.571,23.079c0,-0 42.385,195.183 32.676,344.651c-5.325,81.978 -29.37,150.991 -68.971,187.235c-64.326,58.873 -151.161,73.661 -230.656,64.799c-72.252,-8.055 -136.837,-35.598 -168.392,-57.415Zm366.153,-524.101c0,-0 -110.188,-171.754 -222.082,-120.572c-111.894,51.181 -228.972,94.702 -292.736,208.573c-63.764,113.871 -75.706,182.296 -5.758,295.657c69.948,113.361 145.015,45.397 192.784,80.806c47.77,35.41 215.619,89.002 312.864,0c97.245,-89.001 14.928,-464.464 14.928,-464.464Z" style="fill-opacity:0.16;"/><path d="M876.555,7877.09c0,-0 -110.188,-171.754 -222.082,-120.572c-111.894,51.181 -228.972,94.702 -292.736,208.573c-63.763,113.871 -75.706,182.296 -5.757,295.657c69.948,113.361 145.014,45.397 192.784,80.806c47.769,35.41 215.618,89.002 312.864,0c97.245,-89.001 14.927,-464.464 14.927,-464.464Z" style="fill:#202020;"/><path d="M510.402,8401.19c-6.942,0.165 -35.826,0.773 -53.106,-0.056c-51.05,-2.447 -108.271,-16.768 -161.598,-103.191c-44.429,-72.003 -60.542,-130.459 -57.731,-188.273c2.668,-54.88 23.521,-110.53 61.967,-179.188c71.511,-127.706 199.586,-180.98 325.075,-238.38c69.11,-31.611 138.541,-13.174 196.088,26.365c67.218,46.184 115.077,120.374 115.077,120.374c4.533,7.065 7.774,14.879 9.571,23.079c0,-0 42.386,195.183 32.676,344.651c-5.325,81.978 -29.369,150.991 -68.971,187.235c-64.325,58.873 -151.16,73.661 -230.656,64.799c-72.252,-8.055 -136.837,-35.598 -168.392,-57.415Zm366.153,-524.101c0,-0 -110.188,-171.754 -222.082,-120.572c-111.894,51.181 -228.972,94.702 -292.736,208.573c-63.763,113.871 -75.706,182.296 -5.757,295.657c69.948,113.361 145.014,45.397 192.784,80.806c47.769,35.41 215.618,89.002 312.864,0c97.245,-89.001 14.927,-464.464 14.927,-464.464Z" style="fill-opacity:0.16;"/></g></svg>