<?xml version="1.0" encoding="UTF-8" standalone="no"?><!DOCTYPE svg PUBLIC "-//W3C//DTD SVG 1.1//EN" "http://www.w3.org/Graphics/SVG/1.1/DTD/svg11.dtd"><svg width="100%" height="100%" viewBox="0 0 19500 14400" version="1.1" xmlns="http://www.w3.org/2000/svg" xmlns:xlink="http://www.w3.org/1999/xlink" xml:space="preserve" xmlns:serif="http://www.serif.com/" style="fill-rule:evenodd;clip-rule:evenodd;stroke-linejoin:round;stroke-miterlimit:2;"><path d="M6035.01,6860.94l3809.88,3408.45c0,0 1884.79,1437.61 3524.44,830.643c1639.66,-606.969 3596.02,-3342.16 3596.02,-3342.16c0,-0 783.399,-949.247 -468.164,-2129.47c-1251.56,-1180.23 -1203.36,-960.672 -1484.93,-1158.11c-281.572,-197.439 -3463.68,-2066.11 -3463.68,-2066.11c-0,-0 24.022,-469.908 -3026.81,1615.02c-3050.84,2084.92 -2486.76,2841.75 -2486.76,2841.75Z" style="fill:#0d7f78;"/><path d="M5921.42,6945.59c-0,0 -207.614,-237.246 87.957,-790.445c245.304,-459.118 875.52,-1188.92 2432.46,-2252.92c1291.69,-882.735 2036.99,-1310.53 2466.56,-1510.55c319.551,-148.793 484.902,-177.344 568.203,-174.284c101.828,3.742 146.622,44.984 170.692,73.057c3.936,4.59 7.52,9.181 10.782,13.746c359.52,211.299 3171.26,1864.79 3435.52,2050.09c284.631,199.583 235.634,-22.012 1500.79,1171.04c535.65,505.121 717.539,973.703 749.437,1350.55c46.905,554.144 -230.871,923.862 -265.65,967.761c-45.808,63.646 -739.614,1021.78 -1634.47,1917.84c-626.898,627.746 -1353.07,1222.6 -2025.19,1471.4c-686.736,254.217 -1414.59,169.571 -2040.73,-27.926c-921.744,-290.737 -1618.81,-822.932 -1618.81,-822.932c-2.938,-2.241 -5.787,-4.596 -8.54,-7.059l-3809.88,-3408.45c-7.061,-6.317 -13.47,-13.326 -19.132,-20.923Zm113.588,-84.658l3809.88,3408.45c0,0 1884.79,1437.61 3524.44,830.643c1639.66,-606.969 3596.02,-3342.16 3596.02,-3342.16c0,-0 783.399,-949.247 -468.164,-2129.47c-1251.56,-1180.23 -1203.36,-960.672 -1484.93,-1158.11c-281.572,-197.439 -3463.68,-2066.11 -3463.68,-2066.11c-0,-0 24.022,-469.908 -3026.81,1615.02c-3050.84,2084.92 -2486.76,2841.75 -2486.76,2841.75Z" style="fill-opacity:0.24;"/></svg>