<?xml version="1.0" encoding="UTF-8" standalone="no"?><!DOCTYPE svg PUBLIC "-//W3C//DTD SVG 1.1//EN" "http://www.w3.org/Graphics/SVG/1.1/DTD/svg11.dtd"><svg width="100%" height="100%" viewBox="0 0 19500 14400" version="1.1" xmlns="http://www.w3.org/2000/svg" xmlns:xlink="http://www.w3.org/1999/xlink" xml:space="preserve" xmlns:serif="http://www.serif.com/" style="fill-rule:evenodd;clip-rule:evenodd;stroke-linejoin:round;stroke-miterlimit:2;"><path d="M6471.47,6650.83l4313.23,3858.76c0,0 2133.8,1627.55 3990.08,940.385c1856.28,-687.16 4071.12,-3783.71 4071.12,-3783.71c-0,0 886.898,-1074.66 -530.016,-2410.81c-1416.91,-1336.16 -1362.34,-1087.59 -1681.12,-1311.12c-318.773,-223.524 -3921.29,-2339.08 -3921.29,-2339.08c0,-0 27.196,-531.991 -3426.7,1828.38c-3453.9,2360.38 -2815.31,3217.19 -2815.31,3217.19Z" style="fill:#f3c04d;"/><path d="M6357.88,6735.49c0,-0 -226.217,-262.294 101.079,-874.872c277.057,-518.547 989.409,-1342.21 2747.89,-2543.94c1460.98,-998.424 2303.91,-1482.37 2789.77,-1708.6c357.081,-166.268 541.6,-198.992 634.684,-195.572c107.057,3.933 154.416,46.673 179.722,76.187c4.997,5.828 9.442,11.658 13.394,17.436c391.606,230.144 3591.72,2111.88 3891.68,2322.21c321.832,225.668 266.466,-24.934 1696.98,1324.04c601.791,567.492 806.804,1093.56 842.641,1516.94c52.647,621.973 -260.134,1036.26 -297.014,1082.73c-48.965,68.056 -834.714,1153.92 -1848.73,2169.31c-707.719,708.675 -1527.24,1380.59 -2286.01,1661.47c-773.387,286.293 -1593.08,190.504 -2298.22,-31.913c-1040.25,-328.116 -1826.96,-928.687 -1826.96,-928.687c-2.938,-2.241 -5.787,-4.596 -8.54,-7.059l-4313.23,-3858.76c-7.061,-6.316 -13.47,-13.326 -19.132,-20.922Zm113.589,-84.659l4313.23,3858.76c0,0 2133.8,1627.55 3990.08,940.385c1856.28,-687.16 4071.12,-3783.71 4071.12,-3783.71c-0,0 886.898,-1074.66 -530.016,-2410.81c-1416.91,-1336.16 -1362.34,-1087.59 -1681.12,-1311.12c-318.773,-223.524 -3921.29,-2339.08 -3921.29,-2339.08c0,-0 27.196,-531.991 -3426.7,1828.38c-3453.9,2360.38 -2815.31,3217.19 -2815.31,3217.19Z" style="fill-opacity:0.24;"/></svg>