<?xml version="1.0" encoding="UTF-8" standalone="no"?><!DOCTYPE svg PUBLIC "-//W3C//DTD SVG 1.1//EN" "http://www.w3.org/Graphics/SVG/1.1/DTD/svg11.dtd"><svg width="100%" height="100%" viewBox="0 0 19500 14400" version="1.1" xmlns="http://www.w3.org/2000/svg" xmlns:xlink="http://www.w3.org/1999/xlink" xml:space="preserve" xmlns:serif="http://www.serif.com/" style="fill-rule:evenodd;clip-rule:evenodd;stroke-linejoin:round;stroke-miterlimit:2;"><g id="edges"><path d="M10569.5,11906.2c0,-0 689.019,352.795 1163.02,443.664c443.093,84.944 862.023,22.913 1479.25,-193.731c629.112,-220.815 1444.96,-855.438 1444.96,-855.438c52.173,-40.47 126.824,-33.382 170.449,16.184c43.624,49.566 41.173,124.513 -5.596,171.123c0,0 -708.612,703.25 -1143.98,924.706c-1325.37,674.174 -1878.18,534.906 -2229.98,465.798c-251.184,-49.343 -804.807,-344.814 -804.807,-344.814c-23.694,-12.761 -42.638,-32.828 -54.014,-57.218l-189.405,-406.09c-22.556,-48.362 -11.924,-105.71 26.471,-142.772c38.394,-37.062 96.082,-45.663 143.617,-21.412Zm-56.804,111.347l189.405,406.09c0,0 529.146,284.971 769.632,332.213c339.231,66.64 871.166,195.542 2149.21,-454.556c423.844,-215.596 1112.41,-901.83 1112.41,-901.83c0,-0 -836.056,648.53 -1480.18,874.615c-644.125,226.085 -1081.78,287.195 -1544.18,198.55c-487.391,-93.436 -1196.29,-455.082 -1196.29,-455.082Z" style="fill-opacity:0.29;"/><path d="M10512.7,12017.6l189.405,406.09c0,0 529.146,284.971 769.632,332.213c339.231,66.64 871.166,195.542 2149.21,-454.556c423.844,-215.596 1112.41,-901.83 1112.41,-901.83c0,-0 -836.056,648.53 -1480.18,874.615c-644.125,226.085 -1081.78,287.195 -1544.18,198.55c-487.391,-93.436 -1196.29,-455.082 -1196.29,-455.082Z" style="fill:#697873;"/><path d="M9844.89,10312.1c0,0 -598.261,-39.74 -608.669,211.05c-10.409,250.79 -53.642,-125.395 -0,0c53.642,125.395 1664.04,1303.02 3122.69,1327.42c1458.65,24.41 2202.26,-718.241 3104.98,-1537.1c902.716,-818.856 1841.8,-2538.26 1925.46,-2790.66c83.662,-252.395 177.758,-1146.76 -821.858,-1910.64c-999.616,-763.886 -1211.48,-913.789 -1211.48,-913.789l1021.59,1568.3l-1089.75,2722.84l-3274.02,1470.61l-2168.94,-148.033Z" style="fill:#697873;"/><path d="M5024.66,5988c0,0 53.875,466.593 -229.375,314.893c-285.345,-152.821 -689.5,-1068.8 -670.503,-1472.3c18.996,-403.498 7.579,-1015.27 1130.42,-1857.79c1122.85,-842.528 1928.51,-1051.63 1928.51,-1051.63l430.891,605.96l-2589.95,3460.87Z" style="fill:#697873;"/></g></svg>