<?xml version="1.0" encoding="UTF-8" standalone="no"?><!DOCTYPE svg PUBLIC "-//W3C//DTD SVG 1.1//EN" "http://www.w3.org/Graphics/SVG/1.1/DTD/svg11.dtd"><svg width="100%" height="100%" viewBox="0 0 19500 14400" version="1.1" xmlns="http://www.w3.org/2000/svg" xmlns:xlink="http://www.w3.org/1999/xlink" xml:space="preserve" xmlns:serif="http://www.serif.com/" style="fill-rule:evenodd;clip-rule:evenodd;stroke-linejoin:round;stroke-miterlimit:2;"><path d="M6425.38,6716.09l3329.24,2978.45c0,-0 1647.01,1256.25 3079.82,725.853c1432.81,-530.397 3142.37,-2920.53 3142.37,-2920.53c-0,0 684.568,-829.493 -409.103,-1860.83c-1093.67,-1031.34 -1051.55,-839.479 -1297.6,-1012.01c-246.051,-172.53 -3026.72,-1805.46 -3026.72,-1805.46c-0,-0 20.991,-410.627 -2644.96,1411.27c-2665.95,1821.9 -2173.05,2483.24 -2173.05,2483.24Z" style="fill:#f3c04d;"/><path d="M6311.8,6800.74c0,0 -189.855,-213.317 75.428,-709.829c214.984,-402.371 766.77,-1042.54 2131.27,-1975.04c1130.04,-772.264 1782.12,-1146.44 2157.93,-1321.43c283.714,-132.106 430.762,-156.672 504.721,-153.954c96.836,3.558 139.18,43.37 162.07,70.066c2.895,3.377 5.595,6.755 8.112,10.12c327.357,192.409 2769.86,1628.9 3000.11,1790.35c249.109,174.675 206.193,-19.221 1313.46,1024.93c472.495,445.564 632.302,859.251 660.439,1191.67c41.441,489.593 -203.149,816.82 -235.704,857.987c-42.646,59.23 -648.708,895.505 -1429.87,1677.72c-549.725,550.468 -1186.76,1071.73 -1776.14,1289.91c-603.996,223.587 -1244.16,149.582 -1794.86,-24.12c-808.585,-255.044 -1420.05,-721.949 -1420.05,-721.949c-2.937,-2.24 -5.786,-4.595 -8.54,-7.059l-3329.24,-2978.45c-7.061,-6.317 -13.47,-13.326 -19.132,-20.923Zm113.589,-84.659l3329.24,2978.45c0,-0 1647.01,1256.25 3079.82,725.853c1432.81,-530.397 3142.37,-2920.53 3142.37,-2920.53c-0,0 684.568,-829.493 -409.103,-1860.83c-1093.67,-1031.34 -1051.55,-839.479 -1297.6,-1012.01c-246.051,-172.53 -3026.72,-1805.46 -3026.72,-1805.46c-0,-0 20.991,-410.627 -2644.96,1411.27c-2665.95,1821.9 -2173.05,2483.24 -2173.05,2483.24Z" style="fill-opacity:0.24;"/></svg>