<?xml version="1.0" encoding="UTF-8" standalone="no"?><!DOCTYPE svg PUBLIC "-//W3C//DTD SVG 1.1//EN" "http://www.w3.org/Graphics/SVG/1.1/DTD/svg11.dtd"><svg width="100%" height="100%" viewBox="0 0 19500 14400" version="1.1" xmlns="http://www.w3.org/2000/svg" xmlns:xlink="http://www.w3.org/1999/xlink" xml:space="preserve" xmlns:serif="http://www.serif.com/" style="fill-rule:evenodd;clip-rule:evenodd;stroke-linejoin:round;stroke-miterlimit:2;"><g id="hinge"><path d="M5000.52,6000.7c0,0 -672.407,313.195 -659.328,967.886c0.621,31.096 687.745,614.067 2556.41,2264.9c1660.87,1467.26 2142.97,1986.2 2142.97,1986.2c0,0 169.24,-848.802 798.772,-895.78c629.532,-46.979 -4635.27,-4407.81 -4838.83,-4323.21Z" style="fill:#202020;"/><path d="M4946.15,5869.88c25.644,-10.657 73.205,-20.857 138.241,3.196c71.308,26.373 227.505,123.855 440.588,277.683c992.639,716.604 3347.32,2687.12 4177.35,3602.2c136.243,150.202 233.025,274.767 281.496,363.049c31.904,58.11 46.189,107.526 48.855,144.587c4.535,63.044 -16.252,110.506 -50.042,145.738c-28.341,29.551 -70.299,54.194 -132.74,58.854c-205.446,15.331 -348.531,139.047 -449.002,277.528c-166.429,229.393 -221.381,504.68 -221.381,504.68c-10.402,52.17 -49.154,94.115 -100.339,108.607c-51.185,14.492 -106.175,-0.913 -142.382,-39.887c-0,0 -480.045,-516.205 -2132.98,-1976.45c-1687.07,-1490.4 -2413.82,-2113.43 -2542.81,-2245.81c-57.723,-59.242 -61.198,-109.873 -61.449,-122.436c-14.806,-741.091 741.151,-1099.13 741.151,-1099.13c1.799,-0.838 3.615,-1.638 5.447,-2.4Zm54.368,130.819c0,0 -672.407,313.195 -659.328,967.886c0.621,31.096 687.745,614.067 2556.41,2264.9c1660.87,1467.26 2142.97,1986.2 2142.97,1986.2c0,0 169.24,-848.802 798.772,-895.78c629.532,-46.979 -4635.27,-4407.81 -4838.83,-4323.21Z" style="fill-opacity:0.33;"/><path d="M5112.7,6114.36c12.182,-3.402 24.834,3.726 28.236,15.908c3.402,12.182 -3.726,24.834 -15.907,28.236c-0,0 -7.581,2.132 -21.066,6.848c-11.939,4.176 -25.022,-2.127 -29.198,-14.066c-4.175,-11.939 2.127,-25.022 14.066,-29.198c15.274,-5.342 23.869,-7.728 23.869,-7.728Zm-113.366,44.965c11.415,-5.447 25.105,-0.601 30.551,10.815c5.447,11.415 0.601,25.105 -10.815,30.551c-12.946,6.177 -26.742,13.109 -41.203,20.851c-11.151,5.969 -25.05,1.762 -31.019,-9.389c-5.97,-11.151 -1.763,-25.05 9.388,-31.019c15.126,-8.097 29.557,-15.348 43.098,-21.809Zm-126.055,71.201c10.562,-6.959 24.786,-4.035 31.746,6.526c6.959,10.561 4.035,24.786 -6.526,31.745c-12.478,8.223 -25.161,16.979 -37.963,26.293c-10.228,7.441 -24.573,5.179 -32.014,-5.049c-7.441,-10.227 -5.178,-24.572 5.049,-32.013c13.392,-9.743 26.657,-18.902 39.708,-27.502Zm-115.072,88.005c9.47,-8.384 23.965,-7.503 32.35,1.967c8.384,9.47 7.503,23.965 -1.967,32.349c-11.299,10.004 -22.569,20.467 -33.753,31.405c-9.043,8.844 -23.564,8.683 -32.407,-0.36c-8.844,-9.042 -8.683,-23.563 0.36,-32.407c11.736,-11.478 23.561,-22.457 35.417,-32.954Zm-101.084,104.074c8.089,-9.723 22.551,-11.05 32.274,-2.961c9.723,8.089 11.05,22.55 2.961,32.274c-9.673,11.627 -19.187,23.672 -28.499,36.148c-7.566,10.136 -21.937,12.222 -32.073,4.657c-10.136,-7.566 -12.223,-21.937 -4.657,-32.073c9.801,-13.13 19.814,-25.808 29.994,-38.045Zm-83.727,118.678c6.44,-10.886 20.506,-14.496 31.392,-8.056c10.886,6.439 14.496,20.506 8.056,31.392c-7.701,13.018 -15.163,26.42 -22.352,40.213c-5.846,11.216 -19.699,15.576 -30.914,9.73c-11.216,-5.846 -15.576,-19.698 -9.73,-30.914c7.574,-14.532 15.435,-28.65 23.548,-42.365Zm-63.688,130.533c4.625,-11.772 17.938,-17.573 29.71,-12.948c11.772,4.626 17.574,17.938 12.948,29.71c-5.533,14.081 -10.783,28.508 -15.725,43.288c-4.01,11.995 -17.005,18.477 -29.001,14.466c-11.995,-4.011 -18.477,-17.005 -14.466,-29.001c5.196,-15.54 10.716,-30.709 16.534,-45.515Zm-42.57,138.671c2.802,-12.333 15.09,-20.072 27.424,-17.27c12.334,2.802 20.072,15.09 17.27,27.424c-3.356,14.773 -6.414,29.852 -9.155,45.243c-2.218,12.452 -14.128,20.761 -26.58,18.544c-12.452,-2.218 -20.761,-14.128 -18.543,-26.58c2.869,-16.111 6.071,-31.896 9.584,-47.361Zm-22.221,143.017c1.108,-12.6 12.237,-21.929 24.837,-20.821c12.599,1.109 21.928,12.238 20.82,24.837c-1.331,15.13 -2.368,30.526 -3.098,46.193c-0.588,12.635 -11.323,22.415 -23.957,21.827c-12.635,-0.589 -22.414,-11.324 -21.826,-23.958c0.759,-16.307 1.839,-32.331 3.224,-48.078Zm-3.965,144.289c-0.377,-12.642 9.581,-23.212 22.224,-23.589c12.642,-0.376 23.212,9.582 23.589,22.224c0.228,7.674 0.528,15.406 0.899,23.197c0.602,12.634 -9.166,23.38 -21.8,23.982c-12.634,0.602 -23.379,-9.166 -23.981,-21.8c-0.385,-8.066 -0.695,-16.07 -0.931,-24.014Z" style="fill-opacity:0.27;"/><path d="M9515.93,10169.4c12.469,-2.12 24.313,6.283 26.433,18.752c2.12,12.469 -6.283,24.314 -18.752,26.433c0,0 -10.587,1.861 -29.05,7.651c-12.069,3.784 -24.94,-2.941 -28.724,-15.01c-3.785,-12.068 2.941,-24.939 15.009,-28.724c22.277,-6.986 35.084,-9.102 35.084,-9.102Zm-160.37,65.919c10.904,-6.408 24.96,-2.757 31.368,8.148c6.408,10.904 2.757,24.96 -8.148,31.368c-17.071,10.031 -35.102,21.639 -53.806,35.054c-10.278,7.371 -24.607,5.011 -31.978,-5.267c-7.371,-10.278 -5.011,-24.607 5.267,-31.979c19.917,-14.284 39.119,-26.642 57.297,-37.324Zm-161.037,125.575c8.958,-8.929 23.48,-8.905 32.409,0.053c8.929,8.958 8.906,23.48 -0.052,32.409c-14.632,14.584 -29.362,30.317 -44.083,47.287c-8.288,9.554 -22.774,10.581 -32.328,2.293c-9.554,-8.288 -10.582,-22.774 -2.293,-32.328c15.477,-17.84 30.964,-34.381 46.347,-49.714Zm-128.162,157.757c6.983,-10.546 21.214,-13.439 31.759,-6.456c10.546,6.983 13.439,21.214 6.456,31.76c-11.579,17.486 -23.024,35.876 -34.28,55.214c-6.362,10.931 -20.402,14.641 -31.334,8.278c-10.931,-6.363 -14.64,-20.403 -8.278,-31.334c11.714,-20.126 23.627,-39.264 35.677,-57.462Zm-97.323,177.493c5.209,-11.526 18.796,-16.654 30.321,-11.445c11.526,5.209 16.654,18.795 11.445,30.321c-8.72,19.294 -17.233,39.313 -25.505,60.085c-4.68,11.751 -18.019,17.492 -29.77,12.812c-11.75,-4.68 -17.491,-18.019 -12.811,-29.769c8.536,-21.436 17.322,-42.095 26.32,-62.004Zm-70.848,188.876c3.716,-12.09 16.548,-18.889 28.638,-15.173c12.09,3.715 18.889,16.547 15.173,28.637c-6.264,20.382 -12.303,41.358 -18.098,62.945c-3.279,12.216 -15.858,19.472 -28.074,16.193c-12.215,-3.279 -19.471,-15.859 -16.192,-28.074c5.94,-22.13 12.132,-43.634 18.553,-64.528Zm-49.039,195.11c2.489,-12.401 14.577,-20.448 26.978,-17.96c12.401,2.489 20.448,14.577 17.96,26.978c-2.131,10.617 -4.205,21.36 -6.222,32.23c-2.307,12.436 -14.276,20.66 -26.712,18.353c-12.436,-2.307 -20.659,-14.276 -18.352,-26.712c2.057,-11.093 4.174,-22.055 6.348,-32.889Z" style="fill-opacity:0.27;"/></g></svg>