<?xml version="1.0" encoding="UTF-8" standalone="no"?><!DOCTYPE svg PUBLIC "-//W3C//DTD SVG 1.1//EN" "http://www.w3.org/Graphics/SVG/1.1/DTD/svg11.dtd"><svg width="100%" height="100%" viewBox="0 0 19500 14400" version="1.1" xmlns="http://www.w3.org/2000/svg" xmlns:xlink="http://www.w3.org/1999/xlink" xml:space="preserve" xmlns:serif="http://www.serif.com/" style="fill-rule:evenodd;clip-rule:evenodd;stroke-linejoin:round;stroke-miterlimit:2;"><g id="hinge"><path d="M5000.52,6000.7c0,0 -672.407,313.195 -659.328,967.886c0.621,31.096 687.745,614.067 2556.41,2264.9c1660.87,1467.26 2142.97,1986.2 2142.97,1986.2c0,0 169.24,-848.802 798.772,-895.78c629.532,-46.979 -4635.27,-4407.81 -4838.83,-4323.21Z" style="fill:#fa68b8;"/><path d="M4946.15,5869.88c25.644,-10.657 73.205,-20.857 138.241,3.196c71.308,26.373 227.505,123.855 440.588,277.683c992.639,716.604 3347.32,2687.12 4177.35,3602.2c136.243,150.202 233.025,274.767 281.496,363.049c31.904,58.11 46.189,107.526 48.855,144.587c4.535,63.044 -16.252,110.506 -50.042,145.738c-28.341,29.551 -70.299,54.194 -132.74,58.854c-205.446,15.331 -348.531,139.047 -449.002,277.528c-166.429,229.393 -221.381,504.68 -221.381,504.68c-10.402,52.17 -49.154,94.115 -100.339,108.607c-51.185,14.492 -106.175,-0.913 -142.382,-39.887c-0,0 -480.045,-516.205 -2132.98,-1976.45c-1687.07,-1490.4 -2413.82,-2113.43 -2542.81,-2245.81c-57.723,-59.242 -61.198,-109.873 -61.449,-122.436c-14.806,-741.091 741.151,-1099.13 741.151,-1099.13c1.799,-0.838 3.615,-1.638 5.447,-2.4Zm54.368,130.819c0,0 -672.407,313.195 -659.328,967.886c0.621,31.096 687.745,614.067 2556.41,2264.9c1660.87,1467.26 2142.97,1986.2 2142.97,1986.2c0,0 169.24,-848.802 798.772,-895.78c629.532,-46.979 -4635.27,-4407.81 -4838.83,-4323.21Z" style="fill-opacity:0.33;"/></g></svg>