<?xml version="1.0" encoding="UTF-8" standalone="no"?><!DOCTYPE svg PUBLIC "-//W3C//DTD SVG 1.1//EN" "http://www.w3.org/Graphics/SVG/1.1/DTD/svg11.dtd"><svg width="100%" height="100%" viewBox="0 0 19500 14400" version="1.1" xmlns="http://www.w3.org/2000/svg" xmlns:xlink="http://www.w3.org/1999/xlink" xml:space="preserve" xmlns:serif="http://www.serif.com/" style="fill-rule:evenodd;clip-rule:evenodd;stroke-linejoin:round;stroke-miterlimit:2;"><g id="hinge"><path d="M5521.4,5964.37c0,0 -587.58,273.684 -576.15,845.782c0.543,27.173 600.982,536.6 2233.91,1979.17c1451.34,1282.16 1872.63,1735.63 1872.63,1735.63c-0,-0 147.89,-741.721 698.002,-782.773c550.113,-41.052 -4050.51,-3851.74 -4228.39,-3777.82Z" style="fill:#f3c04d;"/><path d="M5467.03,5833.55c24.829,-10.319 70.89,-20.755 133.859,2.534c62.972,23.289 201.095,109.078 389.268,244.923c868.082,626.684 2927.25,2349.99 3653.13,3150.24c120.295,132.621 205.615,242.707 248.411,320.655c29.474,53.682 42.389,99.428 44.852,133.666c4.39,61.029 -15.946,106.899 -48.656,141.005c-27.261,28.425 -67.501,52.399 -127.563,56.881c-173.68,12.961 -294.286,118.12 -379.222,235.19c-143.126,197.272 -190.391,434.01 -190.391,434.01c-10.402,52.17 -49.154,94.116 -100.34,108.607c-51.185,14.492 -106.174,-0.912 -142.381,-39.886c-0,-0 -419.225,-450.738 -1862.63,-1725.88c-1474.9,-1302.97 -2110.22,-1847.67 -2222.99,-1963.41c-55.963,-57.434 -58.522,-106.925 -58.765,-119.105c-13.156,-658.499 657.973,-977.031 657.973,-977.031c1.799,-0.838 3.615,-1.638 5.447,-2.399Zm54.368,130.818c0,0 -587.58,273.684 -576.15,845.782c0.543,27.173 600.982,536.6 2233.91,1979.17c1451.34,1282.16 1872.63,1735.63 1872.63,1735.63c-0,-0 147.89,-741.721 698.002,-782.773c550.113,-41.052 -4050.51,-3851.74 -4228.39,-3777.82Z" style="fill-opacity:0.33;"/><path d="M5618.65,6060.91c12.182,-3.402 24.835,3.726 28.237,15.908c3.402,12.182 -3.726,24.834 -15.908,28.236c0,0 -10.113,2.846 -27.578,9.289c-11.867,4.377 -25.055,-1.703 -29.432,-13.57c-4.377,-11.866 1.703,-25.054 13.57,-29.431c19.693,-7.265 31.111,-10.432 31.111,-10.432Zm-146.614,63.633c11.082,-6.096 25.029,-2.048 31.125,9.034c6.096,11.083 2.048,25.029 -9.034,31.125c-16.507,9.08 -33.907,19.339 -51.856,30.874c-10.64,6.838 -24.83,3.751 -31.668,-6.889c-6.838,-10.641 -3.751,-24.831 6.889,-31.669c18.88,-12.133 37.181,-22.924 54.544,-32.475Zm-156.316,108.422c9.572,-8.268 24.055,-7.21 32.323,2.362c8.268,9.571 7.21,24.055 -2.362,32.323c-14.775,12.763 -29.523,26.419 -44.076,41.015c-8.93,8.956 -23.452,8.978 -32.409,0.047c-8.957,-8.93 -8.978,-23.452 -0.048,-32.409c15.377,-15.422 30.96,-29.852 46.572,-43.338Zm-129.222,140.161c7.43,-10.235 21.773,-12.512 32.008,-5.082c10.236,7.43 12.513,21.772 5.083,32.008c-11.523,15.873 -22.664,32.525 -33.313,49.987c-6.586,10.799 -20.699,14.219 -31.497,7.634c-10.799,-6.585 -14.219,-20.699 -7.634,-31.497c11.301,-18.532 23.124,-36.204 35.353,-53.05Zm-92.733,166.781c4.779,-11.71 18.167,-17.337 29.877,-12.558c11.71,4.779 17.338,18.167 12.558,29.877c-7.411,18.159 -14.281,36.992 -20.535,56.52c-3.858,12.045 -16.769,18.693 -28.815,14.835c-12.045,-3.858 -18.692,-16.769 -14.835,-28.815c6.624,-20.681 13.901,-40.627 21.75,-59.859Zm-51.475,183.404c2.074,-12.477 13.888,-20.922 26.365,-18.848c12.477,2.075 20.922,13.888 18.848,26.365c-3.225,19.395 -5.874,39.349 -7.9,59.876c-1.242,12.587 -12.47,21.797 -25.056,20.555c-12.587,-1.242 -21.798,-12.469 -20.556,-25.056c2.128,-21.561 4.912,-42.52 8.299,-62.892Zm-13.021,189.31c-0.262,-12.645 9.792,-23.124 22.437,-23.386c12.646,-0.262 23.125,9.792 23.386,22.438c0.207,9.994 0.552,20.103 1.039,30.329c0.602,12.634 -9.166,23.38 -21.799,23.982c-12.634,0.602 -23.38,-9.166 -23.982,-21.8c-0.507,-10.642 -0.866,-21.163 -1.081,-31.563Z" style="fill-opacity:0.27;"/><path d="M9466.68,9604.35c12.469,-2.12 24.313,6.283 26.433,18.752c2.119,12.469 -6.283,24.313 -18.752,26.433c-0,0 -9.111,1.61 -25.005,6.594c-12.069,3.784 -24.939,-2.941 -28.724,-15.01c-3.785,-12.068 2.941,-24.939 15.009,-28.724c19.708,-6.18 31.039,-8.045 31.039,-8.045Zm-141.119,57.96c10.904,-6.407 24.96,-2.757 31.368,8.148c6.408,10.905 2.757,24.96 -8.148,31.368c-14.847,8.725 -30.53,18.821 -46.798,30.488c-10.278,7.372 -24.607,5.012 -31.978,-5.266c-7.371,-10.279 -5.011,-24.607 5.267,-31.979c17.481,-12.537 34.334,-23.384 50.289,-32.759Zm-141.298,110.179c8.958,-8.929 23.48,-8.906 32.409,0.052c8.929,8.958 8.906,23.48 -0.052,32.409c-12.738,12.697 -25.562,26.395 -38.379,41.168c-8.288,9.554 -22.773,10.582 -32.327,2.294c-9.554,-8.288 -10.582,-22.774 -2.294,-32.328c13.572,-15.645 27.154,-30.149 40.643,-43.595Zm-112.363,138.306c6.983,-10.546 21.214,-13.439 31.76,-6.456c10.545,6.983 13.438,21.214 6.455,31.76c-10.088,15.235 -20.06,31.258 -29.867,48.107c-6.362,10.931 -20.403,14.64 -31.334,8.278c-10.931,-6.363 -14.64,-20.403 -8.278,-31.334c10.265,-17.637 20.704,-34.408 31.264,-50.355Zm-85.269,155.506c5.209,-11.525 18.796,-16.653 30.321,-11.444c11.526,5.209 16.654,18.795 11.445,30.321c-7.602,16.821 -15.024,34.274 -22.236,52.384c-4.68,11.751 -18.019,17.491 -29.77,12.812c-11.75,-4.68 -17.491,-18.019 -12.811,-29.77c7.476,-18.773 15.17,-36.866 23.051,-54.303Zm-62.039,165.39c3.716,-12.09 16.548,-18.889 28.638,-15.173c12.09,3.715 18.889,16.548 15.173,28.638c-5.464,17.778 -10.732,36.075 -15.786,54.904c-3.279,12.216 -15.858,19.471 -28.074,16.192c-12.216,-3.279 -19.471,-15.858 -16.192,-28.074c5.2,-19.372 10.62,-38.196 16.241,-56.487Zm-42.923,170.777c2.488,-12.401 14.576,-20.449 26.977,-17.96c12.401,2.488 20.449,14.577 17.96,26.978c-1.859,9.263 -3.669,18.637 -5.428,28.122c-2.307,12.436 -14.277,20.66 -26.713,18.353c-12.435,-2.307 -20.659,-14.276 -18.352,-26.712c1.801,-9.707 3.653,-19.301 5.556,-28.781Z" style="fill-opacity:0.27;"/></g></svg>